<?xml version="1.0" encoding="UTF-8" standalone="no"?><svg xmlns="http://www.w3.org/2000/svg" xmlns:xlink="http://www.w3.org/1999/xlink" contentScriptType="application/ecmascript" contentStyleType="text/css" height="585px" preserveAspectRatio="none" style="width:1801px;height:585px;" version="1.1" viewBox="0 0 1801 585" width="1801px" zoomAndPan="magnify"><defs><filter height="300%" id="f13jdttpnc6olu" width="300%" x="-1" y="-1"><feGaussianBlur result="blurOut" stdDeviation="2.0"/><feColorMatrix in="blurOut" result="blurOut2" type="matrix" values="0 0 0 0 0 0 0 0 0 0 0 0 0 0 0 0 0 0 .4 0"/><feOffset dx="4.0" dy="4.0" in="blurOut2" result="blurOut3"/><feBlend in="SourceGraphic" in2="blurOut3" mode="normal"/></filter></defs><g><!--MD5=[3da828b9b37b0c93dfffc4a83af72dd6]
cluster AdminManagement--><polygon fill="#FFFFFF" filter="url(#f13jdttpnc6olu)" points="203,146,359,146,366,168.2969,1392,168.2969,1392,573,203,573,203,146" style="stroke: #000000; stroke-width: 1.5;"/><line style="stroke: #000000; stroke-width: 1.5;" x1="203" x2="366" y1="168.2969" y2="168.2969"/><text fill="#000000" font-family="sans-serif" font-size="14" font-weight="bold" lengthAdjust="spacingAndGlyphs" textLength="150" x="207" y="160.9951">AdminManagement</text><!--MD5=[da3efc0020bcc0d84ed89d64c364f49d]
cluster org.salespoint.useraccount--><polygon fill="#FFFFFF" filter="url(#f13jdttpnc6olu)" points="1400,327,1623,327,1630,349.2969,1633,349.2969,1633,410,1400,410,1400,327" style="stroke: #000000; stroke-width: 1.5;"/><line style="stroke: #000000; stroke-width: 1.5;" x1="1400" x2="1630" y1="349.2969" y2="349.2969"/><text fill="#000000" font-family="sans-serif" font-size="14" font-weight="bold" lengthAdjust="spacingAndGlyphs" textLength="217" x="1404" y="341.9951">org.salespoint.useraccount</text><!--MD5=[20b4f425a42ca3721460ac5816318e6d]
cluster MemberManagement--><polygon fill="#FFFFFF" filter="url(#f13jdttpnc6olu)" points="14,327,185,327,192,349.2969,195,349.2969,195,410,14,410,14,327" style="stroke: #000000; stroke-width: 1.5;"/><line style="stroke: #000000; stroke-width: 1.5;" x1="14" x2="192" y1="349.2969" y2="349.2969"/><text fill="#000000" font-family="sans-serif" font-size="14" font-weight="bold" lengthAdjust="spacingAndGlyphs" textLength="165" x="18" y="341.9951">MemberManagement</text><!--MD5=[26b6f0a05492e01b2defc2485e10a4a5]
cluster org.salespoint--><polygon fill="#FFFFFF" filter="url(#f13jdttpnc6olu)" points="1641,327,1760,327,1767,349.2969,1779,349.2969,1779,410,1641,410,1641,327" style="stroke: #000000; stroke-width: 1.5;"/><line style="stroke: #000000; stroke-width: 1.5;" x1="1641" x2="1767" y1="349.2969" y2="349.2969"/><text fill="#000000" font-family="sans-serif" font-size="14" font-weight="bold" lengthAdjust="spacingAndGlyphs" textLength="113" x="1645" y="341.9951">org.salespoint</text><!--MD5=[5ede147e9e122c363c3337daa7824069]
cluster java.time--><polygon fill="#FFFFFF" filter="url(#f13jdttpnc6olu)" points="315,16,391,16,398,38.2969,425,38.2969,425,99,315,99,315,16" style="stroke: #000000; stroke-width: 1.5;"/><line style="stroke: #000000; stroke-width: 1.5;" x1="315" x2="398" y1="38.2969" y2="38.2969"/><text fill="#000000" font-family="sans-serif" font-size="14" font-weight="bold" lengthAdjust="spacingAndGlyphs" textLength="70" x="319" y="30.9951">java.time</text><!--MD5=[9c520ac34872ef1de990bad1781d26ab]
class AdminManagement.User--><rect fill="#FEFECE" filter="url(#f13jdttpnc6olu)" height="99.2188" id="AdminManagement.User" style="stroke: #A80036; stroke-width: 1.5;" width="415" x="969.5" y="173"/><ellipse cx="1158.25" cy="189" fill="#ADD1B2" rx="11" ry="11" style="stroke: #A80036; stroke-width: 1.0;"/><path d="M1161.2188,194.6406 Q1160.6406,194.9375 1160,195.0859 Q1159.3594,195.2344 1158.6563,195.2344 Q1156.1563,195.2344 1154.8359,193.5859 Q1153.5156,191.9375 1153.5156,188.8125 Q1153.5156,185.6875 1154.8359,184.0313 Q1156.1563,182.375 1158.6563,182.375 Q1159.3594,182.375 1160.0078,182.5313 Q1160.6563,182.6875 1161.2188,182.9844 L1161.2188,185.7031 Q1160.5938,185.125 1160,184.8516 Q1159.4063,184.5781 1158.7813,184.5781 Q1157.4375,184.5781 1156.75,185.6484 Q1156.0625,186.7188 1156.0625,188.8125 Q1156.0625,190.9063 1156.75,191.9766 Q1157.4375,193.0469 1158.7813,193.0469 Q1159.4063,193.0469 1160,192.7734 Q1160.5938,192.5 1161.2188,191.9219 L1161.2188,194.6406 Z "/><text fill="#000000" font-family="sans-serif" font-size="12" lengthAdjust="spacingAndGlyphs" textLength="29" x="1178.75" y="193.1543">User</text><line style="stroke: #A80036; stroke-width: 1.5;" x1="970.5" x2="1383.5" y1="205" y2="205"/><rect fill="none" height="6" style="stroke: #C82930; stroke-width: 1.0;" width="6" x="977.5" y="213"/><text fill="#000000" font-family="sans-serif" font-size="11" lengthAdjust="spacingAndGlyphs" textLength="72" x="989.5" y="219.2104">userID: Long</text><rect fill="none" height="6" style="stroke: #C82930; stroke-width: 1.0;" width="6" x="977.5" y="225.8047"/><text fill="#000000" font-family="sans-serif" font-size="11" lengthAdjust="spacingAndGlyphs" textLength="93" x="989.5" y="232.0151">fistName: String</text><rect fill="none" height="6" style="stroke: #C82930; stroke-width: 1.0;" width="6" x="977.5" y="238.6094"/><text fill="#000000" font-family="sans-serif" font-size="11" lengthAdjust="spacingAndGlyphs" textLength="96" x="989.5" y="244.8198">lastName: String</text><line style="stroke: #A80036; stroke-width: 1.5;" x1="970.5" x2="1383.5" y1="251.4141" y2="251.4141"/><ellipse cx="980.5" cy="262.4141" fill="#84BE84" rx="3" ry="3" style="stroke: #038048; stroke-width: 1.0;"/><text fill="#000000" font-family="sans-serif" font-size="11" lengthAdjust="spacingAndGlyphs" textLength="389" x="989.5" y="265.6245">User(userAccount: UserAccount, fistName: String, lastName: String)</text><!--MD5=[af2888713ecdde55cf849f9878d943ac]
class AdminManagement.StatisticController--><rect fill="#FEFECE" filter="url(#f13jdttpnc6olu)" height="86.4141" id="AdminManagement.StatisticController" style="stroke: #A80036; stroke-width: 1.5;" width="388" x="547" y="179.5"/><ellipse cx="680.75" cy="195.5" fill="#ADD1B2" rx="11" ry="11" style="stroke: #A80036; stroke-width: 1.0;"/><path d="M683.7188,201.1406 Q683.1406,201.4375 682.5,201.5859 Q681.8594,201.7344 681.1563,201.7344 Q678.6563,201.7344 677.3359,200.0859 Q676.0156,198.4375 676.0156,195.3125 Q676.0156,192.1875 677.3359,190.5313 Q678.6563,188.875 681.1563,188.875 Q681.8594,188.875 682.5078,189.0313 Q683.1563,189.1875 683.7188,189.4844 L683.7188,192.2031 Q683.0938,191.625 682.5,191.3516 Q681.9063,191.0781 681.2813,191.0781 Q679.9375,191.0781 679.25,192.1484 Q678.5625,193.2188 678.5625,195.3125 Q678.5625,197.4063 679.25,198.4766 Q679.9375,199.5469 681.2813,199.5469 Q681.9063,199.5469 682.5,199.2734 Q683.0938,199 683.7188,198.4219 L683.7188,201.1406 Z "/><text fill="#000000" font-family="sans-serif" font-size="12" lengthAdjust="spacingAndGlyphs" textLength="112" x="701.25" y="199.6543">StatisticController</text><line style="stroke: #A80036; stroke-width: 1.5;" x1="548" x2="934" y1="211.5" y2="211.5"/><line style="stroke: #A80036; stroke-width: 1.5;" x1="548" x2="934" y1="219.5" y2="219.5"/><ellipse cx="558" cy="230.5" fill="#84BE84" rx="3" ry="3" style="stroke: #038048; stroke-width: 1.0;"/><text fill="#000000" font-family="sans-serif" font-size="11" lengthAdjust="spacingAndGlyphs" textLength="362" x="567" y="233.7104">StatisticController(statisticsManagement: StatisticManagement)</text><ellipse cx="558" cy="243.3047" fill="#84BE84" rx="3" ry="3" style="stroke: #038048; stroke-width: 1.0;"/><text fill="#000000" font-family="sans-serif" font-size="11" lengthAdjust="spacingAndGlyphs" textLength="294" x="567" y="246.5151">earnings(form: EarningsForm, model: Model):String</text><ellipse cx="558" cy="256.1094" fill="#84BE84" rx="3" ry="3" style="stroke: #038048; stroke-width: 1.0;"/><text fill="#000000" font-family="sans-serif" font-size="11" lengthAdjust="spacingAndGlyphs" textLength="324" x="567" y="259.3198">Attendance (form: AttendanceForm, model: Model):String</text><!--MD5=[90eefaf693ee1d16f2ef1d095cbb7a8d]
class AdminManagement.StatisticManagement--><rect fill="#FEFECE" filter="url(#f13jdttpnc6olu)" height="86.4141" id="AdminManagement.StatisticManagement" style="stroke: #A80036; stroke-width: 1.5;" width="443" x="222.5" y="479"/><ellipse cx="373.25" cy="495" fill="#ADD1B2" rx="11" ry="11" style="stroke: #A80036; stroke-width: 1.0;"/><path d="M376.2188,500.6406 Q375.6406,500.9375 375,501.0859 Q374.3594,501.2344 373.6563,501.2344 Q371.1563,501.2344 369.8359,499.5859 Q368.5156,497.9375 368.5156,494.8125 Q368.5156,491.6875 369.8359,490.0313 Q371.1563,488.375 373.6563,488.375 Q374.3594,488.375 375.0078,488.5313 Q375.6563,488.6875 376.2188,488.9844 L376.2188,491.7031 Q375.5938,491.125 375,490.8516 Q374.4063,490.5781 373.7813,490.5781 Q372.4375,490.5781 371.75,491.6484 Q371.0625,492.7188 371.0625,494.8125 Q371.0625,496.9063 371.75,497.9766 Q372.4375,499.0469 373.7813,499.0469 Q374.4063,499.0469 375,498.7734 Q375.5938,498.5 376.2188,497.9219 L376.2188,500.6406 Z "/><text fill="#000000" font-family="sans-serif" font-size="12" lengthAdjust="spacingAndGlyphs" textLength="133" x="393.75" y="499.1543">StatisticManagement</text><line style="stroke: #A80036; stroke-width: 1.5;" x1="223.5" x2="664.5" y1="511" y2="511"/><line style="stroke: #A80036; stroke-width: 1.5;" x1="223.5" x2="664.5" y1="519" y2="519"/><ellipse cx="233.5" cy="530" fill="#84BE84" rx="3" ry="3" style="stroke: #038048; stroke-width: 1.0;"/><text fill="#000000" font-family="sans-serif" font-size="11" lengthAdjust="spacingAndGlyphs" textLength="417" x="242.5" y="533.2104">StaffManagement (members: MemberRepository, orders: OrderManager)</text><ellipse cx="233.5" cy="542.8047" fill="#84BE84" rx="3" ry="3" style="stroke: #038048; stroke-width: 1.0;"/><text fill="#000000" font-family="sans-serif" font-size="11" lengthAdjust="spacingAndGlyphs" textLength="159" x="242.5" y="546.0151">getEarnings():EarningsForm</text><ellipse cx="233.5" cy="555.6094" fill="#84BE84" rx="3" ry="3" style="stroke: #038048; stroke-width: 1.0;"/><text fill="#000000" font-family="sans-serif" font-size="11" lengthAdjust="spacingAndGlyphs" textLength="189" x="242.5" y="558.8198">getAttendance(): AttendanceForm</text><!--MD5=[c5b713420511d9107af2bae1f9a05522]
class AdminManagement.EarningsForm--><rect fill="#FEFECE" filter="url(#f13jdttpnc6olu)" height="86.4141" id="AdminManagement.EarningsForm" style="stroke: #A80036; stroke-width: 1.5;" width="130" x="211" y="179.5"/><ellipse cx="231.4" cy="195.5" fill="#B4A7E5" rx="11" ry="11" style="stroke: #A80036; stroke-width: 1.0;"/><path d="M227.3219,191.2656 L227.3219,189.1094 L234.7125,189.1094 L234.7125,191.2656 L232.2438,191.2656 L232.2438,199.3438 L234.7125,199.3438 L234.7125,201.5 L227.3219,201.5 L227.3219,199.3438 L229.7906,199.3438 L229.7906,191.2656 L227.3219,191.2656 Z "/><text fill="#000000" font-family="sans-serif" font-size="12" font-style="italic" lengthAdjust="spacingAndGlyphs" textLength="86" x="246.6" y="199.6543">EarningsForm</text><line style="stroke: #A80036; stroke-width: 1.5;" x1="212" x2="340" y1="211.5" y2="211.5"/><line style="stroke: #A80036; stroke-width: 1.5;" x1="212" x2="340" y1="219.5" y2="219.5"/><text fill="#000000" font-family="sans-serif" font-size="11" lengthAdjust="spacingAndGlyphs" textLength="87" x="217" y="233.7104">getAmount():int</text><text fill="#000000" font-family="sans-serif" font-size="11" lengthAdjust="spacingAndGlyphs" textLength="118" x="217" y="246.5151">getEarnings():double</text><text fill="#000000" font-family="sans-serif" font-size="11" lengthAdjust="spacingAndGlyphs" textLength="113" x="217" y="259.3198">getTime():LocalDate</text><!--MD5=[7b6ada67bbdbe23f94a279cba51c6865]
class AdminManagement.AttendanceForm--><rect fill="#FEFECE" filter="url(#f13jdttpnc6olu)" height="86.4141" id="AdminManagement.AttendanceForm" style="stroke: #A80036; stroke-width: 1.5;" width="136" x="376" y="179.5"/><ellipse cx="391" cy="195.5" fill="#B4A7E5" rx="11" ry="11" style="stroke: #A80036; stroke-width: 1.0;"/><path d="M386.9219,191.2656 L386.9219,189.1094 L394.3125,189.1094 L394.3125,191.2656 L391.8438,191.2656 L391.8438,199.3438 L394.3125,199.3438 L394.3125,201.5 L386.9219,201.5 L386.9219,199.3438 L389.3906,199.3438 L389.3906,191.2656 L386.9219,191.2656 Z "/><text fill="#000000" font-family="sans-serif" font-size="12" font-style="italic" lengthAdjust="spacingAndGlyphs" textLength="104" x="405" y="199.6543">AttendanceForm</text><line style="stroke: #A80036; stroke-width: 1.5;" x1="377" x2="511" y1="211.5" y2="211.5"/><line style="stroke: #A80036; stroke-width: 1.5;" x1="377" x2="511" y1="219.5" y2="219.5"/><text fill="#000000" font-family="sans-serif" font-size="11" lengthAdjust="spacingAndGlyphs" textLength="87" x="382" y="233.7104">getAmount():int</text><text fill="#000000" font-family="sans-serif" font-size="11" lengthAdjust="spacingAndGlyphs" textLength="124" x="382" y="246.5151">getTotalTime():double</text><text fill="#000000" font-family="sans-serif" font-size="11" lengthAdjust="spacingAndGlyphs" textLength="113" x="382" y="259.3198">getTime():LocalDate</text><!--MD5=[a775cceae4ed3a92162873f1c0840158]
class org.salespoint.useraccount.UserAccount--><rect fill="#FEFECE" filter="url(#f13jdttpnc6olu)" height="48" id="org.salespoint.useraccount.UserAccount" style="stroke: #A80036; stroke-width: 1.5;" width="112" x="1408" y="354"/><ellipse cx="1423" cy="370" fill="#ADD1B2" rx="11" ry="11" style="stroke: #A80036; stroke-width: 1.0;"/><path d="M1425.9688,375.6406 Q1425.3906,375.9375 1424.75,376.0859 Q1424.1094,376.2344 1423.4063,376.2344 Q1420.9063,376.2344 1419.5859,374.5859 Q1418.2656,372.9375 1418.2656,369.8125 Q1418.2656,366.6875 1419.5859,365.0313 Q1420.9063,363.375 1423.4063,363.375 Q1424.1094,363.375 1424.7578,363.5313 Q1425.4063,363.6875 1425.9688,363.9844 L1425.9688,366.7031 Q1425.3438,366.125 1424.75,365.8516 Q1424.1563,365.5781 1423.5313,365.5781 Q1422.1875,365.5781 1421.5,366.6484 Q1420.8125,367.7188 1420.8125,369.8125 Q1420.8125,371.9063 1421.5,372.9766 Q1422.1875,374.0469 1423.5313,374.0469 Q1424.1563,374.0469 1424.75,373.7734 Q1425.3438,373.5 1425.9688,372.9219 L1425.9688,375.6406 Z "/><text fill="#000000" font-family="sans-serif" font-size="12" lengthAdjust="spacingAndGlyphs" textLength="80" x="1437" y="374.1543">UserAccount</text><line style="stroke: #A80036; stroke-width: 1.5;" x1="1409" x2="1519" y1="386" y2="386"/><line style="stroke: #A80036; stroke-width: 1.5;" x1="1409" x2="1519" y1="394" y2="394"/><!--MD5=[3a03d1760b746f5b09d3a97ff697e8cb]
class MemberManagement.MemberRepository--><rect fill="#FEFECE" filter="url(#f13jdttpnc6olu)" height="48" id="MemberManagement.MemberRepository" style="stroke: #A80036; stroke-width: 1.5;" width="148" x="39" y="354"/><ellipse cx="54" cy="370" fill="#ADD1B2" rx="11" ry="11" style="stroke: #A80036; stroke-width: 1.0;"/><path d="M56.9688,375.6406 Q56.3906,375.9375 55.75,376.0859 Q55.1094,376.2344 54.4063,376.2344 Q51.9063,376.2344 50.5859,374.5859 Q49.2656,372.9375 49.2656,369.8125 Q49.2656,366.6875 50.5859,365.0313 Q51.9063,363.375 54.4063,363.375 Q55.1094,363.375 55.7578,363.5313 Q56.4063,363.6875 56.9688,363.9844 L56.9688,366.7031 Q56.3438,366.125 55.75,365.8516 Q55.1563,365.5781 54.5313,365.5781 Q53.1875,365.5781 52.5,366.6484 Q51.8125,367.7188 51.8125,369.8125 Q51.8125,371.9063 52.5,372.9766 Q53.1875,374.0469 54.5313,374.0469 Q55.1563,374.0469 55.75,373.7734 Q56.3438,373.5 56.9688,372.9219 L56.9688,375.6406 Z "/><text fill="#000000" font-family="sans-serif" font-size="12" lengthAdjust="spacingAndGlyphs" textLength="116" x="68" y="374.1543">MemberRepository</text><line style="stroke: #A80036; stroke-width: 1.5;" x1="40" x2="186" y1="386" y2="386"/><line style="stroke: #A80036; stroke-width: 1.5;" x1="40" x2="186" y1="394" y2="394"/><!--MD5=[5ee45ea70c1018e6ca337d069ec5a493]
class org.salespoint.OrderManager--><rect fill="#FEFECE" filter="url(#f13jdttpnc6olu)" height="48" id="org.salespoint.OrderManager" style="stroke: #A80036; stroke-width: 1.5;" width="122" x="1649" y="354"/><ellipse cx="1664" cy="370" fill="#ADD1B2" rx="11" ry="11" style="stroke: #A80036; stroke-width: 1.0;"/><path d="M1666.9688,375.6406 Q1666.3906,375.9375 1665.75,376.0859 Q1665.1094,376.2344 1664.4063,376.2344 Q1661.9063,376.2344 1660.5859,374.5859 Q1659.2656,372.9375 1659.2656,369.8125 Q1659.2656,366.6875 1660.5859,365.0313 Q1661.9063,363.375 1664.4063,363.375 Q1665.1094,363.375 1665.7578,363.5313 Q1666.4063,363.6875 1666.9688,363.9844 L1666.9688,366.7031 Q1666.3438,366.125 1665.75,365.8516 Q1665.1563,365.5781 1664.5313,365.5781 Q1663.1875,365.5781 1662.5,366.6484 Q1661.8125,367.7188 1661.8125,369.8125 Q1661.8125,371.9063 1662.5,372.9766 Q1663.1875,374.0469 1664.5313,374.0469 Q1665.1563,374.0469 1665.75,373.7734 Q1666.3438,373.5 1666.9688,372.9219 L1666.9688,375.6406 Z "/><text fill="#000000" font-family="sans-serif" font-size="12" lengthAdjust="spacingAndGlyphs" textLength="90" x="1678" y="374.1543">OrderManager</text><line style="stroke: #A80036; stroke-width: 1.5;" x1="1650" x2="1770" y1="386" y2="386"/><line style="stroke: #A80036; stroke-width: 1.5;" x1="1650" x2="1770" y1="394" y2="394"/><!--MD5=[2dce24b44a790fd9aa1dee3c6eda0a13]
class java.time.LocalDate--><rect fill="#FEFECE" filter="url(#f13jdttpnc6olu)" height="48" id="java.time.LocalDate" style="stroke: #A80036; stroke-width: 1.5;" width="94" x="323" y="43"/><ellipse cx="338" cy="59" fill="#ADD1B2" rx="11" ry="11" style="stroke: #A80036; stroke-width: 1.0;"/><path d="M340.9688,64.6406 Q340.3906,64.9375 339.75,65.0859 Q339.1094,65.2344 338.4063,65.2344 Q335.9063,65.2344 334.5859,63.5859 Q333.2656,61.9375 333.2656,58.8125 Q333.2656,55.6875 334.5859,54.0313 Q335.9063,52.375 338.4063,52.375 Q339.1094,52.375 339.7578,52.5313 Q340.4063,52.6875 340.9688,52.9844 L340.9688,55.7031 Q340.3438,55.125 339.75,54.8516 Q339.1563,54.5781 338.5313,54.5781 Q337.1875,54.5781 336.5,55.6484 Q335.8125,56.7188 335.8125,58.8125 Q335.8125,60.9063 336.5,61.9766 Q337.1875,63.0469 338.5313,63.0469 Q339.1563,63.0469 339.75,62.7734 Q340.3438,62.5 340.9688,61.9219 L340.9688,64.6406 Z "/><text fill="#000000" font-family="sans-serif" font-size="12" lengthAdjust="spacingAndGlyphs" textLength="62" x="352" y="63.1543">LocalDate</text><line style="stroke: #A80036; stroke-width: 1.5;" x1="324" x2="416" y1="75" y2="75"/><line style="stroke: #A80036; stroke-width: 1.5;" x1="324" x2="416" y1="83" y2="83"/><!--MD5=[79c4226b6b240efcc635a2f55da1c692]
reverse link AdminManagement.User to org.salespoint.useraccount.UserAccount--><path d="M1307.819,277.5392 C1338.7857,292.2623 1371.1713,309.105 1400,327 C1412.6746,334.8676 1425.7186,344.8609 1436.6969,353.9127 " fill="none" id="AdminManagement.User&lt;-org.salespoint.useraccount.UserAccount" style="stroke: #A80036; stroke-width: 1.0;"/><polygon fill="#FFFFFF" points="1296.0305,272.0025,1299.7609,278.1738,1306.8922,277.1039,1303.1618,270.9327,1296.0305,272.0025" style="stroke: #A80036; stroke-width: 1.0;"/><rect fill="none" height="6" style="stroke: #C82930; stroke-width: 1.0;" width="6" x="1385" y="308.0664"/><text fill="#000000" font-family="sans-serif" font-size="13" lengthAdjust="spacingAndGlyphs" textLength="80" x="1395" y="315.0669">userAccount</text><!--MD5=[360f72f30be7a8607393d11751974a28]
reverse link AdminManagement.StatisticController to AdminManagement.StatisticManagement--><path d="M688.8714,275.0673 C631.473,332.9489 540.2618,424.928 486.8562,478.7831 " fill="none" id="AdminManagement.StatisticController&lt;-AdminManagement.StatisticManagement" style="stroke: #A80036; stroke-width: 1.0;"/><polygon fill="#FFFFFF" points="698.1308,265.73,691.0657,267.1738,689.6811,274.2507,696.7462,272.8069,698.1308,265.73" style="stroke: #A80036; stroke-width: 1.0;"/><rect fill="none" height="6" style="stroke: #C82930; stroke-width: 1.0;" width="6" x="639" y="375.5664"/><text fill="#000000" font-family="sans-serif" font-size="13" lengthAdjust="spacingAndGlyphs" textLength="135" x="649" y="382.5669">statisticManagement</text><text fill="#000000" font-family="sans-serif" font-size="13" lengthAdjust="spacingAndGlyphs" textLength="8" x="484.8061" y="468.0624">1</text><!--MD5=[afc71152957ebf28b5ffc877850707cb]
reverse link AdminManagement.EarningsForm to AdminManagement.StatisticManagement--><path d="M302.724,270.1419 C334.9582,327.607 388.6769,423.3734 419.7581,478.7831 " fill="none" id="AdminManagement.EarningsForm&lt;-AdminManagement.StatisticManagement" style="stroke: #A80036; stroke-width: 1.0; stroke-dasharray: 7.0,7.0;"/><polygon fill="#A80036" points="300.2492,265.73,301.1636,275.5363,302.6953,270.0908,308.1408,271.6225,300.2492,265.73" style="stroke: #A80036; stroke-width: 1.0;"/><!--MD5=[c517d65c30c9e0c7dd774aecc0c34401]
reverse link AdminManagement.AttendanceForm to AdminManagement.StatisticManagement--><path d="M444,270.8347 C444,328.374 444,423.5955 444,478.7831 " fill="none" id="AdminManagement.AttendanceForm&lt;-AdminManagement.StatisticManagement" style="stroke: #A80036; stroke-width: 1.0; stroke-dasharray: 7.0,7.0;"/><polygon fill="#A80036" points="444,265.73,440,274.73,444,270.73,448,274.73,444,265.73" style="stroke: #A80036; stroke-width: 1.0;"/><!--MD5=[1a159af98105a1ca561e687d780e6213]
reverse link MemberManagement.MemberRepository to AdminManagement.StatisticManagement--><path d="M173.2602,404.2159 C221.1152,425.035 289.0326,454.5822 344.8695,478.8738 " fill="none" id="MemberManagement.MemberRepository&lt;-AdminManagement.StatisticManagement" style="stroke: #A80036; stroke-width: 1.0; stroke-dasharray: 7.0,7.0;"/><polygon fill="#A80036" points="168.402,402.1024,175.0591,409.3607,172.9869,404.0971,178.2506,402.0249,168.402,402.1024" style="stroke: #A80036; stroke-width: 1.0;"/><text fill="#000000" font-family="sans-serif" font-size="13" lengthAdjust="spacingAndGlyphs" textLength="39" x="269" y="445.0669">«use»</text><!--MD5=[20a4a59f6c18d07147c33886dd76a74e]
reverse link org.salespoint.OrderManager to AdminManagement.StatisticManagement--><path d="M1658.7569,404.0607 C1652.873,406.3602 1646.876,408.4131 1641,410 C1462.8602,458.1089 959.7881,493.1901 665.6062,510.2899 " fill="none" id="org.salespoint.OrderManager&lt;-AdminManagement.StatisticManagement" style="stroke: #A80036; stroke-width: 1.0; stroke-dasharray: 7.0,7.0;"/><polygon fill="#A80036" points="1663.6676,402.0758,1653.8245,401.74,1659.032,403.9495,1656.8225,409.157,1663.6676,402.0758" style="stroke: #A80036; stroke-width: 1.0;"/><text fill="#000000" font-family="sans-serif" font-size="13" lengthAdjust="spacingAndGlyphs" textLength="39" x="1522" y="445.0669">«use»</text><!--MD5=[3800414b1c5f7b92862ac03c2fe7ac9e]
reverse link java.time.LocalDate to AdminManagement.EarningsForm--><path d="M352.5637,95.8442 C338.4025,119.2703 318.2132,152.6686 302.1218,179.2879 " fill="none" id="java.time.LocalDate&lt;-AdminManagement.EarningsForm" style="stroke: #A80036; stroke-width: 1.0; stroke-dasharray: 7.0,7.0;"/><polygon fill="#A80036" points="355.3125,91.2969,347.2334,96.9296,352.7258,95.5758,354.0796,101.0683,355.3125,91.2969" style="stroke: #A80036; stroke-width: 1.0;"/><text fill="#000000" font-family="sans-serif" font-size="13" lengthAdjust="spacingAndGlyphs" textLength="39" x="337" y="134.0669">«use»</text><!--MD5=[af094492d08a1ee16dda6e577bd545d8]
reverse link java.time.LocalDate to AdminManagement.AttendanceForm--><path d="M383.7265,95.8442 C394.8746,119.2703 410.7683,152.6686 423.436,179.2879 " fill="none" id="java.time.LocalDate&lt;-AdminManagement.AttendanceForm" style="stroke: #A80036; stroke-width: 1.0; stroke-dasharray: 7.0,7.0;"/><polygon fill="#A80036" points="381.5625,91.2969,381.818,101.1424,383.7111,95.8117,389.0418,97.7047,381.5625,91.2969" style="stroke: #A80036; stroke-width: 1.0;"/><text fill="#000000" font-family="sans-serif" font-size="13" lengthAdjust="spacingAndGlyphs" textLength="39" x="403" y="134.0669">«use»</text><!--MD5=[0707fa1cd4e2d32087107e2d7bcfad0e]
@startuml
namespace AdminManagement {

     User o- - org.salespoint.useraccount.UserAccount : - userAccount
     class User {
        - userID: Long
        - fistName: String
        - lastName: String

        + User(userAccount: UserAccount, fistName: String, lastName: String)
     }
     
     StatisticController o- - "1" StatisticManagement: "- statisticManagement"
     class StatisticController {
        + StatisticController(statisticsManagement: StatisticManagement)
        + earnings(form: EarningsForm, model: Model):String
        + Attendance (form: AttendanceForm, model: Model):String
     }
     
     
     EarningsForm <.. StatisticManagement
     AttendanceForm <.. StatisticManagement
     MemberManagement.MemberRepository <.. StatisticManagement: <<use>>
     org.salespoint.OrderManager <.. StatisticManagement: <<use>>
     class StatisticManagement {
        + StaffManagement (members: MemberRepository, orders: OrderManager)
        + getEarnings():EarningsForm
        + getAttendance(): AttendanceForm
     }
     
     java.time.LocalDate <.. EarningsForm: <<use>>
     interface EarningsForm{
        getAmount():int
        getEarnings():double
        getTime():LocalDate
     }
     
     java.time.LocalDate <.. AttendanceForm: <<use>>
     interface AttendanceForm{
        getAmount():int
        getTotalTime():double
        getTime():LocalDate
     }

}
@enduml

PlantUML version 1.2019.11(Sun Sep 22 10:02:15 UTC 2019)
(GPL source distribution)
Java Runtime: OpenJDK Runtime Environment
JVM: OpenJDK 64-Bit Server VM
Java Version: 1.8.0_222-heroku-b10
Operating System: Linux
Default Encoding: UTF-8
Language: en
Country: US
--></g></svg>