<?xml version="1.0" encoding="UTF-8" standalone="no"?><svg xmlns="http://www.w3.org/2000/svg" xmlns:xlink="http://www.w3.org/1999/xlink" contentScriptType="application/ecmascript" contentStyleType="text/css" height="377px" preserveAspectRatio="none" style="width:993px;height:377px;" version="1.1" viewBox="0 0 993 377" width="993px" zoomAndPan="magnify"><defs><filter height="300%" id="f1w1iq284gx1o6" width="300%" x="-1" y="-1"><feGaussianBlur result="blurOut" stdDeviation="2.0"/><feColorMatrix in="blurOut" result="blurOut2" type="matrix" values="0 0 0 0 0 0 0 0 0 0 0 0 0 0 0 0 0 0 .4 0"/><feOffset dx="4.0" dy="4.0" in="blurOut2" result="blurOut3"/><feBlend in="SourceGraphic" in2="blurOut3" mode="normal"/></filter></defs><g><!--MD5=[3f3ae92c4528f2c210b4fb635b667fbf]
cluster org.springframework--><polygon fill="#FFFFFF" filter="url(#f1w1iq284gx1o6)" points="14,16,188,16,195,38.2969,704,38.2969,704,99,14,99,14,16" style="stroke: #000000; stroke-width: 1.5;"/><line style="stroke: #000000; stroke-width: 1.5;" x1="14" x2="195" y1="38.2969" y2="38.2969"/><text fill="#000000" font-family="sans-serif" font-size="14" font-weight="bold" lengthAdjust="spacingAndGlyphs" textLength="168" x="18" y="30.9951">org.springframework</text><!--MD5=[26b6f0a05492e01b2defc2485e10a4a5]
cluster org.salespoint--><polygon fill="#FFFFFF" filter="url(#f1w1iq284gx1o6)" points="723,16,842,16,849,38.2969,971,38.2969,971,99,723,99,723,16" style="stroke: #000000; stroke-width: 1.5;"/><line style="stroke: #000000; stroke-width: 1.5;" x1="723" x2="849" y1="38.2969" y2="38.2969"/><text fill="#000000" font-family="sans-serif" font-size="14" font-weight="bold" lengthAdjust="spacingAndGlyphs" textLength="113" x="727" y="30.9951">org.salespoint</text><!--MD5=[42f23fa2034c7bae490ab749f2a9af0d]
class org.springframework.SpringApplication--><rect fill="#FEFECE" filter="url(#f1w1iq284gx1o6)" height="48" id="org.springframework.SpringApplication" style="stroke: #A80036; stroke-width: 1.5;" width="141" x="22.5" y="43"/><ellipse cx="37.5" cy="59" fill="#ADD1B2" rx="11" ry="11" style="stroke: #A80036; stroke-width: 1.0;"/><path d="M40.4688,64.6406 Q39.8906,64.9375 39.25,65.0859 Q38.6094,65.2344 37.9063,65.2344 Q35.4063,65.2344 34.0859,63.5859 Q32.7656,61.9375 32.7656,58.8125 Q32.7656,55.6875 34.0859,54.0313 Q35.4063,52.375 37.9063,52.375 Q38.6094,52.375 39.2578,52.5313 Q39.9063,52.6875 40.4688,52.9844 L40.4688,55.7031 Q39.8438,55.125 39.25,54.8516 Q38.6563,54.5781 38.0313,54.5781 Q36.6875,54.5781 36,55.6484 Q35.3125,56.7188 35.3125,58.8125 Q35.3125,60.9063 36,61.9766 Q36.6875,63.0469 38.0313,63.0469 Q38.6563,63.0469 39.25,62.7734 Q39.8438,62.5 40.4688,61.9219 L40.4688,64.6406 Z "/><text fill="#000000" font-family="sans-serif" font-size="12" lengthAdjust="spacingAndGlyphs" textLength="109" x="51.5" y="63.1543">SpringApplication</text><line style="stroke: #A80036; stroke-width: 1.5;" x1="23.5" x2="162.5" y1="75" y2="75"/><line style="stroke: #A80036; stroke-width: 1.5;" x1="23.5" x2="162.5" y1="83" y2="83"/><!--MD5=[0a4fa4958fc74ba62135b0456812f4b2]
class org.springframework.WebMvcConfigurer--><rect fill="#FEFECE" filter="url(#f1w1iq284gx1o6)" height="48" id="org.springframework.WebMvcConfigurer" style="stroke: #A80036; stroke-width: 1.5;" width="147" x="198.5" y="43"/><ellipse cx="213.5" cy="59" fill="#ADD1B2" rx="11" ry="11" style="stroke: #A80036; stroke-width: 1.0;"/><path d="M216.4688,64.6406 Q215.8906,64.9375 215.25,65.0859 Q214.6094,65.2344 213.9063,65.2344 Q211.4063,65.2344 210.0859,63.5859 Q208.7656,61.9375 208.7656,58.8125 Q208.7656,55.6875 210.0859,54.0313 Q211.4063,52.375 213.9063,52.375 Q214.6094,52.375 215.2578,52.5313 Q215.9063,52.6875 216.4688,52.9844 L216.4688,55.7031 Q215.8438,55.125 215.25,54.8516 Q214.6563,54.5781 214.0313,54.5781 Q212.6875,54.5781 212,55.6484 Q211.3125,56.7188 211.3125,58.8125 Q211.3125,60.9063 212,61.9766 Q212.6875,63.0469 214.0313,63.0469 Q214.6563,63.0469 215.25,62.7734 Q215.8438,62.5 216.4688,61.9219 L216.4688,64.6406 Z "/><text fill="#000000" font-family="sans-serif" font-size="12" lengthAdjust="spacingAndGlyphs" textLength="115" x="227.5" y="63.1543">WebMvcConfigurer</text><line style="stroke: #A80036; stroke-width: 1.5;" x1="199.5" x2="344.5" y1="75" y2="75"/><line style="stroke: #A80036; stroke-width: 1.5;" x1="199.5" x2="344.5" y1="83" y2="83"/><!--MD5=[c6fefcbb71c5a34395005384b3c8988d]
class org.springframework.ViewControllerRegistry--><rect fill="#FEFECE" filter="url(#f1w1iq284gx1o6)" height="48" id="org.springframework.ViewControllerRegistry" style="stroke: #A80036; stroke-width: 1.5;" width="171" x="380.5" y="43"/><ellipse cx="395.5" cy="59" fill="#ADD1B2" rx="11" ry="11" style="stroke: #A80036; stroke-width: 1.0;"/><path d="M398.4688,64.6406 Q397.8906,64.9375 397.25,65.0859 Q396.6094,65.2344 395.9063,65.2344 Q393.4063,65.2344 392.0859,63.5859 Q390.7656,61.9375 390.7656,58.8125 Q390.7656,55.6875 392.0859,54.0313 Q393.4063,52.375 395.9063,52.375 Q396.6094,52.375 397.2578,52.5313 Q397.9063,52.6875 398.4688,52.9844 L398.4688,55.7031 Q397.8438,55.125 397.25,54.8516 Q396.6563,54.5781 396.0313,54.5781 Q394.6875,54.5781 394,55.6484 Q393.3125,56.7188 393.3125,58.8125 Q393.3125,60.9063 394,61.9766 Q394.6875,63.0469 396.0313,63.0469 Q396.6563,63.0469 397.25,62.7734 Q397.8438,62.5 398.4688,61.9219 L398.4688,64.6406 Z "/><text fill="#000000" font-family="sans-serif" font-size="12" lengthAdjust="spacingAndGlyphs" textLength="139" x="409.5" y="63.1543">ViewControllerRegistry</text><line style="stroke: #A80036; stroke-width: 1.5;" x1="381.5" x2="550.5" y1="75" y2="75"/><line style="stroke: #A80036; stroke-width: 1.5;" x1="381.5" x2="550.5" y1="83" y2="83"/><!--MD5=[605bdc73d000c72b2f78b4e79129c5df]
class org.springframework.HttpSecurity--><rect fill="#FEFECE" filter="url(#f1w1iq284gx1o6)" height="48" id="org.springframework.HttpSecurity" style="stroke: #A80036; stroke-width: 1.5;" width="109" x="586.5" y="43"/><ellipse cx="601.5" cy="59" fill="#ADD1B2" rx="11" ry="11" style="stroke: #A80036; stroke-width: 1.0;"/><path d="M604.4688,64.6406 Q603.8906,64.9375 603.25,65.0859 Q602.6094,65.2344 601.9063,65.2344 Q599.4063,65.2344 598.0859,63.5859 Q596.7656,61.9375 596.7656,58.8125 Q596.7656,55.6875 598.0859,54.0313 Q599.4063,52.375 601.9063,52.375 Q602.6094,52.375 603.2578,52.5313 Q603.9063,52.6875 604.4688,52.9844 L604.4688,55.7031 Q603.8438,55.125 603.25,54.8516 Q602.6563,54.5781 602.0313,54.5781 Q600.6875,54.5781 600,55.6484 Q599.3125,56.7188 599.3125,58.8125 Q599.3125,60.9063 600,61.9766 Q600.6875,63.0469 602.0313,63.0469 Q602.6563,63.0469 603.25,62.7734 Q603.8438,62.5 604.4688,61.9219 L604.4688,64.6406 Z "/><text fill="#000000" font-family="sans-serif" font-size="12" lengthAdjust="spacingAndGlyphs" textLength="77" x="615.5" y="63.1543">HttpSecurity</text><line style="stroke: #A80036; stroke-width: 1.5;" x1="587.5" x2="694.5" y1="75" y2="75"/><line style="stroke: #A80036; stroke-width: 1.5;" x1="587.5" x2="694.5" y1="83" y2="83"/><!--MD5=[90900aaa3a43e911b3b433f3b1a36c23]
class org.salespoint.SalespointSecurityConfiguration--><rect fill="#FEFECE" filter="url(#f1w1iq284gx1o6)" height="48" id="org.salespoint.SalespointSecurityConfiguration" style="stroke: #A80036; stroke-width: 1.5;" width="232" x="731" y="43"/><ellipse cx="746" cy="59" fill="#ADD1B2" rx="11" ry="11" style="stroke: #A80036; stroke-width: 1.0;"/><path d="M748.9688,64.6406 Q748.3906,64.9375 747.75,65.0859 Q747.1094,65.2344 746.4063,65.2344 Q743.9063,65.2344 742.5859,63.5859 Q741.2656,61.9375 741.2656,58.8125 Q741.2656,55.6875 742.5859,54.0313 Q743.9063,52.375 746.4063,52.375 Q747.1094,52.375 747.7578,52.5313 Q748.4063,52.6875 748.9688,52.9844 L748.9688,55.7031 Q748.3438,55.125 747.75,54.8516 Q747.1563,54.5781 746.5313,54.5781 Q745.1875,54.5781 744.5,55.6484 Q743.8125,56.7188 743.8125,58.8125 Q743.8125,60.9063 744.5,61.9766 Q745.1875,63.0469 746.5313,63.0469 Q747.1563,63.0469 747.75,62.7734 Q748.3438,62.5 748.9688,61.9219 L748.9688,64.6406 Z "/><text fill="#000000" font-family="sans-serif" font-size="12" lengthAdjust="spacingAndGlyphs" textLength="200" x="760" y="63.1543">SalespointSecurityConfiguration</text><line style="stroke: #A80036; stroke-width: 1.5;" x1="732" x2="962" y1="75" y2="75"/><line style="stroke: #A80036; stroke-width: 1.5;" x1="732" x2="962" y1="83" y2="83"/><!--MD5=[209db23a7e3cf8b34b7357aea12a28e9]
class GymWebConfiguration--><rect fill="#FEFECE" filter="url(#f1w1iq284gx1o6)" height="60.8047" id="GymWebConfiguration" style="stroke: #A80036; stroke-width: 1.5;" width="336" x="169" y="168"/><ellipse cx="264.25" cy="184" fill="#ADD1B2" rx="11" ry="11" style="stroke: #A80036; stroke-width: 1.0;"/><path d="M267.2188,189.6406 Q266.6406,189.9375 266,190.0859 Q265.3594,190.2344 264.6563,190.2344 Q262.1563,190.2344 260.8359,188.5859 Q259.5156,186.9375 259.5156,183.8125 Q259.5156,180.6875 260.8359,179.0313 Q262.1563,177.375 264.6563,177.375 Q265.3594,177.375 266.0078,177.5313 Q266.6563,177.6875 267.2188,177.9844 L267.2188,180.7031 Q266.5938,180.125 266,179.8516 Q265.4063,179.5781 264.7813,179.5781 Q263.4375,179.5781 262.75,180.6484 Q262.0625,181.7188 262.0625,183.8125 Q262.0625,185.9063 262.75,186.9766 Q263.4375,188.0469 264.7813,188.0469 Q265.4063,188.0469 266,187.7734 Q266.5938,187.5 267.2188,186.9219 L267.2188,189.6406 Z "/><text fill="#000000" font-family="sans-serif" font-size="12" lengthAdjust="spacingAndGlyphs" textLength="137" x="284.75" y="188.1543">GymWebConfiguration</text><line style="stroke: #A80036; stroke-width: 1.5;" x1="170" x2="504" y1="200" y2="200"/><line style="stroke: #A80036; stroke-width: 1.5;" x1="170" x2="504" y1="208" y2="208"/><ellipse cx="180" cy="219" fill="#84BE84" rx="3" ry="3" style="stroke: #038048; stroke-width: 1.0;"/><text fill="#000000" font-family="sans-serif" font-size="11" lengthAdjust="spacingAndGlyphs" textLength="310" x="189" y="222.2104">addViewControllers(view: ViewControllerRegistry): void</text><!--MD5=[0b4e4b4980470ea387cc45de9bd14b5b]
class Application--><rect fill="#FEFECE" filter="url(#f1w1iq284gx1o6)" height="60.8047" id="Application" style="stroke: #A80036; stroke-width: 1.5;" width="138" x="268" y="306"/><ellipse cx="299.65" cy="322" fill="#ADD1B2" rx="11" ry="11" style="stroke: #A80036; stroke-width: 1.0;"/><path d="M302.6188,327.6406 Q302.0406,327.9375 301.4,328.0859 Q300.7594,328.2344 300.0563,328.2344 Q297.5563,328.2344 296.2359,326.5859 Q294.9156,324.9375 294.9156,321.8125 Q294.9156,318.6875 296.2359,317.0313 Q297.5563,315.375 300.0563,315.375 Q300.7594,315.375 301.4078,315.5313 Q302.0563,315.6875 302.6188,315.9844 L302.6188,318.7031 Q301.9938,318.125 301.4,317.8516 Q300.8063,317.5781 300.1813,317.5781 Q298.8375,317.5781 298.15,318.6484 Q297.4625,319.7188 297.4625,321.8125 Q297.4625,323.9063 298.15,324.9766 Q298.8375,326.0469 300.1813,326.0469 Q300.8063,326.0469 301.4,325.7734 Q301.9938,325.5 302.6188,324.9219 L302.6188,327.6406 Z "/><text fill="#000000" font-family="sans-serif" font-size="12" lengthAdjust="spacingAndGlyphs" textLength="69" x="317.35" y="326.1543">Application</text><line style="stroke: #A80036; stroke-width: 1.5;" x1="269" x2="405" y1="338" y2="338"/><line style="stroke: #A80036; stroke-width: 1.5;" x1="269" x2="405" y1="346" y2="346"/><ellipse cx="279" cy="357" fill="#84BE84" rx="3" ry="3" style="stroke: #038048; stroke-width: 1.0;"/><text fill="#000000" font-family="sans-serif" font-size="11" lengthAdjust="spacingAndGlyphs" text-decoration="underline" textLength="112" x="288" y="360.2104">main(args: String[])</text><!--MD5=[2865445d298368c1eaf7a6f2b7619a44]
class WebSecurityConfiguration--><rect fill="#FEFECE" filter="url(#f1w1iq284gx1o6)" height="60.8047" id="WebSecurityConfiguration" style="stroke: #A80036; stroke-width: 1.5;" width="217" x="540.5" y="168"/><ellipse cx="566.3" cy="184" fill="#ADD1B2" rx="11" ry="11" style="stroke: #A80036; stroke-width: 1.0;"/><path d="M569.2688,189.6406 Q568.6906,189.9375 568.05,190.0859 Q567.4094,190.2344 566.7063,190.2344 Q564.2063,190.2344 562.8859,188.5859 Q561.5656,186.9375 561.5656,183.8125 Q561.5656,180.6875 562.8859,179.0313 Q564.2063,177.375 566.7063,177.375 Q567.4094,177.375 568.0578,177.5313 Q568.7063,177.6875 569.2688,177.9844 L569.2688,180.7031 Q568.6438,180.125 568.05,179.8516 Q567.4563,179.5781 566.8313,179.5781 Q565.4875,179.5781 564.8,180.6484 Q564.1125,181.7188 564.1125,183.8125 Q564.1125,185.9063 564.8,186.9766 Q565.4875,188.0469 566.8313,188.0469 Q567.4563,188.0469 568.05,187.7734 Q568.6438,187.5 569.2688,186.9219 L569.2688,189.6406 Z "/><text fill="#000000" font-family="sans-serif" font-size="12" lengthAdjust="spacingAndGlyphs" textLength="161" x="582.7" y="188.1543">WebSecurityConfiguration</text><line style="stroke: #A80036; stroke-width: 1.5;" x1="541.5" x2="756.5" y1="200" y2="200"/><line style="stroke: #A80036; stroke-width: 1.5;" x1="541.5" x2="756.5" y1="208" y2="208"/><ellipse cx="551.5" cy="219" fill="#84BE84" rx="3" ry="3" style="stroke: #038048; stroke-width: 1.0;"/><text fill="#000000" font-family="sans-serif" font-size="11" lengthAdjust="spacingAndGlyphs" textLength="191" x="560.5" y="222.2104">configure(http: HttpSecurity): void</text><!--MD5=[c94d42eff213fe832f59cb9add16bd0e]
reverse link GymWebConfiguration to Application--><path d="M337,234.3481 C337,256.5687 337,284.8064 337,305.9589 " fill="none" id="GymWebConfiguration&lt;-Application" style="stroke: #A80036; stroke-width: 1.0; stroke-dasharray: 7.0,7.0;"/><polygon fill="#A80036" points="337,229.1267,333,238.1267,337,234.1267,341,238.1267,337,229.1267" style="stroke: #A80036; stroke-width: 1.0;"/><text fill="#000000" font-family="sans-serif" font-size="13" lengthAdjust="spacingAndGlyphs" textLength="39" x="338" y="272.0669">«use»</text><!--MD5=[27d9e585834ec94f00379cfbfdc4762d]
reverse link WebSecurityConfiguration to Application--><path d="M575.1657,231.1575 C523.9475,253.8117 456.1931,283.78 406.0494,305.9589 " fill="none" id="WebSecurityConfiguration&lt;-Application" style="stroke: #A80036; stroke-width: 1.0; stroke-dasharray: 7.0,7.0;"/><polygon fill="#A80036" points="579.7571,229.1267,569.9083,229.1092,575.1844,231.1493,573.1443,236.4254,579.7571,229.1267" style="stroke: #A80036; stroke-width: 1.0;"/><text fill="#000000" font-family="sans-serif" font-size="13" lengthAdjust="spacingAndGlyphs" textLength="39" x="512" y="272.0669">«use»</text><!--MD5=[d0b1642a5f6274c8bef21f6c6dfbc52d]
reverse link org.springframework.SpringApplication to Application--><path d="M88.292,96.214 C84.3176,131.1401 83.0762,189.7809 111,229 C147.7295,280.5866 215.8926,308.2784 267.791,322.5623 " fill="none" id="org.springframework.SpringApplication&lt;-Application" style="stroke: #A80036; stroke-width: 1.0; stroke-dasharray: 7.0,7.0;"/><polygon fill="#A80036" points="88.8951,91.2382,83.8411,99.6914,88.2934,96.2019,91.783,100.6542,88.8951,91.2382" style="stroke: #A80036; stroke-width: 1.0;"/><text fill="#000000" font-family="sans-serif" font-size="13" lengthAdjust="spacingAndGlyphs" textLength="39" x="112" y="203.0669">«use»</text><!--MD5=[81ced6acb67baf95cd2e7ddd0ebebfcb]
reverse link org.springframework.WebMvcConfigurer to GymWebConfiguration--><path d="M286.2348,95.7981 C296.7265,117.0237 310.979,145.8574 321.7116,167.5704 " fill="none" id="org.springframework.WebMvcConfigurer&lt;-GymWebConfiguration" style="stroke: #A80036; stroke-width: 1.0; stroke-dasharray: 7.0,7.0;"/><polygon fill="#A80036" points="283.922,91.1191,284.3241,100.9597,286.1375,95.6014,291.4958,97.4149,283.922,91.1191" style="stroke: #A80036; stroke-width: 1.0;"/><text fill="#000000" font-family="sans-serif" font-size="13" lengthAdjust="spacingAndGlyphs" textLength="39" x="308" y="134.0669">«use»</text><!--MD5=[c381f25abce8cf8ef75957882a740a56]
reverse link org.springframework.ViewControllerRegistry to GymWebConfiguration--><path d="M438.7929,94.7344 C417.8801,116.0525 388.9997,145.4925 367.3416,167.5704 " fill="none" id="org.springframework.ViewControllerRegistry&lt;-GymWebConfiguration" style="stroke: #A80036; stroke-width: 1.0; stroke-dasharray: 7.0,7.0;"/><polygon fill="#A80036" points="442.3394,91.1191,433.1813,94.7425,438.8379,94.6883,438.8921,100.3449,442.3394,91.1191" style="stroke: #A80036; stroke-width: 1.0;"/><text fill="#000000" font-family="sans-serif" font-size="13" lengthAdjust="spacingAndGlyphs" textLength="39" x="410" y="134.0669">«use»</text><!--MD5=[43c3dabb24e7653b388892ad81870152]
reverse link org.springframework.HttpSecurity to WebSecurityConfiguration--><path d="M642.7846,96.3348 C644.0727,117.5078 645.8085,146.0399 647.1184,167.5704 " fill="none" id="org.springframework.HttpSecurity&lt;-WebSecurityConfiguration" style="stroke: #A80036; stroke-width: 1.0; stroke-dasharray: 7.0,7.0;"/><polygon fill="#A80036" points="642.4673,91.1191,639.0214,100.3455,642.771,96.1099,647.0066,99.8595,642.4673,91.1191" style="stroke: #A80036; stroke-width: 1.0;"/><text fill="#000000" font-family="sans-serif" font-size="13" lengthAdjust="spacingAndGlyphs" textLength="39" x="646" y="134.0669">«use»</text><!--MD5=[99cfcb6c7ddfaf41d4b5e613ae69b997]
reverse link org.salespoint.SalespointSecurityConfiguration to WebSecurityConfiguration--><path d="M806.4133,93.9553 C774.1123,115.4077 728.8959,145.4378 695.2074,167.8117 " fill="none" id="org.salespoint.SalespointSecurityConfiguration&lt;-WebSecurityConfiguration" style="stroke: #A80036; stroke-width: 1.0;"/><polygon fill="#A80036" points="810.6837,91.1191,800.9736,92.7663,806.5186,93.8853,805.3996,99.4304,810.6837,91.1191" style="stroke: #A80036; stroke-width: 1.0;"/><!--MD5=[9078f7987c1d27528961b1102f270706]
@startuml
GymWebConfiguration <.. Application: <<use>>
    WebSecurityConfiguration <..Application: <<use>>
    org.springframework.SpringApplication <.. Application: <<use>>
    class Application {
      + {static} main(args: String[])
    }

    org.springframework.WebMvcConfigurer <.. GymWebConfiguration: <<use>>
    org.springframework.ViewControllerRegistry <.. GymWebConfiguration: <<use>>
    class GymWebConfiguration {
        + addViewControllers(view: ViewControllerRegistry): void
    }

    org.springframework.HttpSecurity <.. WebSecurityConfiguration: <<use>>
    org.salespoint.SalespointSecurityConfiguration <- - WebSecurityConfiguration
    class WebSecurityConfiguration {
        + configure(http: HttpSecurity): void
    }
@enduml

PlantUML version 1.2019.11(Sun Sep 22 10:02:15 UTC 2019)
(GPL source distribution)
Java Runtime: OpenJDK Runtime Environment
JVM: OpenJDK 64-Bit Server VM
Java Version: 1.8.0_222-heroku-b10
Operating System: Linux
Default Encoding: UTF-8
Language: en
Country: US
--></g></svg>