<?xml version="1.0" encoding="UTF-8" standalone="no"?>
<svg xmlns="http://www.w3.org/2000/svg" xmlns:xlink="http://www.w3.org/1999/xlink" contentScriptType="application/ecmascript" contentStyleType="text/css" height="1014px" preserveAspectRatio="none" style="width:1602px;height:1014px;" version="1.1" viewBox="0 0 1602 1014" width="1602px" zoomAndPan="magnify"><defs><filter height="300%" id="f1mxvwn78px4oo" width="300%" x="-1" y="-1"><feGaussianBlur result="blurOut" stdDeviation="2.0"/><feColorMatrix in="blurOut" result="blurOut2" type="matrix" values="0 0 0 0 0 0 0 0 0 0 0 0 0 0 0 0 0 0 .4 0"/><feOffset dx="4.0" dy="4.0" in="blurOut2" result="blurOut3"/><feBlend in="SourceGraphic" in2="blurOut3" mode="normal"/></filter></defs><g><!--MD5=[f84377fb3a23cdbfc36e2d1114bdceff]
cluster statistics--><polygon fill="#FFFFFF" filter="url(#f1mxvwn78px4oo)" points="22,24,99,24,106,46.2969,1257,46.2969,1257,854,22,854,22,24" style="stroke: #000000; stroke-width: 1.5;"/><line style="stroke: #000000; stroke-width: 1.5;" x1="22" x2="106" y1="46.2969" y2="46.2969"/><text fill="#000000" font-family="sans-serif" font-size="14" font-weight="bold" lengthAdjust="spacingAndGlyphs" textLength="71" x="26" y="38.9951">statistics</text><!--MD5=[26b6f0a05492e01b2defc2485e10a4a5]
cluster org.salespoint--><polygon fill="#FFFFFF" filter="url(#f1mxvwn78px4oo)" points="1281,37,1400,37,1407,59.2969,1435,59.2969,1435,136,1281,136,1281,37" style="stroke: #000000; stroke-width: 1.5;"/><line style="stroke: #000000; stroke-width: 1.5;" x1="1281" x2="1407" y1="59.2969" y2="59.2969"/><text fill="#000000" font-family="sans-serif" font-size="14" font-weight="bold" lengthAdjust="spacingAndGlyphs" textLength="113" x="1285" y="51.9951">org.salespoint</text><!--MD5=[33bc894a5efa2d147589402b88218fdd]
cluster invoice--><polygon fill="#FFFFFF" filter="url(#f1mxvwn78px4oo)" points="1390,264.5,1452,264.5,1459,286.7969,1580,286.7969,1580,363.5,1390,363.5,1390,264.5" style="stroke: #000000; stroke-width: 1.5;"/><line style="stroke: #000000; stroke-width: 1.5;" x1="1390" x2="1459" y1="286.7969" y2="286.7969"/><text fill="#000000" font-family="sans-serif" font-size="14" font-weight="bold" lengthAdjust="spacingAndGlyphs" textLength="56" x="1394" y="279.4951">invoice</text><!--MD5=[b63e7e062936c5e8c2d63b2e2f887b61]
cluster staff--><polygon fill="#FFFFFF" filter="url(#f1mxvwn78px4oo)" points="1281,500,1323,500,1330,522.2969,1457,522.2969,1457,599,1281,599,1281,500" style="stroke: #000000; stroke-width: 1.5;"/><line style="stroke: #000000; stroke-width: 1.5;" x1="1281" x2="1330" y1="522.2969" y2="522.2969"/><text fill="#000000" font-family="sans-serif" font-size="14" font-weight="bold" lengthAdjust="spacingAndGlyphs" textLength="36" x="1285" y="514.9951">staff</text><!--MD5=[5ede147e9e122c363c3337daa7824069]
cluster java.time--><polygon fill="#FFFFFF" filter="url(#f1mxvwn78px4oo)" points="180,903,256,903,263,925.2969,306,925.2969,306,1002,180,1002,180,903" style="stroke: #000000; stroke-width: 1.5;"/><line style="stroke: #000000; stroke-width: 1.5;" x1="180" x2="263" y1="925.2969" y2="925.2969"/><text fill="#000000" font-family="sans-serif" font-size="14" font-weight="bold" lengthAdjust="spacingAndGlyphs" textLength="70" x="184" y="917.9951">java.time</text><!--MD5=[90e8cf6781d77771aca7b60e8b1d748a]
class statistics.StatisticController--><rect fill="#FEFECE" filter="url(#f1mxvwn78px4oo)" height="73.6094" id="statistics.StatisticController" style="stroke: #A80036; stroke-width: 1.5;" width="388" x="754" y="59"/><ellipse cx="887.75" cy="75" fill="#ADD1B2" rx="11" ry="11" style="stroke: #A80036; stroke-width: 1.0;"/><path d="M890.0938,70.6719 L890.2656,70.75 C890.4844,70.4375 890.6875,70.3438 890.9844,70.3438 C891.2813,70.3438 891.5625,70.4844 891.7188,70.75 C891.8125,70.9063 891.8281,71.0313 891.8281,71.4688 L891.8281,72.8906 C891.8281,73.3125 891.7969,73.5 891.6875,73.6563 C891.5156,73.875 891.25,74.0156 890.9844,74.0156 C890.7656,74.0156 890.5313,73.9063 890.3906,73.7656 C890.25,73.6406 890.2188,73.5156 890.1563,73.1094 C890.0625,72.7031 889.8906,72.4844 889.4063,72.2031 C888.9375,71.9531 888.3281,71.7969 887.75,71.7969 C886.0156,71.7969 884.7656,73.1094 884.7656,74.8906 L884.7656,75.9844 C884.7656,77.6875 886.0625,78.7813 888.1094,78.7813 C888.875,78.7813 889.5625,78.6563 889.9844,78.3906 C890.1719,78.2969 890.1719,78.2969 890.625,77.8125 C890.8125,77.625 891.0156,77.5469 891.2344,77.5469 C891.7031,77.5469 892.0938,77.9375 892.0938,78.3906 C892.0938,78.7813 891.7656,79.2344 891.1875,79.6406 C890.4375,80.1875 889.2813,80.4844 888.0625,80.4844 C885.1719,80.4844 883.0625,78.5938 883.0625,76.0156 L883.0625,74.8906 C883.0625,72.1719 885.0625,70.0938 887.6875,70.0938 C888.5625,70.0938 889.1563,70.2344 890.0938,70.6719 Z "/><text fill="#000000" font-family="sans-serif" font-size="12" lengthAdjust="spacingAndGlyphs" textLength="112" x="908.25" y="79.1543">StatisticController</text><line style="stroke: #A80036; stroke-width: 1.5;" x1="755" x2="1141" y1="91" y2="91"/><line style="stroke: #A80036; stroke-width: 1.5;" x1="755" x2="1141" y1="99" y2="99"/><ellipse cx="765" cy="110" fill="#84BE84" rx="3" ry="3" style="stroke: #038048; stroke-width: 1.0;"/><text fill="#000000" font-family="sans-serif" font-size="11" lengthAdjust="spacingAndGlyphs" textLength="362" x="774" y="113.2104">StatisticController(statisticsManagement: StatisticManagement)</text><ellipse cx="765" cy="122.8047" fill="#84BE84" rx="3" ry="3" style="stroke: #038048; stroke-width: 1.0;"/><text fill="#000000" font-family="sans-serif" font-size="11" lengthAdjust="spacingAndGlyphs" textLength="205" x="774" y="126.0151">showStatistics(Model model): String</text><!--MD5=[5bbc588fa2b6ffde0983c98af47e0336]
class statistics.StatisticManagement--><rect fill="#FEFECE" filter="url(#f1mxvwn78px4oo)" height="227.2656" id="statistics.StatisticManagement" style="stroke: #A80036; stroke-width: 1.5;" width="586" x="655" y="210"/><ellipse cx="877.25" cy="226" fill="#ADD1B2" rx="11" ry="11" style="stroke: #A80036; stroke-width: 1.0;"/><path d="M879.5938,221.6719 L879.7656,221.75 C879.9844,221.4375 880.1875,221.3438 880.4844,221.3438 C880.7813,221.3438 881.0625,221.4844 881.2188,221.75 C881.3125,221.9063 881.3281,222.0313 881.3281,222.4688 L881.3281,223.8906 C881.3281,224.3125 881.2969,224.5 881.1875,224.6563 C881.0156,224.875 880.75,225.0156 880.4844,225.0156 C880.2656,225.0156 880.0313,224.9063 879.8906,224.7656 C879.75,224.6406 879.7188,224.5156 879.6563,224.1094 C879.5625,223.7031 879.3906,223.4844 878.9063,223.2031 C878.4375,222.9531 877.8281,222.7969 877.25,222.7969 C875.5156,222.7969 874.2656,224.1094 874.2656,225.8906 L874.2656,226.9844 C874.2656,228.6875 875.5625,229.7813 877.6094,229.7813 C878.375,229.7813 879.0625,229.6563 879.4844,229.3906 C879.6719,229.2969 879.6719,229.2969 880.125,228.8125 C880.3125,228.625 880.5156,228.5469 880.7344,228.5469 C881.2031,228.5469 881.5938,228.9375 881.5938,229.3906 C881.5938,229.7813 881.2656,230.2344 880.6875,230.6406 C879.9375,231.1875 878.7813,231.4844 877.5625,231.4844 C874.6719,231.4844 872.5625,229.5938 872.5625,227.0156 L872.5625,225.8906 C872.5625,223.1719 874.5625,221.0938 877.1875,221.0938 C878.0625,221.0938 878.6563,221.2344 879.5938,221.6719 Z "/><text fill="#000000" font-family="sans-serif" font-size="12" lengthAdjust="spacingAndGlyphs" textLength="133" x="897.75" y="230.1543">StatisticManagement</text><line style="stroke: #A80036; stroke-width: 1.5;" x1="656" x2="1240" y1="242" y2="242"/><line style="stroke: #A80036; stroke-width: 1.5;" x1="656" x2="1240" y1="250" y2="250"/><ellipse cx="666" cy="261" fill="#84BE84" rx="3" ry="3" style="stroke: #038048; stroke-width: 1.0;"/><text fill="#000000" font-family="sans-serif" font-size="11" lengthAdjust="spacingAndGlyphs" textLength="560" x="675" y="264.2104">StatisticManagement(AttendanceRepository attendances, InvoiceManagement invoiceManagement,</text><text fill="#000000" font-family="sans-serif" font-size="11" lengthAdjust="spacingAndGlyphs" textLength="207" x="675" y="277.0151">StaffManagement staffManagement)</text><ellipse cx="666" cy="286.6094" fill="#84BE84" rx="3" ry="3" style="stroke: #038048; stroke-width: 1.0;"/><text fill="#000000" font-family="sans-serif" font-size="11" lengthAdjust="spacingAndGlyphs" textLength="179" x="675" y="289.8198">getAverageTimeOfToday(): long</text><ellipse cx="666" cy="299.4141" fill="#84BE84" rx="3" ry="3" style="stroke: #038048; stroke-width: 1.0;"/><text fill="#000000" font-family="sans-serif" font-size="11" lengthAdjust="spacingAndGlyphs" textLength="213" x="675" y="302.6245">getAverageTimesOfThisWeek(): long[]</text><ellipse cx="666" cy="312.2188" fill="#84BE84" rx="3" ry="3" style="stroke: #038048; stroke-width: 1.0;"/><text fill="#000000" font-family="sans-serif" font-size="11" lengthAdjust="spacingAndGlyphs" textLength="194" x="675" y="315.4292">getMemberAmountOfToday(): long</text><ellipse cx="666" cy="325.0234" fill="#84BE84" rx="3" ry="3" style="stroke: #038048; stroke-width: 1.0;"/><text fill="#000000" font-family="sans-serif" font-size="11" lengthAdjust="spacingAndGlyphs" textLength="228" x="675" y="328.2339">getMemberAmountsOfThisWeek(): long[]</text><ellipse cx="666" cy="337.8281" fill="#84BE84" rx="3" ry="3" style="stroke: #038048; stroke-width: 1.0;"/><text fill="#000000" font-family="sans-serif" font-size="11" lengthAdjust="spacingAndGlyphs" textLength="321" x="675" y="341.0386">getSellingEarningsOfDate(LocalDate date): NumberValue</text><ellipse cx="666" cy="350.6328" fill="#84BE84" rx="3" ry="3" style="stroke: #038048; stroke-width: 1.0;"/><text fill="#000000" font-family="sans-serif" font-size="11" lengthAdjust="spacingAndGlyphs" textLength="272" x="675" y="353.8433">getSellingEarningsOfThisWeek(): NumberValue[]</text><ellipse cx="666" cy="363.4375" fill="#84BE84" rx="3" ry="3" style="stroke: #038048; stroke-width: 1.0;"/><text fill="#000000" font-family="sans-serif" font-size="11" lengthAdjust="spacingAndGlyphs" textLength="219" x="675" y="366.6479">getStaffExpenditurePerMonth(): double</text><ellipse cx="666" cy="376.2422" fill="#84BE84" rx="3" ry="3" style="stroke: #038048; stroke-width: 1.0;"/><text fill="#000000" font-family="sans-serif" font-size="11" lengthAdjust="spacingAndGlyphs" textLength="219" x="675" y="379.4526">getMemberRevenuePerMonth(): double</text><ellipse cx="666" cy="389.0469" fill="#84BE84" rx="3" ry="3" style="stroke: #038048; stroke-width: 1.0;"/><text fill="#000000" font-family="sans-serif" font-size="11" lengthAdjust="spacingAndGlyphs" textLength="203" x="675" y="392.2573">getPercentageExpenditure(): double</text><ellipse cx="666" cy="401.8516" fill="#84BE84" rx="3" ry="3" style="stroke: #038048; stroke-width: 1.0;"/><text fill="#000000" font-family="sans-serif" font-size="11" lengthAdjust="spacingAndGlyphs" textLength="184" x="675" y="405.062">getPercentageRevenue(): double</text><rect fill="#F24D5C" height="6" style="stroke: #C82930; stroke-width: 1.0;" width="6" x="663" y="411.6563"/><text fill="#000000" font-family="sans-serif" font-size="11" lengthAdjust="spacingAndGlyphs" textLength="240" x="675" y="417.8667">getLastMonday(LocalDate date): LocalDate</text><ellipse cx="666" cy="427.4609" fill="#84BE84" rx="3" ry="3" style="stroke: #038048; stroke-width: 1.0;"/><text fill="#000000" font-family="sans-serif" font-size="11" lengthAdjust="spacingAndGlyphs" textLength="146" x="675" y="430.6714">getDaysOfWeek(): String[]</text><!--MD5=[d93c106588e94fd0f14bbe5d857c9401]
class statistics.AttendanceManagement--><rect fill="#FEFECE" filter="url(#f1mxvwn78px4oo)" height="112.0234" id="statistics.AttendanceManagement" style="stroke: #A80036; stroke-width: 1.5;" width="410" x="38" y="267.5"/><ellipse cx="161.25" cy="283.5" fill="#ADD1B2" rx="11" ry="11" style="stroke: #A80036; stroke-width: 1.0;"/><path d="M163.5938,279.1719 L163.7656,279.25 C163.9844,278.9375 164.1875,278.8438 164.4844,278.8438 C164.7813,278.8438 165.0625,278.9844 165.2188,279.25 C165.3125,279.4063 165.3281,279.5313 165.3281,279.9688 L165.3281,281.3906 C165.3281,281.8125 165.2969,282 165.1875,282.1563 C165.0156,282.375 164.75,282.5156 164.4844,282.5156 C164.2656,282.5156 164.0313,282.4063 163.8906,282.2656 C163.75,282.1406 163.7188,282.0156 163.6563,281.6094 C163.5625,281.2031 163.3906,280.9844 162.9063,280.7031 C162.4375,280.4531 161.8281,280.2969 161.25,280.2969 C159.5156,280.2969 158.2656,281.6094 158.2656,283.3906 L158.2656,284.4844 C158.2656,286.1875 159.5625,287.2813 161.6094,287.2813 C162.375,287.2813 163.0625,287.1563 163.4844,286.8906 C163.6719,286.7969 163.6719,286.7969 164.125,286.3125 C164.3125,286.125 164.5156,286.0469 164.7344,286.0469 C165.2031,286.0469 165.5938,286.4375 165.5938,286.8906 C165.5938,287.2813 165.2656,287.7344 164.6875,288.1406 C163.9375,288.6875 162.7813,288.9844 161.5625,288.9844 C158.6719,288.9844 156.5625,287.0938 156.5625,284.5156 L156.5625,283.3906 C156.5625,280.6719 158.5625,278.5938 161.1875,278.5938 C162.0625,278.5938 162.6563,278.7344 163.5938,279.1719 Z "/><text fill="#000000" font-family="sans-serif" font-size="12" lengthAdjust="spacingAndGlyphs" textLength="155" x="181.75" y="287.6543">AttendanceManagement</text><line style="stroke: #A80036; stroke-width: 1.5;" x1="39" x2="447" y1="299.5" y2="299.5"/><line style="stroke: #A80036; stroke-width: 1.5;" x1="39" x2="447" y1="307.5" y2="307.5"/><ellipse cx="49" cy="318.5" fill="#84BE84" rx="3" ry="3" style="stroke: #038048; stroke-width: 1.0;"/><text fill="#000000" font-family="sans-serif" font-size="11" lengthAdjust="spacingAndGlyphs" textLength="341" x="58" y="321.7104">AttendanceManagement(AttendanceRepository attendances)</text><ellipse cx="49" cy="331.3047" fill="#84BE84" rx="3" ry="3" style="stroke: #038048; stroke-width: 1.0;"/><text fill="#000000" font-family="sans-serif" font-size="11" lengthAdjust="spacingAndGlyphs" textLength="384" x="58" y="334.5151">addAttendance(LocalDate date, long memberId, long duration): void</text><ellipse cx="49" cy="344.1094" fill="#84BE84" rx="3" ry="3" style="stroke: #038048; stroke-width: 1.0;"/><text fill="#000000" font-family="sans-serif" font-size="11" lengthAdjust="spacingAndGlyphs" textLength="292" x="58" y="347.3198">addAttendance(long memberId, long duration): void</text><ellipse cx="49" cy="356.9141" fill="#84BE84" rx="3" ry="3" style="stroke: #038048; stroke-width: 1.0;"/><text fill="#000000" font-family="sans-serif" font-size="11" lengthAdjust="spacingAndGlyphs" textLength="197" x="58" y="360.1245">findAll(): Streamable&lt;Attendance&gt;</text><ellipse cx="49" cy="369.7188" fill="#84BE84" rx="3" ry="3" style="stroke: #038048; stroke-width: 1.0;"/><text fill="#000000" font-family="sans-serif" font-size="11" lengthAdjust="spacingAndGlyphs" textLength="273" x="58" y="372.9292">findById(LocalDate date): Optional&lt;Attendance&gt;</text><!--MD5=[29347168cea1e62f6688f17fcd66d971]
class statistics.StatisticDataInitializer--><rect fill="#FEFECE" filter="url(#f1mxvwn78px4oo)" height="73.6094" id="statistics.StatisticDataInitializer" style="stroke: #A80036; stroke-width: 1.5;" width="432" x="38" y="59"/><ellipse cx="182.25" cy="75" fill="#ADD1B2" rx="11" ry="11" style="stroke: #A80036; stroke-width: 1.0;"/><path d="M184.5938,70.6719 L184.7656,70.75 C184.9844,70.4375 185.1875,70.3438 185.4844,70.3438 C185.7813,70.3438 186.0625,70.4844 186.2188,70.75 C186.3125,70.9063 186.3281,71.0313 186.3281,71.4688 L186.3281,72.8906 C186.3281,73.3125 186.2969,73.5 186.1875,73.6563 C186.0156,73.875 185.75,74.0156 185.4844,74.0156 C185.2656,74.0156 185.0313,73.9063 184.8906,73.7656 C184.75,73.6406 184.7188,73.5156 184.6563,73.1094 C184.5625,72.7031 184.3906,72.4844 183.9063,72.2031 C183.4375,71.9531 182.8281,71.7969 182.25,71.7969 C180.5156,71.7969 179.2656,73.1094 179.2656,74.8906 L179.2656,75.9844 C179.2656,77.6875 180.5625,78.7813 182.6094,78.7813 C183.375,78.7813 184.0625,78.6563 184.4844,78.3906 C184.6719,78.2969 184.6719,78.2969 185.125,77.8125 C185.3125,77.625 185.5156,77.5469 185.7344,77.5469 C186.2031,77.5469 186.5938,77.9375 186.5938,78.3906 C186.5938,78.7813 186.2656,79.2344 185.6875,79.6406 C184.9375,80.1875 183.7813,80.4844 182.5625,80.4844 C179.6719,80.4844 177.5625,78.5938 177.5625,76.0156 L177.5625,74.8906 C177.5625,72.1719 179.5625,70.0938 182.1875,70.0938 C183.0625,70.0938 183.6563,70.2344 184.5938,70.6719 Z "/><text fill="#000000" font-family="sans-serif" font-size="12" lengthAdjust="spacingAndGlyphs" textLength="135" x="202.75" y="79.1543">StatisticDataInitializer</text><line style="stroke: #A80036; stroke-width: 1.5;" x1="39" x2="469" y1="91" y2="91"/><line style="stroke: #A80036; stroke-width: 1.5;" x1="39" x2="469" y1="99" y2="99"/><ellipse cx="49" cy="110" fill="#84BE84" rx="3" ry="3" style="stroke: #038048; stroke-width: 1.0;"/><text fill="#000000" font-family="sans-serif" font-size="11" lengthAdjust="spacingAndGlyphs" textLength="406" x="58" y="113.2104">StatisticDataInitializer(AttendanceManagement attendanceManagement)</text><ellipse cx="49" cy="122.8047" fill="#84BE84" rx="3" ry="3" style="stroke: #038048; stroke-width: 1.0;"/><text fill="#000000" font-family="sans-serif" font-size="11" lengthAdjust="spacingAndGlyphs" textLength="84" x="58" y="126.0151">initialize(): void</text><!--MD5=[000fe92fd71425fb5a67f196a699e088]
class statistics.AttendanceRepository--><rect fill="#FEFECE" filter="url(#f1mxvwn78px4oo)" height="48" id="statistics.AttendanceRepository" style="stroke: #A80036; stroke-width: 1.5;" width="171" x="157.5" y="535"/><ellipse cx="172.5" cy="551" fill="#ADD1B2" rx="11" ry="11" style="stroke: #A80036; stroke-width: 1.0;"/><path d="M174.8438,546.6719 L175.0156,546.75 C175.2344,546.4375 175.4375,546.3438 175.7344,546.3438 C176.0313,546.3438 176.3125,546.4844 176.4688,546.75 C176.5625,546.9063 176.5781,547.0313 176.5781,547.4688 L176.5781,548.8906 C176.5781,549.3125 176.5469,549.5 176.4375,549.6563 C176.2656,549.875 176,550.0156 175.7344,550.0156 C175.5156,550.0156 175.2813,549.9063 175.1406,549.7656 C175,549.6406 174.9688,549.5156 174.9063,549.1094 C174.8125,548.7031 174.6406,548.4844 174.1563,548.2031 C173.6875,547.9531 173.0781,547.7969 172.5,547.7969 C170.7656,547.7969 169.5156,549.1094 169.5156,550.8906 L169.5156,551.9844 C169.5156,553.6875 170.8125,554.7813 172.8594,554.7813 C173.625,554.7813 174.3125,554.6563 174.7344,554.3906 C174.9219,554.2969 174.9219,554.2969 175.375,553.8125 C175.5625,553.625 175.7656,553.5469 175.9844,553.5469 C176.4531,553.5469 176.8438,553.9375 176.8438,554.3906 C176.8438,554.7813 176.5156,555.2344 175.9375,555.6406 C175.1875,556.1875 174.0313,556.4844 172.8125,556.4844 C169.9219,556.4844 167.8125,554.5938 167.8125,552.0156 L167.8125,550.8906 C167.8125,548.1719 169.8125,546.0938 172.4375,546.0938 C173.3125,546.0938 173.9063,546.2344 174.8438,546.6719 Z "/><text fill="#000000" font-family="sans-serif" font-size="12" lengthAdjust="spacingAndGlyphs" textLength="139" x="186.5" y="555.1543">AttendanceRepository</text><line style="stroke: #A80036; stroke-width: 1.5;" x1="158.5" x2="327.5" y1="567" y2="567"/><line style="stroke: #A80036; stroke-width: 1.5;" x1="158.5" x2="327.5" y1="575" y2="575"/><!--MD5=[4b038d43bba85ea09f79d7c35dd64d59]
class statistics.Attendance--><rect fill="#FEFECE" filter="url(#f1mxvwn78px4oo)" height="176.0469" id="statistics.Attendance" style="stroke: #A80036; stroke-width: 1.5;" width="243" x="121.5" y="662"/><ellipse cx="202.25" cy="678" fill="#ADD1B2" rx="11" ry="11" style="stroke: #A80036; stroke-width: 1.0;"/><path d="M204.5938,673.6719 L204.7656,673.75 C204.9844,673.4375 205.1875,673.3438 205.4844,673.3438 C205.7813,673.3438 206.0625,673.4844 206.2188,673.75 C206.3125,673.9063 206.3281,674.0313 206.3281,674.4688 L206.3281,675.8906 C206.3281,676.3125 206.2969,676.5 206.1875,676.6563 C206.0156,676.875 205.75,677.0156 205.4844,677.0156 C205.2656,677.0156 205.0313,676.9063 204.8906,676.7656 C204.75,676.6406 204.7188,676.5156 204.6563,676.1094 C204.5625,675.7031 204.3906,675.4844 203.9063,675.2031 C203.4375,674.9531 202.8281,674.7969 202.25,674.7969 C200.5156,674.7969 199.2656,676.1094 199.2656,677.8906 L199.2656,678.9844 C199.2656,680.6875 200.5625,681.7813 202.6094,681.7813 C203.375,681.7813 204.0625,681.6563 204.4844,681.3906 C204.6719,681.2969 204.6719,681.2969 205.125,680.8125 C205.3125,680.625 205.5156,680.5469 205.7344,680.5469 C206.2031,680.5469 206.5938,680.9375 206.5938,681.3906 C206.5938,681.7813 206.2656,682.2344 205.6875,682.6406 C204.9375,683.1875 203.7813,683.4844 202.5625,683.4844 C199.6719,683.4844 197.5625,681.5938 197.5625,679.0156 L197.5625,677.8906 C197.5625,675.1719 199.5625,673.0938 202.1875,673.0938 C203.0625,673.0938 203.6563,673.2344 204.5938,673.6719 Z "/><text fill="#000000" font-family="sans-serif" font-size="12" lengthAdjust="spacingAndGlyphs" textLength="73" x="222.75" y="682.1543">Attendance</text><line style="stroke: #A80036; stroke-width: 1.5;" x1="122.5" x2="363.5" y1="694" y2="694"/><rect fill="none" height="6" style="stroke: #C82930; stroke-width: 1.0;" width="6" x="129.5" y="702"/><text fill="#000000" font-family="sans-serif" font-size="11" lengthAdjust="spacingAndGlyphs" textLength="88" x="141.5" y="708.2104">date: LocalDate</text><rect fill="none" height="6" style="stroke: #C82930; stroke-width: 1.0;" width="6" x="129.5" y="714.8047"/><text fill="#000000" font-family="sans-serif" font-size="11" lengthAdjust="spacingAndGlyphs" textLength="133" x="141.5" y="721.0151">memberIds:Set&lt;Long&gt;</text><rect fill="none" height="6" style="stroke: #C82930; stroke-width: 1.0;" width="6" x="129.5" y="727.6094"/><text fill="#000000" font-family="sans-serif" font-size="11" lengthAdjust="spacingAndGlyphs" textLength="171" x="141.5" y="733.8198">attendanceTimes: List&lt;Long&gt;</text><line style="stroke: #A80036; stroke-width: 1.5;" x1="122.5" x2="363.5" y1="740.4141" y2="740.4141"/><ellipse cx="132.5" cy="751.4141" fill="#84BE84" rx="3" ry="3" style="stroke: #038048; stroke-width: 1.0;"/><text fill="#000000" font-family="sans-serif" font-size="11" lengthAdjust="spacingAndGlyphs" textLength="71" x="141.5" y="754.6245">Attendance()</text><ellipse cx="132.5" cy="764.2188" fill="#84BE84" rx="3" ry="3" style="stroke: #038048; stroke-width: 1.0;"/><text fill="#000000" font-family="sans-serif" font-size="11" lengthAdjust="spacingAndGlyphs" textLength="155" x="141.5" y="767.4292">Attendance(LocalDate date)</text><ellipse cx="132.5" cy="777.0234" fill="#84BE84" rx="3" ry="3" style="stroke: #038048; stroke-width: 1.0;"/><text fill="#000000" font-family="sans-serif" font-size="11" lengthAdjust="spacingAndGlyphs" textLength="137" x="141.5" y="780.2339">getMemberAmount(): int</text><ellipse cx="132.5" cy="789.8281" fill="#84BE84" rx="3" ry="3" style="stroke: #038048; stroke-width: 1.0;"/><text fill="#000000" font-family="sans-serif" font-size="11" lengthAdjust="spacingAndGlyphs" textLength="132" x="141.5" y="793.0386">getAverageTime(): long</text><ellipse cx="132.5" cy="802.6328" fill="#84BE84" rx="3" ry="3" style="stroke: #038048; stroke-width: 1.0;"/><text fill="#000000" font-family="sans-serif" font-size="11" lengthAdjust="spacingAndGlyphs" textLength="115" x="141.5" y="805.8433">getDate(): LocalDate</text><ellipse cx="132.5" cy="815.4375" fill="#84BE84" rx="3" ry="3" style="stroke: #038048; stroke-width: 1.0;"/><text fill="#000000" font-family="sans-serif" font-size="11" lengthAdjust="spacingAndGlyphs" textLength="217" x="141.5" y="818.6479">addMember(Long memberId): boolean</text><ellipse cx="132.5" cy="828.2422" fill="#84BE84" rx="3" ry="3" style="stroke: #038048; stroke-width: 1.0;"/><text fill="#000000" font-family="sans-serif" font-size="11" lengthAdjust="spacingAndGlyphs" textLength="141" x="141.5" y="831.4526">addTime(long time): void</text><!--MD5=[5ee45ea70c1018e6ca337d069ec5a493]
class org.salespoint.OrderManager--><rect fill="#FEFECE" filter="url(#f1mxvwn78px4oo)" height="48" id="org.salespoint.OrderManager" style="stroke: #A80036; stroke-width: 1.5;" width="122" x="1297" y="72"/><ellipse cx="1312" cy="88" fill="#ADD1B2" rx="11" ry="11" style="stroke: #A80036; stroke-width: 1.0;"/><path d="M1314.3438,83.6719 L1314.5156,83.75 C1314.7344,83.4375 1314.9375,83.3438 1315.2344,83.3438 C1315.5313,83.3438 1315.8125,83.4844 1315.9688,83.75 C1316.0625,83.9063 1316.0781,84.0313 1316.0781,84.4688 L1316.0781,85.8906 C1316.0781,86.3125 1316.0469,86.5 1315.9375,86.6563 C1315.7656,86.875 1315.5,87.0156 1315.2344,87.0156 C1315.0156,87.0156 1314.7813,86.9063 1314.6406,86.7656 C1314.5,86.6406 1314.4688,86.5156 1314.4063,86.1094 C1314.3125,85.7031 1314.1406,85.4844 1313.6563,85.2031 C1313.1875,84.9531 1312.5781,84.7969 1312,84.7969 C1310.2656,84.7969 1309.0156,86.1094 1309.0156,87.8906 L1309.0156,88.9844 C1309.0156,90.6875 1310.3125,91.7813 1312.3594,91.7813 C1313.125,91.7813 1313.8125,91.6563 1314.2344,91.3906 C1314.4219,91.2969 1314.4219,91.2969 1314.875,90.8125 C1315.0625,90.625 1315.2656,90.5469 1315.4844,90.5469 C1315.9531,90.5469 1316.3438,90.9375 1316.3438,91.3906 C1316.3438,91.7813 1316.0156,92.2344 1315.4375,92.6406 C1314.6875,93.1875 1313.5313,93.4844 1312.3125,93.4844 C1309.4219,93.4844 1307.3125,91.5938 1307.3125,89.0156 L1307.3125,87.8906 C1307.3125,85.1719 1309.3125,83.0938 1311.9375,83.0938 C1312.8125,83.0938 1313.4063,83.2344 1314.3438,83.6719 Z "/><text fill="#000000" font-family="sans-serif" font-size="12" lengthAdjust="spacingAndGlyphs" textLength="90" x="1326" y="92.1543">OrderManager</text><line style="stroke: #A80036; stroke-width: 1.5;" x1="1298" x2="1418" y1="104" y2="104"/><line style="stroke: #A80036; stroke-width: 1.5;" x1="1298" x2="1418" y1="112" y2="112"/><!--MD5=[c5aca61be89a454735b864065697d45c]
class invoice.InvoiceManagement--><rect fill="#FEFECE" filter="url(#f1mxvwn78px4oo)" height="48" id="invoice.InvoiceManagement" style="stroke: #A80036; stroke-width: 1.5;" width="157" x="1406.5" y="299.5"/><ellipse cx="1421.5" cy="315.5" fill="#ADD1B2" rx="11" ry="11" style="stroke: #A80036; stroke-width: 1.0;"/><path d="M1423.8438,311.1719 L1424.0156,311.25 C1424.2344,310.9375 1424.4375,310.8438 1424.7344,310.8438 C1425.0313,310.8438 1425.3125,310.9844 1425.4688,311.25 C1425.5625,311.4063 1425.5781,311.5313 1425.5781,311.9688 L1425.5781,313.3906 C1425.5781,313.8125 1425.5469,314 1425.4375,314.1563 C1425.2656,314.375 1425,314.5156 1424.7344,314.5156 C1424.5156,314.5156 1424.2813,314.4063 1424.1406,314.2656 C1424,314.1406 1423.9688,314.0156 1423.9063,313.6094 C1423.8125,313.2031 1423.6406,312.9844 1423.1563,312.7031 C1422.6875,312.4531 1422.0781,312.2969 1421.5,312.2969 C1419.7656,312.2969 1418.5156,313.6094 1418.5156,315.3906 L1418.5156,316.4844 C1418.5156,318.1875 1419.8125,319.2813 1421.8594,319.2813 C1422.625,319.2813 1423.3125,319.1563 1423.7344,318.8906 C1423.9219,318.7969 1423.9219,318.7969 1424.375,318.3125 C1424.5625,318.125 1424.7656,318.0469 1424.9844,318.0469 C1425.4531,318.0469 1425.8438,318.4375 1425.8438,318.8906 C1425.8438,319.2813 1425.5156,319.7344 1424.9375,320.1406 C1424.1875,320.6875 1423.0313,320.9844 1421.8125,320.9844 C1418.9219,320.9844 1416.8125,319.0938 1416.8125,316.5156 L1416.8125,315.3906 C1416.8125,312.6719 1418.8125,310.5938 1421.4375,310.5938 C1422.3125,310.5938 1422.9063,310.7344 1423.8438,311.1719 Z "/><text fill="#000000" font-family="sans-serif" font-size="12" lengthAdjust="spacingAndGlyphs" textLength="125" x="1435.5" y="319.6543">InvoiceManagement</text><line style="stroke: #A80036; stroke-width: 1.5;" x1="1407.5" x2="1562.5" y1="331.5" y2="331.5"/><line style="stroke: #A80036; stroke-width: 1.5;" x1="1407.5" x2="1562.5" y1="339.5" y2="339.5"/><!--MD5=[bf5a6da66721947259d77de14b2da36a]
class staff.StaffManagement--><rect fill="#FEFECE" filter="url(#f1mxvwn78px4oo)" height="48" id="staff.StaffManagement" style="stroke: #A80036; stroke-width: 1.5;" width="143" x="1297.5" y="535"/><ellipse cx="1312.5" cy="551" fill="#ADD1B2" rx="11" ry="11" style="stroke: #A80036; stroke-width: 1.0;"/><path d="M1314.8438,546.6719 L1315.0156,546.75 C1315.2344,546.4375 1315.4375,546.3438 1315.7344,546.3438 C1316.0313,546.3438 1316.3125,546.4844 1316.4688,546.75 C1316.5625,546.9063 1316.5781,547.0313 1316.5781,547.4688 L1316.5781,548.8906 C1316.5781,549.3125 1316.5469,549.5 1316.4375,549.6563 C1316.2656,549.875 1316,550.0156 1315.7344,550.0156 C1315.5156,550.0156 1315.2813,549.9063 1315.1406,549.7656 C1315,549.6406 1314.9688,549.5156 1314.9063,549.1094 C1314.8125,548.7031 1314.6406,548.4844 1314.1563,548.2031 C1313.6875,547.9531 1313.0781,547.7969 1312.5,547.7969 C1310.7656,547.7969 1309.5156,549.1094 1309.5156,550.8906 L1309.5156,551.9844 C1309.5156,553.6875 1310.8125,554.7813 1312.8594,554.7813 C1313.625,554.7813 1314.3125,554.6563 1314.7344,554.3906 C1314.9219,554.2969 1314.9219,554.2969 1315.375,553.8125 C1315.5625,553.625 1315.7656,553.5469 1315.9844,553.5469 C1316.4531,553.5469 1316.8438,553.9375 1316.8438,554.3906 C1316.8438,554.7813 1316.5156,555.2344 1315.9375,555.6406 C1315.1875,556.1875 1314.0313,556.4844 1312.8125,556.4844 C1309.9219,556.4844 1307.8125,554.5938 1307.8125,552.0156 L1307.8125,550.8906 C1307.8125,548.1719 1309.8125,546.0938 1312.4375,546.0938 C1313.3125,546.0938 1313.9063,546.2344 1314.8438,546.6719 Z "/><text fill="#000000" font-family="sans-serif" font-size="12" lengthAdjust="spacingAndGlyphs" textLength="111" x="1326.5" y="555.1543">StaffManagement</text><line style="stroke: #A80036; stroke-width: 1.5;" x1="1298.5" x2="1439.5" y1="567" y2="567"/><line style="stroke: #A80036; stroke-width: 1.5;" x1="1298.5" x2="1439.5" y1="575" y2="575"/><!--MD5=[2dce24b44a790fd9aa1dee3c6eda0a13]
class java.time.LocalDate--><rect fill="#FEFECE" filter="url(#f1mxvwn78px4oo)" height="48" id="java.time.LocalDate" style="stroke: #A80036; stroke-width: 1.5;" width="94" x="196" y="938"/><ellipse cx="211" cy="954" fill="#ADD1B2" rx="11" ry="11" style="stroke: #A80036; stroke-width: 1.0;"/><path d="M213.3438,949.6719 L213.5156,949.75 C213.7344,949.4375 213.9375,949.3438 214.2344,949.3438 C214.5313,949.3438 214.8125,949.4844 214.9688,949.75 C215.0625,949.9063 215.0781,950.0313 215.0781,950.4688 L215.0781,951.8906 C215.0781,952.3125 215.0469,952.5 214.9375,952.6563 C214.7656,952.875 214.5,953.0156 214.2344,953.0156 C214.0156,953.0156 213.7813,952.9063 213.6406,952.7656 C213.5,952.6406 213.4688,952.5156 213.4063,952.1094 C213.3125,951.7031 213.1406,951.4844 212.6563,951.2031 C212.1875,950.9531 211.5781,950.7969 211,950.7969 C209.2656,950.7969 208.0156,952.1094 208.0156,953.8906 L208.0156,954.9844 C208.0156,956.6875 209.3125,957.7813 211.3594,957.7813 C212.125,957.7813 212.8125,957.6563 213.2344,957.3906 C213.4219,957.2969 213.4219,957.2969 213.875,956.8125 C214.0625,956.625 214.2656,956.5469 214.4844,956.5469 C214.9531,956.5469 215.3438,956.9375 215.3438,957.3906 C215.3438,957.7813 215.0156,958.2344 214.4375,958.6406 C213.6875,959.1875 212.5313,959.4844 211.3125,959.4844 C208.4219,959.4844 206.3125,957.5938 206.3125,955.0156 L206.3125,953.8906 C206.3125,951.1719 208.3125,949.0938 210.9375,949.0938 C211.8125,949.0938 212.4063,949.2344 213.3438,949.6719 Z "/><text fill="#000000" font-family="sans-serif" font-size="12" lengthAdjust="spacingAndGlyphs" textLength="62" x="225" y="958.1543">LocalDate</text><line style="stroke: #A80036; stroke-width: 1.5;" x1="197" x2="289" y1="970" y2="970"/><line style="stroke: #A80036; stroke-width: 1.5;" x1="197" x2="289" y1="978" y2="978"/><!--MD5=[deb6f5f1c180e3f43203cf31880d6a28]
reverse link statistics.StatisticController to statistics.StatisticManagement--><path d="M948,146.279 C948,165.119 948,187.466 948,209.809 " fill="none" id="statistics.StatisticController&lt;-statistics.StatisticManagement" style="stroke: #A80036; stroke-width: 1.0;"/><polygon fill="#FFFFFF" points="948,133.23,944,139.23,948,145.23,952,139.23,948,133.23" style="stroke: #A80036; stroke-width: 1.0;"/><rect fill="none" height="6" style="stroke: #C82930; stroke-width: 1.0;" width="6" x="951" y="169.0664"/><text fill="#000000" font-family="sans-serif" font-size="13" lengthAdjust="spacingAndGlyphs" textLength="135" x="961" y="176.0669">statisticManagement</text><text fill="#000000" font-family="sans-serif" font-size="13" lengthAdjust="spacingAndGlyphs" textLength="8" x="939.7438" y="199.1078">1</text><!--MD5=[df885713a95536ee2dafad2fa04b14f2]
reverse link org.salespoint.OrderManager to statistics.StatisticManagement--><path d="M1311.33,122.668 C1271.82,144.401 1212.25,177.163 1152.71,209.908 " fill="none" id="org.salespoint.OrderManager&lt;-statistics.StatisticManagement" style="stroke: #A80036; stroke-width: 1.0; stroke-dasharray: 7.0,7.0;"/><polygon fill="#A80036" points="1316.05,120.073,1306.235,120.8886,1311.6648,122.4751,1310.0783,127.9049,1316.05,120.073" style="stroke: #A80036; stroke-width: 1.0;"/><text fill="#000000" font-family="sans-serif" font-size="13" lengthAdjust="spacingAndGlyphs" textLength="39" x="1237" y="176.0669">«use»</text><!--MD5=[5ea929156a881c5e7b789dcc12530e64]
reverse link statistics.StatisticManagement to statistics.AttendanceManagement--><path d="M641.763,323.5 C576.379,323.5 508.833,323.5 448.336,323.5 " fill="none" id="statistics.StatisticManagement&lt;-statistics.AttendanceManagement" style="stroke: #A80036; stroke-width: 1.0;"/><polygon fill="#FFFFFF" points="654.808,323.5,648.808,319.5,642.808,323.5,648.808,327.5,654.808,323.5" style="stroke: #A80036; stroke-width: 1.0;"/><rect fill="none" height="6" style="stroke: #C82930; stroke-width: 1.0;" width="6" x="468.5" y="309.5664"/><text fill="#000000" font-family="sans-serif" font-size="13" lengthAdjust="spacingAndGlyphs" textLength="158" x="478.5" y="316.5669">attendanceManagement</text><text fill="#000000" font-family="sans-serif" font-size="13" lengthAdjust="spacingAndGlyphs" textLength="8" x="455.859" y="320.2993">1</text><!--MD5=[b3dae01d97faa628e57f1ac8084143ad]
link invoice.InvoiceManagement to statistics.StatisticManagement--><path d="M1406.44,323.5 C1364.85,323.5 1310.79,323.5 1254.45,323.5 " fill="none" id="invoice.InvoiceManagement-&gt;statistics.StatisticManagement" style="stroke: #A80036; stroke-width: 1.0;"/><polygon fill="#FFFFFF" points="1241.25,323.5,1247.25,327.5,1253.25,323.5,1247.25,319.5,1241.25,323.5" style="stroke: #A80036; stroke-width: 1.0;"/><text fill="#000000" font-family="sans-serif" font-size="13" lengthAdjust="spacingAndGlyphs" textLength="129" x="1259.25" y="316.5669">invoiceManagement</text><text fill="#000000" font-family="sans-serif" font-size="13" lengthAdjust="spacingAndGlyphs" textLength="8" x="1390.571" y="319.8584">1</text><!--MD5=[ac667e132ed81459d43dac2f774247f9]
reverse link statistics.StatisticManagement to staff.StaffManagement--><path d="M1169.7,443.435 C1199.14,459.595 1228.86,476.091 1257,492 C1281.66,505.942 1309.05,522.076 1330.58,534.902 " fill="none" id="statistics.StatisticManagement&lt;-staff.StaffManagement" style="stroke: #A80036; stroke-width: 1.0;"/><polygon fill="#FFFFFF" points="1157.99,437.02,1161.3252,443.4135,1168.5096,442.7939,1165.1744,436.4004,1157.99,437.02" style="stroke: #A80036; stroke-width: 1.0;"/><rect fill="none" height="6" style="stroke: #C82930; stroke-width: 1.0;" width="6" x="1243" y="473.0664"/><text fill="#000000" font-family="sans-serif" font-size="13" lengthAdjust="spacingAndGlyphs" textLength="113" x="1253" y="480.0669">staffManagement</text><text fill="#000000" font-family="sans-serif" font-size="13" lengthAdjust="spacingAndGlyphs" textLength="8" x="1311.7099" y="523.8889">1</text><!--MD5=[31dce781912a81bc00fdd1385eaf0326]
reverse link statistics.StatisticDataInitializer to statistics.AttendanceManagement--><path d="M251.597,146.261 C249.853,182.004 247.494,230.377 245.688,267.402 " fill="none" id="statistics.StatisticDataInitializer&lt;-statistics.AttendanceManagement" style="stroke: #A80036; stroke-width: 1.0;"/><polygon fill="#FFFFFF" points="252.233,133.23,247.945,139.0277,251.6475,145.2157,255.9355,139.418,252.233,133.23" style="stroke: #A80036; stroke-width: 1.0;"/><rect fill="none" height="6" style="stroke: #C82930; stroke-width: 1.0;" width="6" x="254" y="169.0664"/><text fill="#000000" font-family="sans-serif" font-size="13" lengthAdjust="spacingAndGlyphs" textLength="158" x="264" y="176.0669">attendanceManagement</text><text fill="#000000" font-family="sans-serif" font-size="13" lengthAdjust="spacingAndGlyphs" textLength="8" x="237.5199" y="256.3274">1</text><!--MD5=[a450b2df4e9d2346dc991676fc8deb89]
reverse link statistics.AttendanceManagement to statistics.AttendanceRepository--><path d="M243,392.686 C243,440.666 243,501.963 243,534.78 " fill="none" id="statistics.AttendanceManagement&lt;-statistics.AttendanceRepository" style="stroke: #A80036; stroke-width: 1.0;"/><polygon fill="#FFFFFF" points="243,379.541,239,385.541,243,391.541,247,385.541,243,379.541" style="stroke: #A80036; stroke-width: 1.0;"/><rect fill="none" height="6" style="stroke: #C82930; stroke-width: 1.0;" width="6" x="246" y="473.0664"/><text fill="#000000" font-family="sans-serif" font-size="13" lengthAdjust="spacingAndGlyphs" textLength="80" x="256" y="480.0669">attendances</text><text fill="#000000" font-family="sans-serif" font-size="13" lengthAdjust="spacingAndGlyphs" textLength="8" x="234.025" y="524.1313">1</text><!--MD5=[34a4c8edaece93fb1b89ab958e0515c9]
link statistics.AttendanceRepository to statistics.Attendance--><path d="M243,583.175 C243,601.827 243,629.342 243,656.621 " fill="none" id="statistics.AttendanceRepository-&gt;statistics.Attendance" style="stroke: #A80036; stroke-width: 1.0; stroke-dasharray: 7.0,7.0;"/><polygon fill="#A80036" points="243,661.709,247,652.709,243,656.709,239,652.709,243,661.709" style="stroke: #A80036; stroke-width: 1.0;"/><text fill="#000000" font-family="sans-serif" font-size="13" lengthAdjust="spacingAndGlyphs" textLength="39" x="244" y="628.0669">«use»</text><!--MD5=[52d43691808132f0043873fa7aad1967]
reverse link statistics.Attendance to java.time.LocalDate--><path d="M243,851.513 C243,883.793 243,916.64 243,937.8201 " fill="none" id="statistics.Attendance&lt;-java.time.LocalDate" style="stroke: #A80036; stroke-width: 1.0;"/><polygon fill="#FFFFFF" points="243,838.235,239,844.235,243,850.235,247,844.235,243,838.235" style="stroke: #A80036; stroke-width: 1.0;"/><rect fill="none" height="6" style="stroke: #C82930; stroke-width: 1.0;" width="6" x="246" y="876.0664"/><text fill="#000000" font-family="sans-serif" font-size="13" lengthAdjust="spacingAndGlyphs" textLength="29" x="256" y="883.0669">date</text><text fill="#000000" font-family="sans-serif" font-size="13" lengthAdjust="spacingAndGlyphs" textLength="8" x="233.975" y="926.786">1</text><!--MD5=[4b4560a71aea5be7ed7014d3f57744d4]
@startuml
namespace statistics {
     
     StatisticController o- - "1" StatisticManagement: "- statisticManagement"
     class StatisticController {
        + StatisticController(statisticsManagement: StatisticManagement)
        + showStatistics(Model model): String
     }
     
     org.salespoint.OrderManager <.. StatisticManagement: <<use>>
     StatisticManagement o-right- "1" AttendanceManagement: "- attendanceManagement"
     StatisticManagement o-left- "1" invoice.InvoiceManagement: "- invoiceManagement"
     StatisticManagement o- - "1" staff.StaffManagement: "- staffManagement"
     class StatisticManagement {
        + StatisticManagement(AttendanceRepository attendances, InvoiceManagement invoiceManagement,
							   StaffManagement staffManagement)
        + getAverageTimeOfToday(): long
        + getAverageTimesOfThisWeek(): long[]
        + getMemberAmountOfToday(): long
        + getMemberAmountsOfThisWeek(): long[]
        + getSellingEarningsOfDate(LocalDate date): NumberValue
        + getSellingEarningsOfThisWeek(): NumberValue[]
        + getStaffExpenditurePerMonth(): double
        + getMemberRevenuePerMonth(): double
        + getPercentageExpenditure(): double
        + getPercentageRevenue(): double
        - getLastMonday(LocalDate date): LocalDate
        + getDaysOfWeek(): String[]
     }
     
     StatisticDataInitializer o- - "1" AttendanceManagement: "- attendanceManagement"
     class StatisticDataInitializer {
        + StatisticDataInitializer(AttendanceManagement attendanceManagement)
        + initialize(): void
     }
     
     AttendanceManagement o- - "1" AttendanceRepository: "- attendances"
     class AttendanceManagement {
        + AttendanceManagement(AttendanceRepository attendances)
        + addAttendance(LocalDate date, long memberId, long duration): void
        + addAttendance(long memberId, long duration): void
        + findAll(): Streamable<Attendance>
        + findById(LocalDate date): Optional<Attendance>
     }

    AttendanceRepository ..> Attendance: <<use>>
    Attendance o- - "1" java.time.LocalDate: "- date"
    class Attendance {
        - date: LocalDate
        - memberIds:Set<Long>
        - attendanceTimes: List<Long>
        + Attendance()
        + Attendance(LocalDate date)
        + getMemberAmount(): int
        + getAverageTime(): long
        + getDate(): LocalDate
        + addMember(Long memberId): boolean
        + addTime(long time): void
    }

}
@enduml

PlantUML version 1.2019.13(Tue Dec 10 17:18:29 UTC 2019)
(GPL source distribution)
Java Runtime: Java(TM) SE Runtime Environment
JVM: Java HotSpot(TM) 64-Bit Server VM
Java Version: 1.7.0_25-b15
Operating System: Linux
Default Encoding: UTF-8
Language: en
Country: US
--></g></svg>