<?xml version="1.0" encoding="UTF-8" standalone="no"?>
<svg xmlns="http://www.w3.org/2000/svg" xmlns:xlink="http://www.w3.org/1999/xlink" contentScriptType="application/ecmascript" contentStyleType="text/css" height="697px" preserveAspectRatio="none" style="width:1494px;height:697px;" version="1.1" viewBox="0 0 1494 697" width="1494px" zoomAndPan="magnify"><defs><filter height="300%" id="f5qzdayzqojyg" width="300%" x="-1" y="-1"><feGaussianBlur result="blurOut" stdDeviation="2.0"/><feColorMatrix in="blurOut" result="blurOut2" type="matrix" values="0 0 0 0 0 0 0 0 0 0 0 0 0 0 0 0 0 0 .4 0"/><feOffset dx="4.0" dy="4.0" in="blurOut2" result="blurOut3"/><feBlend in="SourceGraphic" in2="blurOut3" mode="normal"/></filter></defs><g><!--MD5=[33bc894a5efa2d147589402b88218fdd]
cluster invoice--><polygon fill="#FFFFFF" filter="url(#f5qzdayzqojyg)" points="22,172,84,172,91,194.2969,1472,194.2969,1472,537,22,537,22,172" style="stroke: #000000; stroke-width: 1.5;"/><line style="stroke: #000000; stroke-width: 1.5;" x1="22" x2="91" y1="194.2969" y2="194.2969"/><text fill="#000000" font-family="sans-serif" font-size="14" font-weight="bold" lengthAdjust="spacingAndGlyphs" textLength="56" x="26" y="186.9951">invoice</text><!--MD5=[380732c4a8fe84f56d0f4b3aee75acdc]
cluster org.javamoney.moneta--><polygon fill="#FFFFFF" filter="url(#f5qzdayzqojyg)" points="306,586,492,586,499,608.2969,502,608.2969,502,685,306,685,306,586" style="stroke: #000000; stroke-width: 1.5;"/><line style="stroke: #000000; stroke-width: 1.5;" x1="306" x2="499" y1="608.2969" y2="608.2969"/><text fill="#000000" font-family="sans-serif" font-size="14" font-weight="bold" lengthAdjust="spacingAndGlyphs" textLength="180" x="310" y="600.9951">org.javamoney.moneta</text><!--MD5=[5ede147e9e122c363c3337daa7824069]
cluster java.time--><polygon fill="#FFFFFF" filter="url(#f5qzdayzqojyg)" points="624,586,700,586,707,608.2969,750,608.2969,750,685,624,685,624,586" style="stroke: #000000; stroke-width: 1.5;"/><line style="stroke: #000000; stroke-width: 1.5;" x1="624" x2="707" y1="608.2969" y2="608.2969"/><text fill="#000000" font-family="sans-serif" font-size="14" font-weight="bold" lengthAdjust="spacingAndGlyphs" textLength="70" x="628" y="600.9951">java.time</text><!--MD5=[3ed2d37569a438542c9eab5b27371965]
cluster Spring--><polygon fill="#FFFFFF" filter="url(#f5qzdayzqojyg)" points="344,24,401,24,408,46.2969,699,46.2969,699,123,344,123,344,24" style="stroke: #000000; stroke-width: 1.5;"/><line style="stroke: #000000; stroke-width: 1.5;" x1="344" x2="408" y1="46.2969" y2="46.2969"/><text fill="#000000" font-family="sans-serif" font-size="14" font-weight="bold" lengthAdjust="spacingAndGlyphs" textLength="51" x="348" y="38.9951">Spring</text><!--MD5=[fd4375c94946e312160c392f9a53197c]
cluster org.slf4j--><polygon fill="#FFFFFF" filter="url(#f5qzdayzqojyg)" points="907,24,978,24,985,46.2969,1015,46.2969,1015,123,907,123,907,24" style="stroke: #000000; stroke-width: 1.5;"/><line style="stroke: #000000; stroke-width: 1.5;" x1="907" x2="985" y1="46.2969" y2="46.2969"/><text fill="#000000" font-family="sans-serif" font-size="14" font-weight="bold" lengthAdjust="spacingAndGlyphs" textLength="65" x="911" y="38.9951">org.slf4j</text><!--MD5=[16778618a48a738cf9cb4b5231d2bfbf]
class invoice.InvoiceEntry--><rect fill="#FEFECE" filter="url(#f5qzdayzqojyg)" height="124.8281" id="invoice.InvoiceEntry" style="stroke: #A80036; stroke-width: 1.5;" width="483" x="445.5" y="396"/><ellipse cx="645.25" cy="412" fill="#ADD1B2" rx="11" ry="11" style="stroke: #A80036; stroke-width: 1.0;"/><path d="M647.5938,407.6719 L647.7656,407.75 C647.9844,407.4375 648.1875,407.3438 648.4844,407.3438 C648.7813,407.3438 649.0625,407.4844 649.2188,407.75 C649.3125,407.9063 649.3281,408.0313 649.3281,408.4688 L649.3281,409.8906 C649.3281,410.3125 649.2969,410.5 649.1875,410.6563 C649.0156,410.875 648.75,411.0156 648.4844,411.0156 C648.2656,411.0156 648.0313,410.9063 647.8906,410.7656 C647.75,410.6406 647.7188,410.5156 647.6563,410.1094 C647.5625,409.7031 647.3906,409.4844 646.9063,409.2031 C646.4375,408.9531 645.8281,408.7969 645.25,408.7969 C643.5156,408.7969 642.2656,410.1094 642.2656,411.8906 L642.2656,412.9844 C642.2656,414.6875 643.5625,415.7813 645.6094,415.7813 C646.375,415.7813 647.0625,415.6563 647.4844,415.3906 C647.6719,415.2969 647.6719,415.2969 648.125,414.8125 C648.3125,414.625 648.5156,414.5469 648.7344,414.5469 C649.2031,414.5469 649.5938,414.9375 649.5938,415.3906 C649.5938,415.7813 649.2656,416.2344 648.6875,416.6406 C647.9375,417.1875 646.7813,417.4844 645.5625,417.4844 C642.6719,417.4844 640.5625,415.5938 640.5625,413.0156 L640.5625,411.8906 C640.5625,409.1719 642.5625,407.0938 645.1875,407.0938 C646.0625,407.0938 646.6563,407.2344 647.5938,407.6719 Z "/><text fill="#000000" font-family="sans-serif" font-size="12" lengthAdjust="spacingAndGlyphs" textLength="75" x="665.75" y="416.1543">InvoiceEntry</text><line style="stroke: #A80036; stroke-width: 1.5;" x1="446.5" x2="927.5" y1="428" y2="428"/><rect fill="none" height="6" style="stroke: #C82930; stroke-width: 1.0;" width="6" x="453.5" y="436"/><text fill="#000000" font-family="sans-serif" font-size="11" lengthAdjust="spacingAndGlyphs" textLength="110" x="465.5" y="442.2104">invoiceEntryId: long</text><rect fill="none" height="6" style="stroke: #C82930; stroke-width: 1.0;" width="6" x="453.5" y="448.8047"/><text fill="#000000" font-family="sans-serif" font-size="11" lengthAdjust="spacingAndGlyphs" textLength="80" x="465.5" y="455.0151">member: long</text><rect fill="none" height="6" style="stroke: #C82930; stroke-width: 1.0;" width="6" x="453.5" y="461.6094"/><text fill="#000000" font-family="sans-serif" font-size="11" lengthAdjust="spacingAndGlyphs" textLength="105" x="465.5" y="467.8198">description: String</text><line style="stroke: #A80036; stroke-width: 1.5;" x1="446.5" x2="927.5" y1="474.4141" y2="474.4141"/><ellipse cx="456.5" cy="485.4141" fill="#84BE84" rx="3" ry="3" style="stroke: #038048; stroke-width: 1.0;"/><text fill="#000000" font-family="sans-serif" font-size="11" lengthAdjust="spacingAndGlyphs" textLength="76" x="465.5" y="488.6245">InvoiceEntry()</text><ellipse cx="456.5" cy="498.2188" fill="#84BE84" rx="3" ry="3" style="stroke: #038048; stroke-width: 1.0;"/><text fill="#000000" font-family="sans-serif" font-size="11" lengthAdjust="spacingAndGlyphs" textLength="457" x="465.5" y="501.4292">InvoiceEntry(Long member, InvoiceType type, Money amount, String description)</text><ellipse cx="456.5" cy="511.0234" fill="#84BE84" rx="3" ry="3" style="stroke: #038048; stroke-width: 1.0;"/><text fill="#000000" font-family="sans-serif" font-size="11" lengthAdjust="spacingAndGlyphs" textLength="146" x="465.5" y="514.2339">equals(Object o): boolean</text><!--MD5=[58a7ed77f9f0fbde5b067ef87bd21d15]
class invoice.InvoiceType--><rect fill="#FEFECE" filter="url(#f5qzdayzqojyg)" height="112.0234" id="invoice.InvoiceType" style="stroke: #A80036; stroke-width: 1.5;" width="209" x="333.5" y="207"/><ellipse cx="397.75" cy="223" fill="#EB937F" rx="11" ry="11" style="stroke: #A80036; stroke-width: 1.0;"/><path d="M396.0469,223.875 L396.0469,226.2969 L400.4063,226.2969 L400.4063,225.4219 C400.4063,224.9375 400.4375,224.7969 400.5469,224.6406 C400.7188,224.3906 400.9844,224.2813 401.25,224.2813 C401.5313,224.2813 401.8125,224.4375 401.9844,224.6875 C402.0625,224.8438 402.0938,224.9844 402.0938,225.4219 L402.0938,228 L394.0938,228 C393.7031,228 393.4688,227.9531 393.3281,227.8281 C393.1094,227.6719 392.9688,227.4219 392.9688,227.1563 C392.9688,226.8594 393.125,226.5938 393.375,226.4219 C393.5313,226.3125 393.6875,226.2969 394.0938,226.2969 L394.3438,226.2969 L394.3438,219.7813 L394.0938,219.7813 C393.6719,219.7813 393.4844,219.75 393.3281,219.6406 C393.1094,219.4688 392.9688,219.2188 392.9688,218.9375 C392.9688,218.6563 393.125,218.3594 393.375,218.2031 C393.5313,218.1094 393.6563,218.0938 394.0938,218.0938 L401.7188,218.0938 L401.7188,220.6406 C401.7188,221.1094 401.6875,221.25 401.5781,221.4219 C401.4063,221.6406 401.1406,221.7813 400.875,221.7813 C400.5938,221.7813 400.3125,221.625 400.1406,221.375 C400.0625,221.2188 400.0313,221.0469 400.0313,220.6406 L400.0313,219.7813 L396.0469,219.7813 L396.0469,222.1875 L397.5,222.1875 L397.5,222.0625 C397.5,221.6094 397.5313,221.4531 397.6406,221.2813 C397.8125,221.0625 398.0781,220.9219 398.3281,220.9219 C398.7813,220.9219 399.0938,221.2344 399.1563,221.7031 C399.1719,221.8594 399.1719,221.9063 399.1719,222.0625 L399.1719,223.9844 C399.1719,224.4375 399.1406,224.5938 399.0156,224.75 C398.8594,224.9688 398.5938,225.1094 398.3438,225.1094 C398.0469,225.1094 397.7656,224.9531 397.6094,224.7031 C397.5313,224.5469 397.5,224.3906 397.5,223.9844 L397.5,223.875 Z "/><text fill="#000000" font-family="sans-serif" font-size="12" lengthAdjust="spacingAndGlyphs" textLength="72" x="418.25" y="227.1543">InvoiceType</text><line style="stroke: #A80036; stroke-width: 1.5;" x1="334.5" x2="541.5" y1="239" y2="239"/><text fill="#000000" font-family="sans-serif" font-size="11" lengthAdjust="spacingAndGlyphs" textLength="49" x="353.5" y="253.2104">DEPOSIT</text><text fill="#000000" font-family="sans-serif" font-size="11" lengthAdjust="spacingAndGlyphs" textLength="58" x="353.5" y="266.0151">WITHDRAW</text><text fill="#000000" font-family="sans-serif" font-size="11" lengthAdjust="spacingAndGlyphs" textLength="83" x="353.5" y="278.8198">CASHPAYMENT</text><rect fill="none" height="6" style="stroke: #C82930; stroke-width: 1.0;" width="6" x="341.5" y="285.4141"/><text fill="#000000" font-family="sans-serif" font-size="11" lengthAdjust="spacingAndGlyphs" textLength="113" x="353.5" y="291.6245">displayValue: String</text><line style="stroke: #A80036; stroke-width: 1.5;" x1="334.5" x2="541.5" y1="298.2188" y2="298.2188"/><polygon fill="#4177AF" points="344.5,305.2188,340.5,311.2188,348.5,311.2188" style="stroke: #1963A0; stroke-width: 1.0;"/><text fill="#000000" font-family="sans-serif" font-size="11" lengthAdjust="spacingAndGlyphs" textLength="183" x="353.5" y="312.4292">InvoiceType(String displayValue)</text><!--MD5=[3c8188de8413e098d1d5e24313fba7a9]
class invoice.InvoiceRepository--><rect fill="#FEFECE" filter="url(#f5qzdayzqojyg)" height="48" id="invoice.InvoiceRepository" style="stroke: #A80036; stroke-width: 1.5;" width="141" x="595.5" y="239"/><ellipse cx="610.5" cy="255" fill="#ADD1B2" rx="11" ry="11" style="stroke: #A80036; stroke-width: 1.0;"/><path d="M612.8438,250.6719 L613.0156,250.75 C613.2344,250.4375 613.4375,250.3438 613.7344,250.3438 C614.0313,250.3438 614.3125,250.4844 614.4688,250.75 C614.5625,250.9063 614.5781,251.0313 614.5781,251.4688 L614.5781,252.8906 C614.5781,253.3125 614.5469,253.5 614.4375,253.6563 C614.2656,253.875 614,254.0156 613.7344,254.0156 C613.5156,254.0156 613.2813,253.9063 613.1406,253.7656 C613,253.6406 612.9688,253.5156 612.9063,253.1094 C612.8125,252.7031 612.6406,252.4844 612.1563,252.2031 C611.6875,251.9531 611.0781,251.7969 610.5,251.7969 C608.7656,251.7969 607.5156,253.1094 607.5156,254.8906 L607.5156,255.9844 C607.5156,257.6875 608.8125,258.7813 610.8594,258.7813 C611.625,258.7813 612.3125,258.6563 612.7344,258.3906 C612.9219,258.2969 612.9219,258.2969 613.375,257.8125 C613.5625,257.625 613.7656,257.5469 613.9844,257.5469 C614.4531,257.5469 614.8438,257.9375 614.8438,258.3906 C614.8438,258.7813 614.5156,259.2344 613.9375,259.6406 C613.1875,260.1875 612.0313,260.4844 610.8125,260.4844 C607.9219,260.4844 605.8125,258.5938 605.8125,256.0156 L605.8125,254.8906 C605.8125,252.1719 607.8125,250.0938 610.4375,250.0938 C611.3125,250.0938 611.9063,250.2344 612.8438,250.6719 Z "/><text fill="#000000" font-family="sans-serif" font-size="12" lengthAdjust="spacingAndGlyphs" textLength="109" x="624.5" y="259.1543">InvoiceRepository</text><line style="stroke: #A80036; stroke-width: 1.5;" x1="596.5" x2="735.5" y1="271" y2="271"/><line style="stroke: #A80036; stroke-width: 1.5;" x1="596.5" x2="735.5" y1="279" y2="279"/><!--MD5=[1730324aa0619ce120e62b3a0145dab0]
class invoice.InvoiceEvent--><rect fill="#FEFECE" filter="url(#f5qzdayzqojyg)" height="99.2188" id="invoice.InvoiceEvent" style="stroke: #A80036; stroke-width: 1.5;" width="372" x="38" y="409"/><ellipse cx="180.75" cy="425" fill="#ADD1B2" rx="11" ry="11" style="stroke: #A80036; stroke-width: 1.0;"/><path d="M183.0938,420.6719 L183.2656,420.75 C183.4844,420.4375 183.6875,420.3438 183.9844,420.3438 C184.2813,420.3438 184.5625,420.4844 184.7188,420.75 C184.8125,420.9063 184.8281,421.0313 184.8281,421.4688 L184.8281,422.8906 C184.8281,423.3125 184.7969,423.5 184.6875,423.6563 C184.5156,423.875 184.25,424.0156 183.9844,424.0156 C183.7656,424.0156 183.5313,423.9063 183.3906,423.7656 C183.25,423.6406 183.2188,423.5156 183.1563,423.1094 C183.0625,422.7031 182.8906,422.4844 182.4063,422.2031 C181.9375,421.9531 181.3281,421.7969 180.75,421.7969 C179.0156,421.7969 177.7656,423.1094 177.7656,424.8906 L177.7656,425.9844 C177.7656,427.6875 179.0625,428.7813 181.1094,428.7813 C181.875,428.7813 182.5625,428.6563 182.9844,428.3906 C183.1719,428.2969 183.1719,428.2969 183.625,427.8125 C183.8125,427.625 184.0156,427.5469 184.2344,427.5469 C184.7031,427.5469 185.0938,427.9375 185.0938,428.3906 C185.0938,428.7813 184.7656,429.2344 184.1875,429.6406 C183.4375,430.1875 182.2813,430.4844 181.0625,430.4844 C178.1719,430.4844 176.0625,428.5938 176.0625,426.0156 L176.0625,424.8906 C176.0625,422.1719 178.0625,420.0938 180.6875,420.0938 C181.5625,420.0938 182.1563,420.2344 183.0938,420.6719 Z "/><text fill="#000000" font-family="sans-serif" font-size="12" lengthAdjust="spacingAndGlyphs" textLength="78" x="201.25" y="429.1543">InvoiceEvent</text><line style="stroke: #A80036; stroke-width: 1.5;" x1="39" x2="409" y1="441" y2="441"/><rect fill="none" height="6" style="stroke: #C82930; stroke-width: 1.0;" width="6" x="46" y="449"/><text fill="#000000" font-family="sans-serif" font-size="11" lengthAdjust="spacingAndGlyphs" textLength="80" x="58" y="455.2104">member: long</text><rect fill="none" height="6" style="stroke: #C82930; stroke-width: 1.0;" width="6" x="46" y="461.8047"/><text fill="#000000" font-family="sans-serif" font-size="11" lengthAdjust="spacingAndGlyphs" textLength="105" x="58" y="468.0151">description: String</text><line style="stroke: #A80036; stroke-width: 1.5;" x1="39" x2="409" y1="474.6094" y2="474.6094"/><ellipse cx="49" cy="485.6094" fill="#84BE84" rx="3" ry="3" style="stroke: #038048; stroke-width: 1.0;"/><text fill="#000000" font-family="sans-serif" font-size="11" lengthAdjust="spacingAndGlyphs" textLength="346" x="58" y="488.8198">InvoiceEvent(Object source, Long member, InvoiceType type,</text><text fill="#000000" font-family="sans-serif" font-size="11" lengthAdjust="spacingAndGlyphs" textLength="196" x="58" y="501.6245">Money amount, String description)</text><!--MD5=[9fa1b913f6fe9370e76628b65be1bf54]
class invoice.InvoiceEventListener--><rect fill="#FEFECE" filter="url(#f5qzdayzqojyg)" height="73.6094" id="invoice.InvoiceEventListener" style="stroke: #A80036; stroke-width: 1.5;" width="378" x="772" y="226"/><ellipse cx="892.75" cy="242" fill="#ADD1B2" rx="11" ry="11" style="stroke: #A80036; stroke-width: 1.0;"/><path d="M895.0938,237.6719 L895.2656,237.75 C895.4844,237.4375 895.6875,237.3438 895.9844,237.3438 C896.2813,237.3438 896.5625,237.4844 896.7188,237.75 C896.8125,237.9063 896.8281,238.0313 896.8281,238.4688 L896.8281,239.8906 C896.8281,240.3125 896.7969,240.5 896.6875,240.6563 C896.5156,240.875 896.25,241.0156 895.9844,241.0156 C895.7656,241.0156 895.5313,240.9063 895.3906,240.7656 C895.25,240.6406 895.2188,240.5156 895.1563,240.1094 C895.0625,239.7031 894.8906,239.4844 894.4063,239.2031 C893.9375,238.9531 893.3281,238.7969 892.75,238.7969 C891.0156,238.7969 889.7656,240.1094 889.7656,241.8906 L889.7656,242.9844 C889.7656,244.6875 891.0625,245.7813 893.1094,245.7813 C893.875,245.7813 894.5625,245.6563 894.9844,245.3906 C895.1719,245.2969 895.1719,245.2969 895.625,244.8125 C895.8125,244.625 896.0156,244.5469 896.2344,244.5469 C896.7031,244.5469 897.0938,244.9375 897.0938,245.3906 C897.0938,245.7813 896.7656,246.2344 896.1875,246.6406 C895.4375,247.1875 894.2813,247.4844 893.0625,247.4844 C890.1719,247.4844 888.0625,245.5938 888.0625,243.0156 L888.0625,241.8906 C888.0625,239.1719 890.0625,237.0938 892.6875,237.0938 C893.5625,237.0938 894.1563,237.2344 895.0938,237.6719 Z "/><text fill="#000000" font-family="sans-serif" font-size="12" lengthAdjust="spacingAndGlyphs" textLength="128" x="913.25" y="246.1543">InvoiceEventListener</text><line style="stroke: #A80036; stroke-width: 1.5;" x1="773" x2="1149" y1="258" y2="258"/><line style="stroke: #A80036; stroke-width: 1.5;" x1="773" x2="1149" y1="266" y2="266"/><ellipse cx="783" cy="277" fill="#84BE84" rx="3" ry="3" style="stroke: #038048; stroke-width: 1.0;"/><text fill="#000000" font-family="sans-serif" font-size="11" lengthAdjust="spacingAndGlyphs" textLength="352" x="792" y="280.2104">InvoiceEventListener(InvoiceManagement invoiceManagement)</text><ellipse cx="783" cy="289.8047" fill="#84BE84" rx="3" ry="3" style="stroke: #038048; stroke-width: 1.0;"/><text fill="#000000" font-family="sans-serif" font-size="11" lengthAdjust="spacingAndGlyphs" textLength="250" x="792" y="293.0151">onApplicationEvent(InvoiceEvent event): void</text><!--MD5=[c5aca61be89a454735b864065697d45c]
class invoice.InvoiceManagement--><rect fill="#FEFECE" filter="url(#f5qzdayzqojyg)" height="124.8281" id="invoice.InvoiceManagement" style="stroke: #A80036; stroke-width: 1.5;" width="492" x="964" y="396"/><ellipse cx="1143.25" cy="412" fill="#ADD1B2" rx="11" ry="11" style="stroke: #A80036; stroke-width: 1.0;"/><path d="M1145.5938,407.6719 L1145.7656,407.75 C1145.9844,407.4375 1146.1875,407.3438 1146.4844,407.3438 C1146.7813,407.3438 1147.0625,407.4844 1147.2188,407.75 C1147.3125,407.9063 1147.3281,408.0313 1147.3281,408.4688 L1147.3281,409.8906 C1147.3281,410.3125 1147.2969,410.5 1147.1875,410.6563 C1147.0156,410.875 1146.75,411.0156 1146.4844,411.0156 C1146.2656,411.0156 1146.0313,410.9063 1145.8906,410.7656 C1145.75,410.6406 1145.7188,410.5156 1145.6563,410.1094 C1145.5625,409.7031 1145.3906,409.4844 1144.9063,409.2031 C1144.4375,408.9531 1143.8281,408.7969 1143.25,408.7969 C1141.5156,408.7969 1140.2656,410.1094 1140.2656,411.8906 L1140.2656,412.9844 C1140.2656,414.6875 1141.5625,415.7813 1143.6094,415.7813 C1144.375,415.7813 1145.0625,415.6563 1145.4844,415.3906 C1145.6719,415.2969 1145.6719,415.2969 1146.125,414.8125 C1146.3125,414.625 1146.5156,414.5469 1146.7344,414.5469 C1147.2031,414.5469 1147.5938,414.9375 1147.5938,415.3906 C1147.5938,415.7813 1147.2656,416.2344 1146.6875,416.6406 C1145.9375,417.1875 1144.7813,417.4844 1143.5625,417.4844 C1140.6719,417.4844 1138.5625,415.5938 1138.5625,413.0156 L1138.5625,411.8906 C1138.5625,409.1719 1140.5625,407.0938 1143.1875,407.0938 C1144.0625,407.0938 1144.6563,407.2344 1145.5938,407.6719 Z "/><text fill="#000000" font-family="sans-serif" font-size="12" lengthAdjust="spacingAndGlyphs" textLength="125" x="1163.75" y="416.1543">InvoiceManagement</text><line style="stroke: #A80036; stroke-width: 1.5;" x1="965" x2="1455" y1="428" y2="428"/><line style="stroke: #A80036; stroke-width: 1.5;" x1="965" x2="1455" y1="436" y2="436"/><ellipse cx="975" cy="447" fill="#84BE84" rx="3" ry="3" style="stroke: #038048; stroke-width: 1.0;"/><text fill="#000000" font-family="sans-serif" font-size="11" lengthAdjust="spacingAndGlyphs" textLength="331" x="984" y="450.2104">InvoiceManagement(InvoiceEntryRepository invoiceEntries)</text><ellipse cx="975" cy="459.8047" fill="#84BE84" rx="3" ry="3" style="stroke: #038048; stroke-width: 1.0;"/><text fill="#000000" font-family="sans-serif" font-size="11" lengthAdjust="spacingAndGlyphs" textLength="293" x="984" y="463.0151">createInvoiceEntry(InvoiceEvent event): InvoiceEntry</text><ellipse cx="975" cy="472.6094" fill="#84BE84" rx="3" ry="3" style="stroke: #038048; stroke-width: 1.0;"/><text fill="#000000" font-family="sans-serif" font-size="11" lengthAdjust="spacingAndGlyphs" textLength="342" x="984" y="475.8198">getAllInvoicesForMember(Long member): List&lt;InvoiceEntry&gt;</text><ellipse cx="975" cy="485.4141" fill="#84BE84" rx="3" ry="3" style="stroke: #038048; stroke-width: 1.0;"/><text fill="#000000" font-family="sans-serif" font-size="11" lengthAdjust="spacingAndGlyphs" textLength="406" x="984" y="488.6245">getAllInvoiceForMemberOfLastMonth(Long member): List&lt;InvoiceEntry&gt;</text><ellipse cx="975" cy="498.2188" fill="#84BE84" rx="3" ry="3" style="stroke: #038048; stroke-width: 1.0;"/><text fill="#000000" font-family="sans-serif" font-size="11" lengthAdjust="spacingAndGlyphs" textLength="322" x="984" y="501.4292">getAllInvoicesOfDate(LocalDate date): List&lt;InvoiceEntry&gt;</text><ellipse cx="975" cy="511.0234" fill="#84BE84" rx="3" ry="3" style="stroke: #038048; stroke-width: 1.0;"/><text fill="#000000" font-family="sans-serif" font-size="11" lengthAdjust="spacingAndGlyphs" textLength="466" x="984" y="514.2339">getAllEntriesForMemberBefore(Long member, LocalDate date): List&lt;InvoiceEntry&gt;</text><!--MD5=[46536d33d7f51a87551429688751a741]
class invoice.InvoiceEntryRepository--><rect fill="#FEFECE" filter="url(#f5qzdayzqojyg)" height="48" id="invoice.InvoiceEntryRepository" style="stroke: #A80036; stroke-width: 1.5;" width="173" x="1185.5" y="239"/><ellipse cx="1200.5" cy="255" fill="#ADD1B2" rx="11" ry="11" style="stroke: #A80036; stroke-width: 1.0;"/><path d="M1202.8438,250.6719 L1203.0156,250.75 C1203.2344,250.4375 1203.4375,250.3438 1203.7344,250.3438 C1204.0313,250.3438 1204.3125,250.4844 1204.4688,250.75 C1204.5625,250.9063 1204.5781,251.0313 1204.5781,251.4688 L1204.5781,252.8906 C1204.5781,253.3125 1204.5469,253.5 1204.4375,253.6563 C1204.2656,253.875 1204,254.0156 1203.7344,254.0156 C1203.5156,254.0156 1203.2813,253.9063 1203.1406,253.7656 C1203,253.6406 1202.9688,253.5156 1202.9063,253.1094 C1202.8125,252.7031 1202.6406,252.4844 1202.1563,252.2031 C1201.6875,251.9531 1201.0781,251.7969 1200.5,251.7969 C1198.7656,251.7969 1197.5156,253.1094 1197.5156,254.8906 L1197.5156,255.9844 C1197.5156,257.6875 1198.8125,258.7813 1200.8594,258.7813 C1201.625,258.7813 1202.3125,258.6563 1202.7344,258.3906 C1202.9219,258.2969 1202.9219,258.2969 1203.375,257.8125 C1203.5625,257.625 1203.7656,257.5469 1203.9844,257.5469 C1204.4531,257.5469 1204.8438,257.9375 1204.8438,258.3906 C1204.8438,258.7813 1204.5156,259.2344 1203.9375,259.6406 C1203.1875,260.1875 1202.0313,260.4844 1200.8125,260.4844 C1197.9219,260.4844 1195.8125,258.5938 1195.8125,256.0156 L1195.8125,254.8906 C1195.8125,252.1719 1197.8125,250.0938 1200.4375,250.0938 C1201.3125,250.0938 1201.9063,250.2344 1202.8438,250.6719 Z "/><text fill="#000000" font-family="sans-serif" font-size="12" lengthAdjust="spacingAndGlyphs" textLength="141" x="1214.5" y="259.1543">InvoiceEntryRepository</text><line style="stroke: #A80036; stroke-width: 1.5;" x1="1186.5" x2="1357.5" y1="271" y2="271"/><line style="stroke: #A80036; stroke-width: 1.5;" x1="1186.5" x2="1357.5" y1="279" y2="279"/><!--MD5=[5a5c6b4c7f1c85ba24f16ef209254f23]
class org.javamoney.moneta.Money--><rect fill="#FEFECE" filter="url(#f5qzdayzqojyg)" height="48" id="org.javamoney.moneta.Money" style="stroke: #A80036; stroke-width: 1.5;" width="72" x="368" y="621"/><ellipse cx="383" cy="637" fill="#ADD1B2" rx="11" ry="11" style="stroke: #A80036; stroke-width: 1.0;"/><path d="M385.3438,632.6719 L385.5156,632.75 C385.7344,632.4375 385.9375,632.3438 386.2344,632.3438 C386.5313,632.3438 386.8125,632.4844 386.9688,632.75 C387.0625,632.9063 387.0781,633.0313 387.0781,633.4688 L387.0781,634.8906 C387.0781,635.3125 387.0469,635.5 386.9375,635.6563 C386.7656,635.875 386.5,636.0156 386.2344,636.0156 C386.0156,636.0156 385.7813,635.9063 385.6406,635.7656 C385.5,635.6406 385.4688,635.5156 385.4063,635.1094 C385.3125,634.7031 385.1406,634.4844 384.6563,634.2031 C384.1875,633.9531 383.5781,633.7969 383,633.7969 C381.2656,633.7969 380.0156,635.1094 380.0156,636.8906 L380.0156,637.9844 C380.0156,639.6875 381.3125,640.7813 383.3594,640.7813 C384.125,640.7813 384.8125,640.6563 385.2344,640.3906 C385.4219,640.2969 385.4219,640.2969 385.875,639.8125 C386.0625,639.625 386.2656,639.5469 386.4844,639.5469 C386.9531,639.5469 387.3438,639.9375 387.3438,640.3906 C387.3438,640.7813 387.0156,641.2344 386.4375,641.6406 C385.6875,642.1875 384.5313,642.4844 383.3125,642.4844 C380.4219,642.4844 378.3125,640.5938 378.3125,638.0156 L378.3125,636.8906 C378.3125,634.1719 380.3125,632.0938 382.9375,632.0938 C383.8125,632.0938 384.4063,632.2344 385.3438,632.6719 Z "/><text fill="#000000" font-family="sans-serif" font-size="12" lengthAdjust="spacingAndGlyphs" textLength="40" x="397" y="641.1543">Money</text><line style="stroke: #A80036; stroke-width: 1.5;" x1="369" x2="439" y1="653" y2="653"/><line style="stroke: #A80036; stroke-width: 1.5;" x1="369" x2="439" y1="661" y2="661"/><!--MD5=[2dce24b44a790fd9aa1dee3c6eda0a13]
class java.time.LocalDate--><rect fill="#FEFECE" filter="url(#f5qzdayzqojyg)" height="48" id="java.time.LocalDate" style="stroke: #A80036; stroke-width: 1.5;" width="94" x="640" y="621"/><ellipse cx="655" cy="637" fill="#ADD1B2" rx="11" ry="11" style="stroke: #A80036; stroke-width: 1.0;"/><path d="M657.3438,632.6719 L657.5156,632.75 C657.7344,632.4375 657.9375,632.3438 658.2344,632.3438 C658.5313,632.3438 658.8125,632.4844 658.9688,632.75 C659.0625,632.9063 659.0781,633.0313 659.0781,633.4688 L659.0781,634.8906 C659.0781,635.3125 659.0469,635.5 658.9375,635.6563 C658.7656,635.875 658.5,636.0156 658.2344,636.0156 C658.0156,636.0156 657.7813,635.9063 657.6406,635.7656 C657.5,635.6406 657.4688,635.5156 657.4063,635.1094 C657.3125,634.7031 657.1406,634.4844 656.6563,634.2031 C656.1875,633.9531 655.5781,633.7969 655,633.7969 C653.2656,633.7969 652.0156,635.1094 652.0156,636.8906 L652.0156,637.9844 C652.0156,639.6875 653.3125,640.7813 655.3594,640.7813 C656.125,640.7813 656.8125,640.6563 657.2344,640.3906 C657.4219,640.2969 657.4219,640.2969 657.875,639.8125 C658.0625,639.625 658.2656,639.5469 658.4844,639.5469 C658.9531,639.5469 659.3438,639.9375 659.3438,640.3906 C659.3438,640.7813 659.0156,641.2344 658.4375,641.6406 C657.6875,642.1875 656.5313,642.4844 655.3125,642.4844 C652.4219,642.4844 650.3125,640.5938 650.3125,638.0156 L650.3125,636.8906 C650.3125,634.1719 652.3125,632.0938 654.9375,632.0938 C655.8125,632.0938 656.4063,632.2344 657.3438,632.6719 Z "/><text fill="#000000" font-family="sans-serif" font-size="12" lengthAdjust="spacingAndGlyphs" textLength="62" x="669" y="641.1543">LocalDate</text><line style="stroke: #A80036; stroke-width: 1.5;" x1="641" x2="733" y1="653" y2="653"/><line style="stroke: #A80036; stroke-width: 1.5;" x1="641" x2="733" y1="661" y2="661"/><!--MD5=[1b0299f2085b909df91b8fbce1c95f85]
class Spring.ApplicationEvent--><rect fill="#FEFECE" filter="url(#f5qzdayzqojyg)" height="48" id="Spring.ApplicationEvent" style="stroke: #A80036; stroke-width: 1.5;" width="136" x="360" y="59"/><ellipse cx="375" cy="75" fill="#ADD1B2" rx="11" ry="11" style="stroke: #A80036; stroke-width: 1.0;"/><path d="M377.3438,70.6719 L377.5156,70.75 C377.7344,70.4375 377.9375,70.3438 378.2344,70.3438 C378.5313,70.3438 378.8125,70.4844 378.9688,70.75 C379.0625,70.9063 379.0781,71.0313 379.0781,71.4688 L379.0781,72.8906 C379.0781,73.3125 379.0469,73.5 378.9375,73.6563 C378.7656,73.875 378.5,74.0156 378.2344,74.0156 C378.0156,74.0156 377.7813,73.9063 377.6406,73.7656 C377.5,73.6406 377.4688,73.5156 377.4063,73.1094 C377.3125,72.7031 377.1406,72.4844 376.6563,72.2031 C376.1875,71.9531 375.5781,71.7969 375,71.7969 C373.2656,71.7969 372.0156,73.1094 372.0156,74.8906 L372.0156,75.9844 C372.0156,77.6875 373.3125,78.7813 375.3594,78.7813 C376.125,78.7813 376.8125,78.6563 377.2344,78.3906 C377.4219,78.2969 377.4219,78.2969 377.875,77.8125 C378.0625,77.625 378.2656,77.5469 378.4844,77.5469 C378.9531,77.5469 379.3438,77.9375 379.3438,78.3906 C379.3438,78.7813 379.0156,79.2344 378.4375,79.6406 C377.6875,80.1875 376.5313,80.4844 375.3125,80.4844 C372.4219,80.4844 370.3125,78.5938 370.3125,76.0156 L370.3125,74.8906 C370.3125,72.1719 372.3125,70.0938 374.9375,70.0938 C375.8125,70.0938 376.4063,70.2344 377.3438,70.6719 Z "/><text fill="#000000" font-family="sans-serif" font-size="12" lengthAdjust="spacingAndGlyphs" textLength="104" x="389" y="79.1543">ApplicationEvent</text><line style="stroke: #A80036; stroke-width: 1.5;" x1="361" x2="495" y1="91" y2="91"/><line style="stroke: #A80036; stroke-width: 1.5;" x1="361" x2="495" y1="99" y2="99"/><!--MD5=[000f99f5bdca62adb6fd995ab9844471]
class Spring.ApplicationListener--><rect fill="#FEFECE" filter="url(#f5qzdayzqojyg)" height="48" id="Spring.ApplicationListener" style="stroke: #A80036; stroke-width: 1.5;" width="151" x="531.5" y="59"/><ellipse cx="546.5" cy="75" fill="#ADD1B2" rx="11" ry="11" style="stroke: #A80036; stroke-width: 1.0;"/><path d="M548.8438,70.6719 L549.0156,70.75 C549.2344,70.4375 549.4375,70.3438 549.7344,70.3438 C550.0313,70.3438 550.3125,70.4844 550.4688,70.75 C550.5625,70.9063 550.5781,71.0313 550.5781,71.4688 L550.5781,72.8906 C550.5781,73.3125 550.5469,73.5 550.4375,73.6563 C550.2656,73.875 550,74.0156 549.7344,74.0156 C549.5156,74.0156 549.2813,73.9063 549.1406,73.7656 C549,73.6406 548.9688,73.5156 548.9063,73.1094 C548.8125,72.7031 548.6406,72.4844 548.1563,72.2031 C547.6875,71.9531 547.0781,71.7969 546.5,71.7969 C544.7656,71.7969 543.5156,73.1094 543.5156,74.8906 L543.5156,75.9844 C543.5156,77.6875 544.8125,78.7813 546.8594,78.7813 C547.625,78.7813 548.3125,78.6563 548.7344,78.3906 C548.9219,78.2969 548.9219,78.2969 549.375,77.8125 C549.5625,77.625 549.7656,77.5469 549.9844,77.5469 C550.4531,77.5469 550.8438,77.9375 550.8438,78.3906 C550.8438,78.7813 550.5156,79.2344 549.9375,79.6406 C549.1875,80.1875 548.0313,80.4844 546.8125,80.4844 C543.9219,80.4844 541.8125,78.5938 541.8125,76.0156 L541.8125,74.8906 C541.8125,72.1719 543.8125,70.0938 546.4375,70.0938 C547.3125,70.0938 547.9063,70.2344 548.8438,70.6719 Z "/><text fill="#000000" font-family="sans-serif" font-size="12" lengthAdjust="spacingAndGlyphs" textLength="119" x="560.5" y="79.1543">ApplicationListener</text><line style="stroke: #A80036; stroke-width: 1.5;" x1="532.5" x2="681.5" y1="91" y2="91"/><line style="stroke: #A80036; stroke-width: 1.5;" x1="532.5" x2="681.5" y1="99" y2="99"/><!--MD5=[b40a16ba73359ec571027dccf3b38bb2]
class org.slf4j.Logger--><rect fill="#FEFECE" filter="url(#f5qzdayzqojyg)" height="48" id="org.slf4j.Logger" style="stroke: #A80036; stroke-width: 1.5;" width="75" x="923.5" y="59"/><ellipse cx="938.5" cy="75" fill="#ADD1B2" rx="11" ry="11" style="stroke: #A80036; stroke-width: 1.0;"/><path d="M940.8438,70.6719 L941.0156,70.75 C941.2344,70.4375 941.4375,70.3438 941.7344,70.3438 C942.0313,70.3438 942.3125,70.4844 942.4688,70.75 C942.5625,70.9063 942.5781,71.0313 942.5781,71.4688 L942.5781,72.8906 C942.5781,73.3125 942.5469,73.5 942.4375,73.6563 C942.2656,73.875 942,74.0156 941.7344,74.0156 C941.5156,74.0156 941.2813,73.9063 941.1406,73.7656 C941,73.6406 940.9688,73.5156 940.9063,73.1094 C940.8125,72.7031 940.6406,72.4844 940.1563,72.2031 C939.6875,71.9531 939.0781,71.7969 938.5,71.7969 C936.7656,71.7969 935.5156,73.1094 935.5156,74.8906 L935.5156,75.9844 C935.5156,77.6875 936.8125,78.7813 938.8594,78.7813 C939.625,78.7813 940.3125,78.6563 940.7344,78.3906 C940.9219,78.2969 940.9219,78.2969 941.375,77.8125 C941.5625,77.625 941.7656,77.5469 941.9844,77.5469 C942.4531,77.5469 942.8438,77.9375 942.8438,78.3906 C942.8438,78.7813 942.5156,79.2344 941.9375,79.6406 C941.1875,80.1875 940.0313,80.4844 938.8125,80.4844 C935.9219,80.4844 933.8125,78.5938 933.8125,76.0156 L933.8125,74.8906 C933.8125,72.1719 935.8125,70.0938 938.4375,70.0938 C939.3125,70.0938 939.9063,70.2344 940.8438,70.6719 Z "/><text fill="#000000" font-family="sans-serif" font-size="12" lengthAdjust="spacingAndGlyphs" textLength="43" x="952.5" y="79.1543">Logger</text><line style="stroke: #A80036; stroke-width: 1.5;" x1="924.5" x2="997.5" y1="91" y2="91"/><line style="stroke: #A80036; stroke-width: 1.5;" x1="924.5" x2="997.5" y1="99" y2="99"/><!--MD5=[15d4c022bd0214e53eaddf0c4cd89a48]
reverse link invoice.InvoiceEntry to org.javamoney.moneta.Money--><path d="M581.471,528.299 C531.428,560.924 474.957,597.74 439.428,620.9031 " fill="none" id="invoice.InvoiceEntry&lt;-org.javamoney.moneta.Money" style="stroke: #A80036; stroke-width: 1.0;"/><polygon fill="#FFFFFF" points="592.372,521.192,585.1613,521.1175,582.3192,527.7449,589.5299,527.8194,592.372,521.192" style="stroke: #A80036; stroke-width: 1.0;"/><text fill="#000000" font-family="sans-serif" font-size="13" lengthAdjust="spacingAndGlyphs" textLength="50" x="538" y="566.0669">amount</text><text fill="#000000" font-family="sans-serif" font-size="13" lengthAdjust="spacingAndGlyphs" textLength="8" x="439.4814" y="609.8903">1</text><!--MD5=[d4f8063ebd8fd3b2e67878ba85df4e7a]
reverse link invoice.InvoiceEntry to java.time.LocalDate--><path d="M687,534.251 C687,565.212 687,598.903 687,620.6746 " fill="none" id="invoice.InvoiceEntry&lt;-java.time.LocalDate" style="stroke: #A80036; stroke-width: 1.0;"/><polygon fill="#FFFFFF" points="687,521.192,683,527.192,687,533.192,691,527.192,687,521.192" style="stroke: #A80036; stroke-width: 1.0;"/><text fill="#000000" font-family="sans-serif" font-size="13" lengthAdjust="spacingAndGlyphs" textLength="49" x="688" y="566.0669">created</text><text fill="#000000" font-family="sans-serif" font-size="13" lengthAdjust="spacingAndGlyphs" textLength="8" x="678.025" y="610.0002">1</text><!--MD5=[cd4ef8f6dd6825dee4ca2b16a1e070a5]
link invoice.InvoiceType to invoice.InvoiceEntry--><path d="M509.02,319.19 C536.417,340.481 568.08,365.086 597.036,387.588 " fill="none" id="invoice.InvoiceType-&gt;invoice.InvoiceEntry" style="stroke: #A80036; stroke-width: 1.0;"/><polygon fill="#FFFFFF" points="607.569,395.774,605.2861,388.9338,598.094,388.4103,600.3769,395.2505,607.569,395.774" style="stroke: #A80036; stroke-width: 1.0;"/><rect fill="none" height="6" style="stroke: #C82930; stroke-width: 1.0;" width="6" x="565" y="355.0664"/><text fill="#000000" font-family="sans-serif" font-size="13" lengthAdjust="spacingAndGlyphs" textLength="28" x="575" y="362.0669">type</text><text fill="#000000" font-family="sans-serif" font-size="13" lengthAdjust="spacingAndGlyphs" textLength="8" x="509.1881" y="339.0258">1</text><!--MD5=[5f8824224b2e77d6c57d520480bbd520]
link invoice.InvoiceRepository to invoice.InvoiceEntry--><path d="M668.533,287.341 C671.299,312.825 675.854,354.794 679.747,390.673 " fill="none" id="invoice.InvoiceRepository-&gt;invoice.InvoiceEntry" style="stroke: #A80036; stroke-width: 1.0; stroke-dasharray: 7.0,7.0;"/><polygon fill="#A80036" points="680.317,395.92,683.3215,386.5406,679.7769,390.9493,675.3683,387.4047,680.317,395.92" style="stroke: #A80036; stroke-width: 1.0;"/><text fill="#000000" font-family="sans-serif" font-size="13" lengthAdjust="spacingAndGlyphs" textLength="39" x="677" y="362.0669">«use»</text><!--MD5=[7edcd033504f41ee10bc124e9a098ff7]
reverse link Spring.ApplicationEvent to invoice.InvoiceEvent--><path d="M365.588,118.028 C347.471,130.458 329.071,145.965 316,164 C261.709,238.909 238.765,346.851 229.606,408.807 " fill="none" id="Spring.ApplicationEvent&lt;-invoice.InvoiceEvent" style="stroke: #A80036; stroke-width: 1.0;"/><polygon fill="none" points="362.071,111.968,382.687,107.072,369.624,123.756,362.071,111.968" style="stroke: #A80036; stroke-width: 1.0;"/><!--MD5=[8e6656e362fbc4d2a7e13e0e4ed1c156]
link invoice.InvoiceType to invoice.InvoiceEvent--><path d="M376.963,319.19 C349.003,344.471 315.875,374.426 287.61,399.984 " fill="none" id="invoice.InvoiceType-&gt;invoice.InvoiceEvent" style="stroke: #A80036; stroke-width: 1.0;"/><polygon fill="#FFFFFF" points="277.831,408.825,284.9641,407.767,286.7309,400.7757,279.5978,401.8337,277.831,408.825" style="stroke: #A80036; stroke-width: 1.0;"/><rect fill="none" height="6" style="stroke: #C82930; stroke-width: 1.0;" width="6" x="347" y="355.0664"/><text fill="#000000" font-family="sans-serif" font-size="13" lengthAdjust="spacingAndGlyphs" textLength="28" x="357" y="362.0669">type</text><text fill="#000000" font-family="sans-serif" font-size="13" lengthAdjust="spacingAndGlyphs" textLength="8" x="361.0366" y="339.0258">1</text><!--MD5=[6c6d3836a8d1593a60591869c4232b82]
reverse link invoice.InvoiceEvent to org.javamoney.moneta.Money--><path d="M281.124,518.052 C315.059,552.835 356.222,595.028 381.246,620.6768 " fill="none" id="invoice.InvoiceEvent&lt;-org.javamoney.moneta.Money" style="stroke: #A80036; stroke-width: 1.0;"/><polygon fill="#FFFFFF" points="271.764,508.458,273.0913,515.5459,280.1445,517.0468,278.8172,509.9589,271.764,508.458" style="stroke: #A80036; stroke-width: 1.0;"/><text fill="#000000" font-family="sans-serif" font-size="13" lengthAdjust="spacingAndGlyphs" textLength="50" x="332" y="566.0669">amount</text><text fill="#000000" font-family="sans-serif" font-size="13" lengthAdjust="spacingAndGlyphs" textLength="8" x="366.7247" y="610.003">1</text><!--MD5=[45f70c1732081d722ca85a921f664765]
reverse link Spring.ApplicationListener to invoice.InvoiceEventListener--><path d="M670.917,116.139 C732.37,147.039 825.11,193.671 889.107,225.85 " fill="none" id="Spring.ApplicationListener&lt;-invoice.InvoiceEventListener" style="stroke: #A80036; stroke-width: 1.0; stroke-dasharray: 7.0,7.0;"/><polygon fill="none" points="667.64,122.327,652.916,107.088,673.929,109.819,667.64,122.327" style="stroke: #A80036; stroke-width: 1.0;"/><!--MD5=[4d0aef4535a91da4c0f9465be1f5e3f1]
link org.slf4j.Logger to invoice.InvoiceEventListener--><path d="M961,107.27 C961,133.892 961,178.242 961,212.652 " fill="none" id="org.slf4j.Logger-&gt;invoice.InvoiceEventListener" style="stroke: #A80036; stroke-width: 1.0; stroke-dasharray: 7.0,7.0;"/><polygon fill="#FFFFFF" points="961,225.764,965,219.764,961,213.764,957,219.764,961,225.764" style="stroke: #A80036; stroke-width: 1.0;"/><rect fill="none" height="6" style="stroke: #C82930; stroke-width: 1.0;" width="6" x="964" y="145.0664"/><text fill="#000000" font-family="sans-serif" font-size="13" lengthAdjust="spacingAndGlyphs" textLength="134" x="974" y="152.0669">{static} LOG: Logger</text><!--MD5=[02986594797c25bd5eb10f39c1dfd766]
reverse link invoice.InvoiceEventListener to invoice.InvoiceManagement--><path d="M1018.01,308.302 C1051.3,334.175 1093.83,367.22 1130.39,395.632 " fill="none" id="invoice.InvoiceEventListener&lt;-invoice.InvoiceManagement" style="stroke: #A80036; stroke-width: 1.0; stroke-dasharray: 7.0,7.0;"/><polygon fill="#FFFFFF" points="1007.54,300.169,1009.8258,307.0082,1017.018,307.5288,1014.7323,300.6895,1007.54,300.169" style="stroke: #A80036; stroke-width: 1.0;"/><text fill="#000000" font-family="sans-serif" font-size="13" lengthAdjust="spacingAndGlyphs" textLength="129" x="1086" y="362.0669">invoiceManagement</text><!--MD5=[e19c5442402d946e261ad8ce652d0abc]
link invoice.InvoiceEntryRepository to invoice.InvoiceManagement--><path d="M1264.52,287.341 C1256.92,311.049 1244.76,349.026 1233.84,383.093 " fill="none" id="invoice.InvoiceEntryRepository-&gt;invoice.InvoiceManagement" style="stroke: #A80036; stroke-width: 1.0;"/><polygon fill="#FFFFFF" points="1229.73,395.92,1235.3691,391.4255,1233.3892,384.4915,1227.7501,388.986,1229.73,395.92" style="stroke: #A80036; stroke-width: 1.0;"/><rect fill="none" height="6" style="stroke: #C82930; stroke-width: 1.0;" width="6" x="1247" y="355.0664"/><text fill="#000000" font-family="sans-serif" font-size="13" lengthAdjust="spacingAndGlyphs" textLength="88" x="1257" y="362.0669">invoiceEntries</text><text fill="#000000" font-family="sans-serif" font-size="13" lengthAdjust="spacingAndGlyphs" textLength="8" x="1253.7218" y="307.1853">1</text><!--MD5=[2a77b3f256a7392827089412499e21c9]
@startuml
namespace invoice {
    
    org.javamoney.moneta.Money "1" -down-o InvoiceEntry: "- amount"
    java.time.LocalDate "1" -down-o InvoiceEntry: "- created"
    InvoiceType "1" - -o InvoiceEntry: "- type"
    class InvoiceEntry {
        - invoiceEntryId: long
        -  member: long
        - description: String
        + InvoiceEntry()
        + InvoiceEntry(Long member, InvoiceType type, Money amount, String description)
        + equals(Object o): boolean
    }
    
    InvoiceRepository ..> InvoiceEntry: <<use>>
    class InvoiceRepository {
        
    }
    
    Spring.ApplicationEvent <|- - InvoiceEvent
    InvoiceType "1" - -o InvoiceEvent: "- type"
    org.javamoney.moneta.Money "1" -down-o InvoiceEvent: "- amount"
    class InvoiceEvent {
        - member: long
        - description: String
        + InvoiceEvent(Object source, Long member, InvoiceType type, 
            Money amount, String description)
    }
    
    Spring.ApplicationListener <|.. InvoiceEventListener
    org.slf4j.Logger ..o InvoiceEventListener: "- {static} LOG: Logger"
    InvoiceManagement .down.o InvoiceEventListener: "invoiceManagement"
    class InvoiceEventListener {
        + InvoiceEventListener(InvoiceManagement invoiceManagement)
        + onApplicationEvent(InvoiceEvent event): void
    }
    
    InvoiceEntryRepository "1" - -o InvoiceManagement: "- invoiceEntries"
    class InvoiceManagement {
        + InvoiceManagement(InvoiceEntryRepository invoiceEntries)
        + createInvoiceEntry(InvoiceEvent event): InvoiceEntry
        + getAllInvoicesForMember(Long member): List<InvoiceEntry>
        + getAllInvoiceForMemberOfLastMonth(Long member): List<InvoiceEntry>
        + getAllInvoicesOfDate(LocalDate date): List<InvoiceEntry>
        + getAllEntriesForMemberBefore(Long member, LocalDate date): List<InvoiceEntry>
    }
    
     enum InvoiceType {
        DEPOSIT
        WITHDRAW
        CASHPAYMENT
        - displayValue: String
        ~ InvoiceType(String displayValue)
     }
    
}
@enduml

PlantUML version 1.2019.13(Tue Dec 10 17:18:29 UTC 2019)
(GPL source distribution)
Java Runtime: Java(TM) SE Runtime Environment
JVM: Java HotSpot(TM) 64-Bit Server VM
Java Version: 1.7.0_25-b15
Operating System: Linux
Default Encoding: UTF-8
Language: en
Country: US
--></g></svg>