<?xml version="1.0" encoding="UTF-8" standalone="no"?>
<svg xmlns="http://www.w3.org/2000/svg" xmlns:xlink="http://www.w3.org/1999/xlink" contentScriptType="application/ecmascript" contentStyleType="text/css" height="312px" preserveAspectRatio="none" style="width:1842px;height:312px;" version="1.1" viewBox="0 0 1842 312" width="1842px" zoomAndPan="magnify"><defs><filter height="300%" id="fwevbj1y21k0h" width="300%" x="-1" y="-1"><feGaussianBlur result="blurOut" stdDeviation="2.0"/><feColorMatrix in="blurOut" result="blurOut2" type="matrix" values="0 0 0 0 0 0 0 0 0 0 0 0 0 0 0 0 0 0 .4 0"/><feOffset dx="4.0" dy="4.0" in="blurOut2" result="blurOut3"/><feBlend in="SourceGraphic" in2="blurOut3" mode="normal"/></filter></defs><g><!--MD5=[9ca56f5037b2e168e4ddf06d173d6028]
cluster pdf--><polygon fill="#FFFFFF" filter="url(#fwevbj1y21k0h)" points="22,24,54,24,61,46.2969,1612,46.2969,1612,300,22,300,22,24" style="stroke: #000000; stroke-width: 1.5;"/><line style="stroke: #000000; stroke-width: 1.5;" x1="22" x2="61" y1="46.2969" y2="46.2969"/><text fill="#000000" font-family="sans-serif" font-size="14" font-weight="bold" lengthAdjust="spacingAndGlyphs" textLength="26" x="26" y="38.9951">pdf</text><!--MD5=[3f3ae92c4528f2c210b4fb635b667fbf]
cluster org.springframework--><polygon fill="#FFFFFF" filter="url(#fwevbj1y21k0h)" points="1636,37,1810,37,1817,59.2969,1820,59.2969,1820,136,1636,136,1636,37" style="stroke: #000000; stroke-width: 1.5;"/><line style="stroke: #000000; stroke-width: 1.5;" x1="1636" x2="1817" y1="59.2969" y2="59.2969"/><text fill="#000000" font-family="sans-serif" font-size="14" font-weight="bold" lengthAdjust="spacingAndGlyphs" textLength="168" x="1640" y="51.9951">org.springframework</text><!--MD5=[9ea9389cde300a74f0da98931274c826]
class pdf.PdfView--><rect fill="#FEFECE" filter="url(#fwevbj1y21k0h)" height="73.6094" id="pdf.PdfView" style="stroke: #A80036; stroke-width: 1.5;" width="562" x="1034" y="210"/><ellipse cx="1286.75" cy="226" fill="#ADD1B2" rx="11" ry="11" style="stroke: #A80036; stroke-width: 1.0;"/><path d="M1289.0938,221.6719 L1289.2656,221.75 C1289.4844,221.4375 1289.6875,221.3438 1289.9844,221.3438 C1290.2813,221.3438 1290.5625,221.4844 1290.7188,221.75 C1290.8125,221.9063 1290.8281,222.0313 1290.8281,222.4688 L1290.8281,223.8906 C1290.8281,224.3125 1290.7969,224.5 1290.6875,224.6563 C1290.5156,224.875 1290.25,225.0156 1289.9844,225.0156 C1289.7656,225.0156 1289.5313,224.9063 1289.3906,224.7656 C1289.25,224.6406 1289.2188,224.5156 1289.1563,224.1094 C1289.0625,223.7031 1288.8906,223.4844 1288.4063,223.2031 C1287.9375,222.9531 1287.3281,222.7969 1286.75,222.7969 C1285.0156,222.7969 1283.7656,224.1094 1283.7656,225.8906 L1283.7656,226.9844 C1283.7656,228.6875 1285.0625,229.7813 1287.1094,229.7813 C1287.875,229.7813 1288.5625,229.6563 1288.9844,229.3906 C1289.1719,229.2969 1289.1719,229.2969 1289.625,228.8125 C1289.8125,228.625 1290.0156,228.5469 1290.2344,228.5469 C1290.7031,228.5469 1291.0938,228.9375 1291.0938,229.3906 C1291.0938,229.7813 1290.7656,230.2344 1290.1875,230.6406 C1289.4375,231.1875 1288.2813,231.4844 1287.0625,231.4844 C1284.1719,231.4844 1282.0625,229.5938 1282.0625,227.0156 L1282.0625,225.8906 C1282.0625,223.1719 1284.0625,221.0938 1286.6875,221.0938 C1287.5625,221.0938 1288.1563,221.2344 1289.0938,221.6719 Z "/><text fill="#000000" font-family="sans-serif" font-size="12" lengthAdjust="spacingAndGlyphs" textLength="48" x="1307.25" y="230.1543">PdfView</text><line style="stroke: #A80036; stroke-width: 1.5;" x1="1035" x2="1595" y1="242" y2="242"/><line style="stroke: #A80036; stroke-width: 1.5;" x1="1035" x2="1595" y1="250" y2="250"/><polygon fill="#FFFF44" points="1045,256,1049,260,1045,264,1041,260" style="stroke: #B38D22; stroke-width: 1.0;"/><text fill="#000000" font-family="sans-serif" font-size="11" lengthAdjust="spacingAndGlyphs" textLength="536" x="1054" y="264.2104">renderMergedOutputModel(Map&lt;String, Object&gt; map, HttpServletRequest httpServletRequest,</text><text fill="#000000" font-family="sans-serif" font-size="11" lengthAdjust="spacingAndGlyphs" textLength="276" x="1054" y="277.0151">HttpServletResponse httpServletResponse): void</text><!--MD5=[6a9b2ffec6fdf0c84627649b8101cbd5]
class pdf.PdfGenerator--><rect fill="#FEFECE" filter="url(#fwevbj1y21k0h)" height="73.6094" id="pdf.PdfGenerator" style="stroke: #A80036; stroke-width: 1.5;" width="315" x="637.5" y="59"/><ellipse cx="749.25" cy="75" fill="#B4A7E5" rx="11" ry="11" style="stroke: #A80036; stroke-width: 1.0;"/><path d="M750.2031,71.7813 L750.2031,78.2969 L751.9219,78.2969 C752.375,78.2969 752.5156,78.3281 752.6875,78.4531 C752.9219,78.625 753.0313,78.875 753.0313,79.1563 C753.0313,79.7188 752.6719,80 751.9219,80 L746.7813,80 C746.375,80 746.1719,79.9531 746.0156,79.8281 C745.7969,79.6719 745.6563,79.4063 745.6563,79.1563 C745.6563,78.8594 745.8125,78.5781 746.0625,78.4219 C746.2188,78.3125 746.3438,78.2969 746.7813,78.2969 L748.5,78.2969 L748.5,71.7813 L746.7813,71.7813 C746.3594,71.7813 746.1719,71.75 746.0156,71.6406 C745.7969,71.4688 745.6563,71.2188 745.6563,70.9375 C745.6563,70.6563 745.8125,70.3594 746.0625,70.2031 C746.2188,70.1094 746.3438,70.0938 746.7813,70.0938 L751.9219,70.0938 C752.375,70.0938 752.5156,70.125 752.6875,70.2344 C752.9219,70.4063 753.0313,70.6719 753.0313,70.9375 C753.0313,71.2344 752.8906,71.5156 752.625,71.6719 C752.5,71.75 752.3125,71.7813 751.9219,71.7813 Z "/><text fill="#000000" font-family="sans-serif" font-size="12" font-style="italic" lengthAdjust="spacingAndGlyphs" textLength="83" x="769.75" y="79.1543">PdfGenerator</text><line style="stroke: #A80036; stroke-width: 1.5;" x1="638.5" x2="951.5" y1="91" y2="91"/><line style="stroke: #A80036; stroke-width: 1.5;" x1="638.5" x2="951.5" y1="99" y2="99"/><polygon fill="#4177AF" points="648.5,106,644.5,112,652.5,112" style="stroke: #1963A0; stroke-width: 1.0;"/><text fill="#000000" font-family="sans-serif" font-size="11" font-style="italic" lengthAdjust="spacingAndGlyphs" text-decoration="underline" textLength="289" x="657.5" y="113.2104">generatePdf(o: Object, document: Document): void</text><polygon fill="#4177AF" points="648.5,118.8047,644.5,124.8047,652.5,124.8047" style="stroke: #1963A0; stroke-width: 1.0;"/><text fill="#000000" font-family="sans-serif" font-size="11" lengthAdjust="spacingAndGlyphs" text-decoration="underline" textLength="191" x="657.5" y="126.0151">getGermanMonth(int num): String</text><!--MD5=[c8ead84afad95313b06c6f9fcf304dfb]
class pdf.InvoicePdfGenerator--><rect fill="#FEFECE" filter="url(#fwevbj1y21k0h)" height="73.6094" id="pdf.InvoicePdfGenerator" style="stroke: #A80036; stroke-width: 1.5;" width="518" x="38" y="210"/><ellipse cx="229.25" cy="226" fill="#ADD1B2" rx="11" ry="11" style="stroke: #A80036; stroke-width: 1.0;"/><path d="M231.5938,221.6719 L231.7656,221.75 C231.9844,221.4375 232.1875,221.3438 232.4844,221.3438 C232.7813,221.3438 233.0625,221.4844 233.2188,221.75 C233.3125,221.9063 233.3281,222.0313 233.3281,222.4688 L233.3281,223.8906 C233.3281,224.3125 233.2969,224.5 233.1875,224.6563 C233.0156,224.875 232.75,225.0156 232.4844,225.0156 C232.2656,225.0156 232.0313,224.9063 231.8906,224.7656 C231.75,224.6406 231.7188,224.5156 231.6563,224.1094 C231.5625,223.7031 231.3906,223.4844 230.9063,223.2031 C230.4375,222.9531 229.8281,222.7969 229.25,222.7969 C227.5156,222.7969 226.2656,224.1094 226.2656,225.8906 L226.2656,226.9844 C226.2656,228.6875 227.5625,229.7813 229.6094,229.7813 C230.375,229.7813 231.0625,229.6563 231.4844,229.3906 C231.6719,229.2969 231.6719,229.2969 232.125,228.8125 C232.3125,228.625 232.5156,228.5469 232.7344,228.5469 C233.2031,228.5469 233.5938,228.9375 233.5938,229.3906 C233.5938,229.7813 233.2656,230.2344 232.6875,230.6406 C231.9375,231.1875 230.7813,231.4844 229.5625,231.4844 C226.6719,231.4844 224.5625,229.5938 224.5625,227.0156 L224.5625,225.8906 C224.5625,223.1719 226.5625,221.0938 229.1875,221.0938 C230.0625,221.0938 230.6563,221.2344 231.5938,221.6719 Z "/><text fill="#000000" font-family="sans-serif" font-size="12" lengthAdjust="spacingAndGlyphs" textLength="127" x="249.75" y="230.1543">InvoicePdfGenerator</text><line style="stroke: #A80036; stroke-width: 1.5;" x1="39" x2="555" y1="242" y2="242"/><line style="stroke: #A80036; stroke-width: 1.5;" x1="39" x2="555" y1="250" y2="250"/><rect fill="#F24D5C" height="6" style="stroke: #C82930; stroke-width: 1.0;" width="6" x="46" y="258"/><text fill="#000000" font-family="sans-serif" font-size="11" lengthAdjust="spacingAndGlyphs" textLength="123" x="58" y="264.2104">InvoicePdfGenerator()</text><ellipse cx="49" cy="273.8047" fill="#84BE84" rx="3" ry="3" style="stroke: #038048; stroke-width: 1.0;"/><text fill="#000000" font-family="sans-serif" font-size="11" lengthAdjust="spacingAndGlyphs" text-decoration="underline" textLength="492" x="58" y="277.0151">generatePdf(Map&lt;String, Object&gt; invoice, com.itextpdf.layout.Document d): Document</text><!--MD5=[c362928175655e4264c9af1ce1521cdc]
class pdf.PayslipPdfGenerator--><rect fill="#FEFECE" filter="url(#fwevbj1y21k0h)" height="73.6094" id="pdf.PayslipPdfGenerator" style="stroke: #A80036; stroke-width: 1.5;" width="407" x="591.5" y="210"/><ellipse cx="727.25" cy="226" fill="#ADD1B2" rx="11" ry="11" style="stroke: #A80036; stroke-width: 1.0;"/><path d="M729.5938,221.6719 L729.7656,221.75 C729.9844,221.4375 730.1875,221.3438 730.4844,221.3438 C730.7813,221.3438 731.0625,221.4844 731.2188,221.75 C731.3125,221.9063 731.3281,222.0313 731.3281,222.4688 L731.3281,223.8906 C731.3281,224.3125 731.2969,224.5 731.1875,224.6563 C731.0156,224.875 730.75,225.0156 730.4844,225.0156 C730.2656,225.0156 730.0313,224.9063 729.8906,224.7656 C729.75,224.6406 729.7188,224.5156 729.6563,224.1094 C729.5625,223.7031 729.3906,223.4844 728.9063,223.2031 C728.4375,222.9531 727.8281,222.7969 727.25,222.7969 C725.5156,222.7969 724.2656,224.1094 724.2656,225.8906 L724.2656,226.9844 C724.2656,228.6875 725.5625,229.7813 727.6094,229.7813 C728.375,229.7813 729.0625,229.6563 729.4844,229.3906 C729.6719,229.2969 729.6719,229.2969 730.125,228.8125 C730.3125,228.625 730.5156,228.5469 730.7344,228.5469 C731.2031,228.5469 731.5938,228.9375 731.5938,229.3906 C731.5938,229.7813 731.2656,230.2344 730.6875,230.6406 C729.9375,231.1875 728.7813,231.4844 727.5625,231.4844 C724.6719,231.4844 722.5625,229.5938 722.5625,227.0156 L722.5625,225.8906 C722.5625,223.1719 724.5625,221.0938 727.1875,221.0938 C728.0625,221.0938 728.6563,221.2344 729.5938,221.6719 Z "/><text fill="#000000" font-family="sans-serif" font-size="12" lengthAdjust="spacingAndGlyphs" textLength="127" x="747.75" y="230.1543">PayslipPdfGenerator</text><line style="stroke: #A80036; stroke-width: 1.5;" x1="592.5" x2="997.5" y1="242" y2="242"/><line style="stroke: #A80036; stroke-width: 1.5;" x1="592.5" x2="997.5" y1="250" y2="250"/><rect fill="#F24D5C" height="6" style="stroke: #C82930; stroke-width: 1.0;" width="6" x="599.5" y="258"/><text fill="#000000" font-family="sans-serif" font-size="11" lengthAdjust="spacingAndGlyphs" textLength="124" x="611.5" y="264.2104">PayslipPdfGenerator()</text><ellipse cx="602.5" cy="273.8047" fill="#84BE84" rx="3" ry="3" style="stroke: #038048; stroke-width: 1.0;"/><text fill="#000000" font-family="sans-serif" font-size="11" lengthAdjust="spacingAndGlyphs" text-decoration="underline" textLength="381" x="611.5" y="277.0151">generatePdf(Map&lt;String, Object&gt; payslip, Document d): Document</text><!--MD5=[519c58c64e6946420ce6bda5eebbbfe1]
class org.springframework.AbstractView--><rect fill="#FEFECE" filter="url(#fwevbj1y21k0h)" height="48" id="org.springframework.AbstractView" style="stroke: #A80036; stroke-width: 1.5;" width="113" x="1652.5" y="72"/><ellipse cx="1667.5" cy="88" fill="#ADD1B2" rx="11" ry="11" style="stroke: #A80036; stroke-width: 1.0;"/><path d="M1669.8438,83.6719 L1670.0156,83.75 C1670.2344,83.4375 1670.4375,83.3438 1670.7344,83.3438 C1671.0313,83.3438 1671.3125,83.4844 1671.4688,83.75 C1671.5625,83.9063 1671.5781,84.0313 1671.5781,84.4688 L1671.5781,85.8906 C1671.5781,86.3125 1671.5469,86.5 1671.4375,86.6563 C1671.2656,86.875 1671,87.0156 1670.7344,87.0156 C1670.5156,87.0156 1670.2813,86.9063 1670.1406,86.7656 C1670,86.6406 1669.9688,86.5156 1669.9063,86.1094 C1669.8125,85.7031 1669.6406,85.4844 1669.1563,85.2031 C1668.6875,84.9531 1668.0781,84.7969 1667.5,84.7969 C1665.7656,84.7969 1664.5156,86.1094 1664.5156,87.8906 L1664.5156,88.9844 C1664.5156,90.6875 1665.8125,91.7813 1667.8594,91.7813 C1668.625,91.7813 1669.3125,91.6563 1669.7344,91.3906 C1669.9219,91.2969 1669.9219,91.2969 1670.375,90.8125 C1670.5625,90.625 1670.7656,90.5469 1670.9844,90.5469 C1671.4531,90.5469 1671.8438,90.9375 1671.8438,91.3906 C1671.8438,91.7813 1671.5156,92.2344 1670.9375,92.6406 C1670.1875,93.1875 1669.0313,93.4844 1667.8125,93.4844 C1664.9219,93.4844 1662.8125,91.5938 1662.8125,89.0156 L1662.8125,87.8906 C1662.8125,85.1719 1664.8125,83.0938 1667.4375,83.0938 C1668.3125,83.0938 1668.9063,83.2344 1669.8438,83.6719 Z "/><text fill="#000000" font-family="sans-serif" font-size="12" lengthAdjust="spacingAndGlyphs" textLength="81" x="1681.5" y="92.1543">AbstractView</text><line style="stroke: #A80036; stroke-width: 1.5;" x1="1653.5" x2="1764.5" y1="104" y2="104"/><line style="stroke: #A80036; stroke-width: 1.5;" x1="1653.5" x2="1764.5" y1="112" y2="112"/><!--MD5=[c8d127510e6c9a58832c4847eaf60c45]
reverse link org.springframework.AbstractView to pdf.PdfView--><path d="M1645.87,128.938 C1634.69,134.206 1623.08,139.431 1612,144 C1553.03,168.31 1485.92,191.705 1430.44,209.943 " fill="none" id="org.springframework.AbstractView&lt;-pdf.PdfView" style="stroke: #A80036; stroke-width: 1.0;"/><polygon fill="none" points="1643.06,122.525,1664.11,120.143,1649.14,135.135,1643.06,122.525" style="stroke: #A80036; stroke-width: 1.0;"/><!--MD5=[29e9d348ec2eba7bf00b31794d7521e1]
reverse link pdf.PdfGenerator to pdf.PdfView--><path d="M926.151,134.58 C1006.7,157.661 1109.33,187.069 1188.93,209.876 " fill="none" id="pdf.PdfGenerator&lt;-pdf.PdfView" style="stroke: #A80036; stroke-width: 1.0; stroke-dasharray: 7.0,7.0;"/><polygon fill="#A80036" points="920.877,133.069,928.4269,139.3935,925.6835,134.4464,930.6307,131.7031,920.877,133.069" style="stroke: #A80036; stroke-width: 1.0;"/><text fill="#000000" font-family="sans-serif" font-size="13" lengthAdjust="spacingAndGlyphs" textLength="23" x="1071" y="176.0669">use</text><!--MD5=[2f22b29c3fd51f8c480ad19b69431197]
reverse link pdf.PdfGenerator to pdf.InvoicePdfGenerator--><path d="M654.845,138.934 C580.176,161.275 489.248,188.48 417.736,209.876 " fill="none" id="pdf.PdfGenerator&lt;-pdf.InvoicePdfGenerator" style="stroke: #A80036; stroke-width: 1.0; stroke-dasharray: 7.0,7.0;"/><polygon fill="none" points="653.281,132.095,674.448,133.069,657.294,145.508,653.281,132.095" style="stroke: #A80036; stroke-width: 1.0;"/><!--MD5=[a70ed72749977a9893c42352e60562ca]
reverse link pdf.PdfGenerator to pdf.PayslipPdfGenerator--><path d="M795,153.103 C795,172.07 795,192.734 795,209.747 " fill="none" id="pdf.PdfGenerator&lt;-pdf.PayslipPdfGenerator" style="stroke: #A80036; stroke-width: 1.0; stroke-dasharray: 7.0,7.0;"/><polygon fill="none" points="788,153.069,795,133.069,802,153.069,788,153.069" style="stroke: #A80036; stroke-width: 1.0;"/><!--MD5=[95f1304aaa75ab67dfc963b4ec4b2f42]
@startuml
namespace pdf {

    org.springframework.AbstractView <|- - PdfView
    PdfGenerator <.. PdfView : "use"
    class PdfView {
        # renderMergedOutputModel(Map<String, Object> map, HttpServletRequest httpServletRequest,
										   HttpServletResponse httpServletResponse): void
    }

    interface PdfGenerator {
        ~ {abstract} {static} generatePdf(o: Object, document: Document): void
        ~ {static} getGermanMonth(int num): String
    }


    PdfGenerator <|.. InvoicePdfGenerator
    class InvoicePdfGenerator {
        - InvoicePdfGenerator()
        + {static} generatePdf(Map<String, Object> invoice, com.itextpdf.layout.Document d): Document
    }

    PdfGenerator <|.. PayslipPdfGenerator
    class PayslipPdfGenerator {
         - PayslipPdfGenerator()
         + {static} generatePdf(Map<String, Object> payslip, Document d): Document
    }


}
@enduml

PlantUML version 1.2019.13(Tue Dec 10 17:18:29 UTC 2019)
(GPL source distribution)
Java Runtime: Java(TM) SE Runtime Environment
JVM: Java HotSpot(TM) 64-Bit Server VM
Java Version: 1.7.0_25-b15
Operating System: Linux
Default Encoding: UTF-8
Language: en
Country: US
--></g></svg>