<?xml version="1.0" encoding="UTF-8" standalone="no"?><svg xmlns="http://www.w3.org/2000/svg" xmlns:xlink="http://www.w3.org/1999/xlink" contentScriptType="application/ecmascript" contentStyleType="text/css" height="373px" preserveAspectRatio="none" style="width:1088px;height:373px;" version="1.1" viewBox="0 0 1088 373" width="1088px" zoomAndPan="magnify"><defs><filter height="300%" id="fgxc9d7uiwjpd" width="300%" x="-1" y="-1"><feGaussianBlur result="blurOut" stdDeviation="2.0"/><feColorMatrix in="blurOut" result="blurOut2" type="matrix" values="0 0 0 0 0 0 0 0 0 0 0 0 0 0 0 0 0 0 .4 0"/><feOffset dx="4.0" dy="4.0" in="blurOut2" result="blurOut3"/><feBlend in="SourceGraphic" in2="blurOut3" mode="normal"/></filter></defs><g><!--MD5=[9ca56f5037b2e168e4ddf06d173d6028]
cluster pdf--><polygon fill="#FFFFFF" filter="url(#fgxc9d7uiwjpd)" points="14,16,46,16,53,38.2969,874,38.2969,874,361,14,361,14,16" style="stroke: #000000; stroke-width: 1.5;"/><line style="stroke: #000000; stroke-width: 1.5;" x1="14" x2="53" y1="38.2969" y2="38.2969"/><text fill="#000000" font-family="sans-serif" font-size="14" font-weight="bold" lengthAdjust="spacingAndGlyphs" textLength="26" x="18" y="30.9951">pdf</text><!--MD5=[3f3ae92c4528f2c210b4fb635b667fbf]
cluster org.springframework--><polygon fill="#FFFFFF" filter="url(#fgxc9d7uiwjpd)" points="882,143,1056,143,1063,165.2969,1066,165.2969,1066,226,882,226,882,143" style="stroke: #000000; stroke-width: 1.5;"/><line style="stroke: #000000; stroke-width: 1.5;" x1="882" x2="1063" y1="165.2969" y2="165.2969"/><text fill="#000000" font-family="sans-serif" font-size="14" font-weight="bold" lengthAdjust="spacingAndGlyphs" textLength="168" x="886" y="157.9951">org.springframework</text><!--MD5=[9ea9389cde300a74f0da98931274c826]
class pdf.PdfView--><rect fill="#FEFECE" filter="url(#fgxc9d7uiwjpd)" height="48" id="pdf.PdfView" style="stroke: #A80036; stroke-width: 1.5;" width="80" x="786" y="292"/><ellipse cx="801" cy="308" fill="#ADD1B2" rx="11" ry="11" style="stroke: #A80036; stroke-width: 1.0;"/><path d="M803.9688,313.6406 Q803.3906,313.9375 802.75,314.0859 Q802.1094,314.2344 801.4063,314.2344 Q798.9063,314.2344 797.5859,312.5859 Q796.2656,310.9375 796.2656,307.8125 Q796.2656,304.6875 797.5859,303.0313 Q798.9063,301.375 801.4063,301.375 Q802.1094,301.375 802.7578,301.5313 Q803.4063,301.6875 803.9688,301.9844 L803.9688,304.7031 Q803.3438,304.125 802.75,303.8516 Q802.1563,303.5781 801.5313,303.5781 Q800.1875,303.5781 799.5,304.6484 Q798.8125,305.7188 798.8125,307.8125 Q798.8125,309.9063 799.5,310.9766 Q800.1875,312.0469 801.5313,312.0469 Q802.1563,312.0469 802.75,311.7734 Q803.3438,311.5 803.9688,310.9219 L803.9688,313.6406 Z "/><text fill="#000000" font-family="sans-serif" font-size="12" lengthAdjust="spacingAndGlyphs" textLength="48" x="815" y="312.1543">PdfView</text><line style="stroke: #A80036; stroke-width: 1.5;" x1="787" x2="865" y1="324" y2="324"/><line style="stroke: #A80036; stroke-width: 1.5;" x1="787" x2="865" y1="332" y2="332"/><!--MD5=[6a9b2ffec6fdf0c84627649b8101cbd5]
class pdf.PdfGenerator--><rect fill="#FEFECE" filter="url(#fgxc9d7uiwjpd)" height="60.8047" id="pdf.PdfGenerator" style="stroke: #A80036; stroke-width: 1.5;" width="314" x="420" y="43"/><ellipse cx="530.75" cy="59" fill="#B4A7E5" rx="11" ry="11" style="stroke: #A80036; stroke-width: 1.0;"/><path d="M526.6719,54.7656 L526.6719,52.6094 L534.0625,52.6094 L534.0625,54.7656 L531.5938,54.7656 L531.5938,62.8438 L534.0625,62.8438 L534.0625,65 L526.6719,65 L526.6719,62.8438 L529.1406,62.8438 L529.1406,54.7656 L526.6719,54.7656 Z "/><text fill="#000000" font-family="sans-serif" font-size="12" font-style="italic" lengthAdjust="spacingAndGlyphs" textLength="84" x="551.25" y="63.1543">PdfGenerator</text><line style="stroke: #A80036; stroke-width: 1.5;" x1="421" x2="733" y1="75" y2="75"/><line style="stroke: #A80036; stroke-width: 1.5;" x1="421" x2="733" y1="83" y2="83"/><ellipse cx="431" cy="94" fill="#84BE84" rx="3" ry="3" style="stroke: #038048; stroke-width: 1.0;"/><text fill="#000000" font-family="sans-serif" font-size="11" font-style="italic" lengthAdjust="spacingAndGlyphs" text-decoration="underline" textLength="288" x="440" y="97.2104">generatePdf(o: Object, document: Document): void</text><!--MD5=[c8ead84afad95313b06c6f9fcf304dfb]
class pdf.InvoicePdfGenerator--><rect fill="#FEFECE" filter="url(#fgxc9d7uiwjpd)" height="73.6094" id="pdf.InvoicePdfGenerator" style="stroke: #A80036; stroke-width: 1.5;" width="346" x="22" y="279"/><ellipse cx="127.25" cy="295" fill="#ADD1B2" rx="11" ry="11" style="stroke: #A80036; stroke-width: 1.0;"/><path d="M130.2188,300.6406 Q129.6406,300.9375 129,301.0859 Q128.3594,301.2344 127.6563,301.2344 Q125.1563,301.2344 123.8359,299.5859 Q122.5156,297.9375 122.5156,294.8125 Q122.5156,291.6875 123.8359,290.0313 Q125.1563,288.375 127.6563,288.375 Q128.3594,288.375 129.0078,288.5313 Q129.6563,288.6875 130.2188,288.9844 L130.2188,291.7031 Q129.5938,291.125 129,290.8516 Q128.4063,290.5781 127.7813,290.5781 Q126.4375,290.5781 125.75,291.6484 Q125.0625,292.7188 125.0625,294.8125 Q125.0625,296.9063 125.75,297.9766 Q126.4375,299.0469 127.7813,299.0469 Q128.4063,299.0469 129,298.7734 Q129.5938,298.5 130.2188,297.9219 L130.2188,300.6406 Z "/><text fill="#000000" font-family="sans-serif" font-size="12" lengthAdjust="spacingAndGlyphs" textLength="127" x="147.75" y="299.1543">InvoicePdfGenerator</text><line style="stroke: #A80036; stroke-width: 1.5;" x1="23" x2="367" y1="311" y2="311"/><line style="stroke: #A80036; stroke-width: 1.5;" x1="23" x2="367" y1="319" y2="319"/><rect fill="#F24D5C" height="6" style="stroke: #C82930; stroke-width: 1.0;" width="6" x="30" y="327"/><text fill="#000000" font-family="sans-serif" font-size="11" lengthAdjust="spacingAndGlyphs" textLength="123" x="42" y="333.2104">InvoicePdfGenerator()</text><ellipse cx="33" cy="342.8047" fill="#84BE84" rx="3" ry="3" style="stroke: #038048; stroke-width: 1.0;"/><text fill="#000000" font-family="sans-serif" font-size="11" font-style="italic" lengthAdjust="spacingAndGlyphs" text-decoration="underline" textLength="320" x="42" y="346.0151">generatePdf(invoice: Object, document: Document): void</text><!--MD5=[c362928175655e4264c9af1ce1521cdc]
class pdf.PayslipPdfGenerator--><rect fill="#FEFECE" filter="url(#fgxc9d7uiwjpd)" height="73.6094" id="pdf.PayslipPdfGenerator" style="stroke: #A80036; stroke-width: 1.5;" width="348" x="403" y="279"/><ellipse cx="509.25" cy="295" fill="#ADD1B2" rx="11" ry="11" style="stroke: #A80036; stroke-width: 1.0;"/><path d="M512.2188,300.6406 Q511.6406,300.9375 511,301.0859 Q510.3594,301.2344 509.6563,301.2344 Q507.1563,301.2344 505.8359,299.5859 Q504.5156,297.9375 504.5156,294.8125 Q504.5156,291.6875 505.8359,290.0313 Q507.1563,288.375 509.6563,288.375 Q510.3594,288.375 511.0078,288.5313 Q511.6563,288.6875 512.2188,288.9844 L512.2188,291.7031 Q511.5938,291.125 511,290.8516 Q510.4063,290.5781 509.7813,290.5781 Q508.4375,290.5781 507.75,291.6484 Q507.0625,292.7188 507.0625,294.8125 Q507.0625,296.9063 507.75,297.9766 Q508.4375,299.0469 509.7813,299.0469 Q510.4063,299.0469 511,298.7734 Q511.5938,298.5 512.2188,297.9219 L512.2188,300.6406 Z "/><text fill="#000000" font-family="sans-serif" font-size="12" lengthAdjust="spacingAndGlyphs" textLength="127" x="529.75" y="299.1543">PayslipPdfGenerator</text><line style="stroke: #A80036; stroke-width: 1.5;" x1="404" x2="750" y1="311" y2="311"/><line style="stroke: #A80036; stroke-width: 1.5;" x1="404" x2="750" y1="319" y2="319"/><rect fill="#F24D5C" height="6" style="stroke: #C82930; stroke-width: 1.0;" width="6" x="411" y="327"/><text fill="#000000" font-family="sans-serif" font-size="11" lengthAdjust="spacingAndGlyphs" textLength="123" x="423" y="333.2104">InvoicePdfGenerator()</text><ellipse cx="414" cy="342.8047" fill="#84BE84" rx="3" ry="3" style="stroke: #038048; stroke-width: 1.0;"/><text fill="#000000" font-family="sans-serif" font-size="11" font-style="italic" lengthAdjust="spacingAndGlyphs" text-decoration="underline" textLength="322" x="423" y="346.0151">generatePdf(paySlip: Object, document: Document): void</text><!--MD5=[519c58c64e6946420ce6bda5eebbbfe1]
class org.springframework.AbstractView--><rect fill="#FEFECE" filter="url(#fgxc9d7uiwjpd)" height="48" id="org.springframework.AbstractView" style="stroke: #A80036; stroke-width: 1.5;" width="113" x="890.5" y="170"/><ellipse cx="905.5" cy="186" fill="#ADD1B2" rx="11" ry="11" style="stroke: #A80036; stroke-width: 1.0;"/><path d="M908.4688,191.6406 Q907.8906,191.9375 907.25,192.0859 Q906.6094,192.2344 905.9063,192.2344 Q903.4063,192.2344 902.0859,190.5859 Q900.7656,188.9375 900.7656,185.8125 Q900.7656,182.6875 902.0859,181.0313 Q903.4063,179.375 905.9063,179.375 Q906.6094,179.375 907.2578,179.5313 Q907.9063,179.6875 908.4688,179.9844 L908.4688,182.7031 Q907.8438,182.125 907.25,181.8516 Q906.6563,181.5781 906.0313,181.5781 Q904.6875,181.5781 904,182.6484 Q903.3125,183.7188 903.3125,185.8125 Q903.3125,187.9063 904,188.9766 Q904.6875,190.0469 906.0313,190.0469 Q906.6563,190.0469 907.25,189.7734 Q907.8438,189.5 908.4688,188.9219 L908.4688,191.6406 Z "/><text fill="#000000" font-family="sans-serif" font-size="12" lengthAdjust="spacingAndGlyphs" textLength="81" x="919.5" y="190.1543">AbstractView</text><line style="stroke: #A80036; stroke-width: 1.5;" x1="891.5" x2="1002.5" y1="202" y2="202"/><line style="stroke: #A80036; stroke-width: 1.5;" x1="891.5" x2="1002.5" y1="210" y2="210"/><!--MD5=[c8d127510e6c9a58832c4847eaf60c45]
reverse link org.springframework.AbstractView to pdf.PdfView--><path d="M908.8535,232.4617 C889.5296,251.9453 866.6653,274.9986 849.856,291.9468 " fill="none" id="org.springframework.AbstractView&lt;-pdf.PdfView" style="stroke: #A80036; stroke-width: 1.0;"/><polygon fill="none" points="904.0404,227.3742,923.0943,218.1033,913.9805,237.2329,904.0404,227.3742" style="stroke: #A80036; stroke-width: 1.0;"/><!--MD5=[29e9d348ec2eba7bf00b31794d7521e1]
reverse link pdf.PdfGenerator to pdf.PdfView--><path d="M612.1359,107.7187 C663.1674,157.418 756.5484,248.3614 801.0873,291.7376 " fill="none" id="pdf.PdfGenerator&lt;-pdf.PdfView" style="stroke: #A80036; stroke-width: 1.0; stroke-dasharray: 7.0,7.0;"/><polygon fill="#A80036" points="608.536,104.2128,612.1929,113.3576,612.118,107.7012,617.7744,107.6264,608.536,104.2128" style="stroke: #A80036; stroke-width: 1.0;"/><text fill="#000000" font-family="sans-serif" font-size="13" lengthAdjust="spacingAndGlyphs" textLength="23" x="734" y="198.5669">use</text><!--MD5=[2f22b29c3fd51f8c480ad19b69431197]
reverse link pdf.PdfGenerator to pdf.InvoicePdfGenerator--><path d="M511.6229,115.0025 C439.1301,161.0221 323.2533,234.5826 253.6059,278.796 " fill="none" id="pdf.PdfGenerator&lt;-pdf.InvoicePdfGenerator" style="stroke: #A80036; stroke-width: 1.0; stroke-dasharray: 7.0,7.0;"/><polygon fill="none" points="507.9827,109.022,528.6194,104.2128,515.486,120.8415,507.9827,109.022" style="stroke: #A80036; stroke-width: 1.0;"/><!--MD5=[a70ed72749977a9893c42352e60562ca]
reverse link pdf.PdfGenerator to pdf.PayslipPdfGenerator--><path d="M577,124.3896 C577,170.5383 577,237.4803 577,278.796 " fill="none" id="pdf.PdfGenerator&lt;-pdf.PayslipPdfGenerator" style="stroke: #A80036; stroke-width: 1.0; stroke-dasharray: 7.0,7.0;"/><polygon fill="none" points="570.0001,124.2128,577,104.2128,584.0001,124.2128,570.0001,124.2128" style="stroke: #A80036; stroke-width: 1.0;"/><!--MD5=[a7a587aa37ff8215bcb865e3fee3ac9f]
@startuml


namespace pdf {

    org.springframework.AbstractView <|- - PdfView
    PdfGenerator <.. PdfView : "use"
    class PdfView {

    }

    interface PdfGenerator {
        + {abstract} {static} generatePdf(o: Object, document: Document): void
    }


    PdfGenerator <|.. InvoicePdfGenerator
    class InvoicePdfGenerator {
        - InvoicePdfGenerator()
        + {abstract} {static} generatePdf(invoice: Object, document: Document): void
    }

    PdfGenerator <|.. PayslipPdfGenerator
    class PayslipPdfGenerator {
         - InvoicePdfGenerator()
         + {abstract} {static} generatePdf(paySlip: Object, document: Document): void
    }


}
@enduml

PlantUML version 1.2019.11(Sun Sep 22 10:02:15 UTC 2019)
(GPL source distribution)
Java Runtime: OpenJDK Runtime Environment
JVM: OpenJDK 64-Bit Server VM
Java Version: 1.8.0_222-heroku-b10
Operating System: Linux
Default Encoding: UTF-8
Language: en
Country: US
--></g></svg>