<?xml version="1.0" encoding="UTF-8" standalone="no"?><svg xmlns="http://www.w3.org/2000/svg" xmlns:xlink="http://www.w3.org/1999/xlink" contentScriptType="application/ecmascript" contentStyleType="text/css" height="1198px" preserveAspectRatio="none" style="width:851px;height:1198px;" version="1.1" viewBox="0 0 851 1198" width="851px" zoomAndPan="magnify"><defs><filter height="300%" id="f1mj0qh2qelc4s" width="300%" x="-1" y="-1"><feGaussianBlur result="blurOut" stdDeviation="2.0"/><feColorMatrix in="blurOut" result="blurOut2" type="matrix" values="0 0 0 0 0 0 0 0 0 0 0 0 0 0 0 0 0 0 .4 0"/><feOffset dx="4.0" dy="4.0" in="blurOut2" result="blurOut3"/><feBlend in="SourceGraphic" in2="blurOut3" mode="normal"/></filter></defs><g><!--MD5=[b63e7e062936c5e8c2d63b2e2f887b61]
cluster staff--><rect fill="#FFFFFF" filter="url(#f1mj0qh2qelc4s)" height="1041" style="stroke: #000000; stroke-width: 1.5;" width="817" x="14" y="146"/><text fill="#000000" font-family="sans-serif" font-size="14" font-weight="bold" lengthAdjust="spacingAndGlyphs" textLength="36" x="404.5" y="160.9951">staff</text><!--MD5=[76329084e95bf405c678c27aad9e079d]
cluster roster--><rect fill="#FFFFFF" filter="url(#f1mj0qh2qelc4s)" height="83" style="stroke: #000000; stroke-width: 1.5;" width="122" x="718" y="16"/><text fill="#000000" font-family="sans-serif" font-size="14" font-weight="bold" lengthAdjust="spacingAndGlyphs" textLength="49" x="754.5" y="30.9951">roster</text><!--MD5=[0d7c8074a451d2da181e40c3bf2c06e0]
class StaffRole--><rect fill="#FEFECE" filter="url(#f1mj0qh2qelc4s)" height="73.6094" id="StaffRole" style="stroke: #A80036; stroke-width: 1.5;" width="88" x="735" y="262.5"/><ellipse cx="750" cy="278.5" fill="#EB937F" rx="11" ry="11" style="stroke: #A80036; stroke-width: 1.0;"/><path d="M754.1094,284.5 L746.3906,284.5 L746.3906,272.1094 L754.1094,272.1094 L754.1094,274.2656 L748.8438,274.2656 L748.8438,276.9375 L753.6094,276.9375 L753.6094,279.0938 L748.8438,279.0938 L748.8438,282.3438 L754.1094,282.3438 L754.1094,284.5 Z "/><text fill="#000000" font-family="sans-serif" font-size="12" lengthAdjust="spacingAndGlyphs" textLength="56" x="764" y="282.6543">StaffRole</text><line style="stroke: #A80036; stroke-width: 1.5;" x1="736" x2="822" y1="294.5" y2="294.5"/><text fill="#000000" font-family="sans-serif" font-size="11" lengthAdjust="spacingAndGlyphs" textLength="50" x="741" y="308.7104">TRAINER,</text><text fill="#000000" font-family="sans-serif" font-size="11" lengthAdjust="spacingAndGlyphs" textLength="54" x="741" y="321.5151">COUNTER</text><line style="stroke: #A80036; stroke-width: 1.5;" x1="736" x2="822" y1="328.1094" y2="328.1094"/><!--MD5=[a16ce4af3c9a29972b127865a930f52d]
class StaffRepository--><rect fill="#FEFECE" filter="url(#f1mj0qh2qelc4s)" height="86.4141" id="StaffRepository" style="stroke: #A80036; stroke-width: 1.5;" width="385" x="250.5" y="842"/><ellipse cx="391.25" cy="858" fill="#B4A7E5" rx="11" ry="11" style="stroke: #A80036; stroke-width: 1.0;"/><path d="M387.1719,853.7656 L387.1719,851.6094 L394.5625,851.6094 L394.5625,853.7656 L392.0938,853.7656 L392.0938,861.8438 L394.5625,861.8438 L394.5625,864 L387.1719,864 L387.1719,861.8438 L389.6406,861.8438 L389.6406,853.7656 L387.1719,853.7656 Z "/><text fill="#000000" font-family="sans-serif" font-size="12" font-style="italic" lengthAdjust="spacingAndGlyphs" textLength="95" x="411.75" y="862.1543">StaffRepository</text><line style="stroke: #A80036; stroke-width: 1.5;" x1="251.5" x2="634.5" y1="874" y2="874"/><line style="stroke: #A80036; stroke-width: 1.5;" x1="251.5" x2="634.5" y1="882" y2="882"/><ellipse cx="261.5" cy="893" fill="#84BE84" rx="3" ry="3" style="stroke: #038048; stroke-width: 1.0;"/><text fill="#000000" font-family="sans-serif" font-size="11" lengthAdjust="spacingAndGlyphs" textLength="359" x="270.5" y="896.2104">findByUserAccount(userAccount: UserAccount):Optional&lt;Staff&gt;</text><ellipse cx="261.5" cy="905.8047" fill="#84BE84" rx="3" ry="3" style="stroke: #038048; stroke-width: 1.0;"/><text fill="#000000" font-family="sans-serif" font-size="11" lengthAdjust="spacingAndGlyphs" textLength="217" x="270.5" y="909.0151">findById(staffId: long):Optional&lt;Staff&gt;</text><ellipse cx="261.5" cy="918.6094" fill="#84BE84" rx="3" ry="3" style="stroke: #038048; stroke-width: 1.0;"/><text fill="#000000" font-family="sans-serif" font-size="11" lengthAdjust="spacingAndGlyphs" textLength="157" x="270.5" y="921.8198">findAll():Streamable&lt;Staff&gt;</text><!--MD5=[6081a303407aa0c0464c8b50c38f5612]
class Staff--><rect fill="#FEFECE" filter="url(#f1mj0qh2qelc4s)" height="112.0234" id="Staff" style="stroke: #A80036; stroke-width: 1.5;" width="182" x="484" y="1067"/><ellipse cx="556.25" cy="1083" fill="#ADD1B2" rx="11" ry="11" style="stroke: #A80036; stroke-width: 1.0;"/><path d="M559.2188,1088.6406 Q558.6406,1088.9375 558,1089.0859 Q557.3594,1089.2344 556.6563,1089.2344 Q554.1563,1089.2344 552.8359,1087.5859 Q551.5156,1085.9375 551.5156,1082.8125 Q551.5156,1079.6875 552.8359,1078.0313 Q554.1563,1076.375 556.6563,1076.375 Q557.3594,1076.375 558.0078,1076.5313 Q558.6563,1076.6875 559.2188,1076.9844 L559.2188,1079.7031 Q558.5938,1079.125 558,1078.8516 Q557.4063,1078.5781 556.7813,1078.5781 Q555.4375,1078.5781 554.75,1079.6484 Q554.0625,1080.7188 554.0625,1082.8125 Q554.0625,1084.9063 554.75,1085.9766 Q555.4375,1087.0469 556.7813,1087.0469 Q557.4063,1087.0469 558,1086.7734 Q558.5938,1086.5 559.2188,1085.9219 L559.2188,1088.6406 Z "/><text fill="#000000" font-family="sans-serif" font-size="12" lengthAdjust="spacingAndGlyphs" textLength="29" x="576.75" y="1087.1543">Staff</text><line style="stroke: #A80036; stroke-width: 1.5;" x1="485" x2="665" y1="1099" y2="1099"/><rect fill="none" height="6" style="stroke: #C82930; stroke-width: 1.0;" width="6" x="492" y="1107"/><text fill="#000000" font-family="sans-serif" font-size="11" lengthAdjust="spacingAndGlyphs" textLength="68" x="504" y="1113.2104">staffId: long</text><rect fill="none" height="6" style="stroke: #C82930; stroke-width: 1.0;" width="6" x="492" y="1119.8047"/><text fill="#000000" font-family="sans-serif" font-size="11" lengthAdjust="spacingAndGlyphs" textLength="79" x="504" y="1126.0151">salary: Money</text><rect fill="none" height="6" style="stroke: #C82930; stroke-width: 1.0;" width="6" x="492" y="1132.6094"/><text fill="#000000" font-family="sans-serif" font-size="11" lengthAdjust="spacingAndGlyphs" textLength="149" x="504" y="1138.8198">userAccount: UserAccount</text><rect fill="none" height="6" style="stroke: #C82930; stroke-width: 1.0;" width="6" x="492" y="1145.4141"/><text fill="#000000" font-family="sans-serif" font-size="11" lengthAdjust="spacingAndGlyphs" textLength="116" x="504" y="1151.6245">startDate: LocalDate</text><line style="stroke: #A80036; stroke-width: 1.5;" x1="485" x2="665" y1="1158.2188" y2="1158.2188"/><ellipse cx="495" cy="1169.2188" fill="#84BE84" rx="3" ry="3" style="stroke: #038048; stroke-width: 1.0;"/><text fill="#000000" font-family="sans-serif" font-size="11" lengthAdjust="spacingAndGlyphs" textLength="156" x="504" y="1172.4292">workedLastMonth():boolean</text><!--MD5=[9d8560ba64f09f0ef73a552e423ecfc8]
class StaffManagement--><rect fill="#FEFECE" filter="url(#f1mj0qh2qelc4s)" height="137.6328" id="StaffManagement" style="stroke: #A80036; stroke-width: 1.5;" width="385" x="437.5" y="565"/><ellipse cx="570.25" cy="581" fill="#ADD1B2" rx="11" ry="11" style="stroke: #A80036; stroke-width: 1.0;"/><path d="M573.2188,586.6406 Q572.6406,586.9375 572,587.0859 Q571.3594,587.2344 570.6563,587.2344 Q568.1563,587.2344 566.8359,585.5859 Q565.5156,583.9375 565.5156,580.8125 Q565.5156,577.6875 566.8359,576.0313 Q568.1563,574.375 570.6563,574.375 Q571.3594,574.375 572.0078,574.5313 Q572.6563,574.6875 573.2188,574.9844 L573.2188,577.7031 Q572.5938,577.125 572,576.8516 Q571.4063,576.5781 570.7813,576.5781 Q569.4375,576.5781 568.75,577.6484 Q568.0625,578.7188 568.0625,580.8125 Q568.0625,582.9063 568.75,583.9766 Q569.4375,585.0469 570.7813,585.0469 Q571.4063,585.0469 572,584.7734 Q572.5938,584.5 573.2188,583.9219 L573.2188,586.6406 Z "/><text fill="#000000" font-family="sans-serif" font-size="12" lengthAdjust="spacingAndGlyphs" textLength="111" x="590.75" y="585.1543">StaffManagement</text><line style="stroke: #A80036; stroke-width: 1.5;" x1="438.5" x2="821.5" y1="597" y2="597"/><line style="stroke: #A80036; stroke-width: 1.5;" x1="438.5" x2="821.5" y1="605" y2="605"/><ellipse cx="448.5" cy="616" fill="#84BE84" rx="3" ry="3" style="stroke: #038048; stroke-width: 1.0;"/><text fill="#000000" font-family="sans-serif" font-size="11" lengthAdjust="spacingAndGlyphs" textLength="146" x="457.5" y="619.2104">getAllStaffs(): List&lt;Staff&gt;</text><ellipse cx="448.5" cy="628.8047" fill="#84BE84" rx="3" ry="3" style="stroke: #038048; stroke-width: 1.0;"/><text fill="#000000" font-family="sans-serif" font-size="11" lengthAdjust="spacingAndGlyphs" textLength="282" x="457.5" y="632.0151">createStaff(form: StaffForm, result: Errors): Staff</text><ellipse cx="448.5" cy="641.6094" fill="#84BE84" rx="3" ry="3" style="stroke: #038048; stroke-width: 1.0;"/><text fill="#000000" font-family="sans-serif" font-size="11" lengthAdjust="spacingAndGlyphs" textLength="150" x="457.5" y="644.8198">saveStaff(staff: Staff):void</text><ellipse cx="448.5" cy="654.4141" fill="#84BE84" rx="3" ry="3" style="stroke: #038048; stroke-width: 1.0;"/><text fill="#000000" font-family="sans-serif" font-size="11" lengthAdjust="spacingAndGlyphs" textLength="143" x="457.5" y="657.6245">removeStaff(id:long):void</text><ellipse cx="448.5" cy="667.2188" fill="#84BE84" rx="3" ry="3" style="stroke: #038048; stroke-width: 1.0;"/><text fill="#000000" font-family="sans-serif" font-size="11" lengthAdjust="spacingAndGlyphs" textLength="359" x="457.5" y="670.4292">findByUserAccount(userAccount: UserAccount):Optional&lt;Staff&gt;</text><ellipse cx="448.5" cy="680.0234" fill="#84BE84" rx="3" ry="3" style="stroke: #038048; stroke-width: 1.0;"/><text fill="#000000" font-family="sans-serif" font-size="11" lengthAdjust="spacingAndGlyphs" textLength="217" x="457.5" y="683.2339">findById(staffId: long):Optional&lt;Staff&gt;</text><ellipse cx="448.5" cy="692.8281" fill="#84BE84" rx="3" ry="3" style="stroke: #038048; stroke-width: 1.0;"/><text fill="#000000" font-family="sans-serif" font-size="11" lengthAdjust="spacingAndGlyphs" textLength="195" x="457.5" y="696.0386">emailExists(email: String):boolean</text><!--MD5=[dc505ead361dc0592ef3ba9d329e1c26]
class StaffForm--><rect fill="#FEFECE" filter="url(#f1mj0qh2qelc4s)" height="48" id="StaffForm" style="stroke: #A80036; stroke-width: 1.5;" width="92" x="22" y="610"/><ellipse cx="37" cy="626" fill="#B4A7E5" rx="11" ry="11" style="stroke: #A80036; stroke-width: 1.0;"/><path d="M32.9219,621.7656 L32.9219,619.6094 L40.3125,619.6094 L40.3125,621.7656 L37.8438,621.7656 L37.8438,629.8438 L40.3125,629.8438 L40.3125,632 L32.9219,632 L32.9219,629.8438 L35.3906,629.8438 L35.3906,621.7656 L32.9219,621.7656 Z "/><text fill="#000000" font-family="sans-serif" font-size="12" font-style="italic" lengthAdjust="spacingAndGlyphs" textLength="60" x="51" y="630.1543">StaffForm</text><line style="stroke: #A80036; stroke-width: 1.5;" x1="23" x2="113" y1="642" y2="642"/><line style="stroke: #A80036; stroke-width: 1.5;" x1="23" x2="113" y1="650" y2="650"/><!--MD5=[126a2961a0b420751afa54185f5d8bc3]
class StaffDataInitializer--><rect fill="#FEFECE" filter="url(#f1mj0qh2qelc4s)" height="48" id="StaffDataInitializer" style="stroke: #A80036; stroke-width: 1.5;" width="145" x="554.5" y="275.5"/><ellipse cx="569.5" cy="291.5" fill="#ADD1B2" rx="11" ry="11" style="stroke: #A80036; stroke-width: 1.0;"/><path d="M572.4688,297.1406 Q571.8906,297.4375 571.25,297.5859 Q570.6094,297.7344 569.9063,297.7344 Q567.4063,297.7344 566.0859,296.0859 Q564.7656,294.4375 564.7656,291.3125 Q564.7656,288.1875 566.0859,286.5313 Q567.4063,284.875 569.9063,284.875 Q570.6094,284.875 571.2578,285.0313 Q571.9063,285.1875 572.4688,285.4844 L572.4688,288.2031 Q571.8438,287.625 571.25,287.3516 Q570.6563,287.0781 570.0313,287.0781 Q568.6875,287.0781 568,288.1484 Q567.3125,289.2188 567.3125,291.3125 Q567.3125,293.4063 568,294.4766 Q568.6875,295.5469 570.0313,295.5469 Q570.6563,295.5469 571.25,295.2734 Q571.8438,295 572.4688,294.4219 L572.4688,297.1406 Z "/><text fill="#000000" font-family="sans-serif" font-size="12" lengthAdjust="spacingAndGlyphs" textLength="113" x="583.5" y="295.6543">StaffDataInitializer</text><line style="stroke: #A80036; stroke-width: 1.5;" x1="555.5" x2="698.5" y1="307.5" y2="307.5"/><line style="stroke: #A80036; stroke-width: 1.5;" x1="555.5" x2="698.5" y1="315.5" y2="315.5"/><!--MD5=[156ca8b3d9c17b94fe1d53c2bcf7480e]
class StaffController--><rect fill="#FEFECE" filter="url(#f1mj0qh2qelc4s)" height="252.875" id="StaffController" style="stroke: #A80036; stroke-width: 1.5;" width="453" x="44.5" y="173"/><ellipse cx="221.75" cy="189" fill="#ADD1B2" rx="11" ry="11" style="stroke: #A80036; stroke-width: 1.0;"/><path d="M224.7188,194.6406 Q224.1406,194.9375 223.5,195.0859 Q222.8594,195.2344 222.1563,195.2344 Q219.6563,195.2344 218.3359,193.5859 Q217.0156,191.9375 217.0156,188.8125 Q217.0156,185.6875 218.3359,184.0313 Q219.6563,182.375 222.1563,182.375 Q222.8594,182.375 223.5078,182.5313 Q224.1563,182.6875 224.7188,182.9844 L224.7188,185.7031 Q224.0938,185.125 223.5,184.8516 Q222.9063,184.5781 222.2813,184.5781 Q220.9375,184.5781 220.25,185.6484 Q219.5625,186.7188 219.5625,188.8125 Q219.5625,190.9063 220.25,191.9766 Q220.9375,193.0469 222.2813,193.0469 Q222.9063,193.0469 223.5,192.7734 Q224.0938,192.5 224.7188,191.9219 L224.7188,194.6406 Z "/><text fill="#000000" font-family="sans-serif" font-size="12" lengthAdjust="spacingAndGlyphs" textLength="90" x="242.25" y="193.1543">StaffController</text><line style="stroke: #A80036; stroke-width: 1.5;" x1="45.5" x2="496.5" y1="205" y2="205"/><rect fill="none" height="6" style="stroke: #C82930; stroke-width: 1.0;" width="6" x="52.5" y="213"/><text fill="#000000" font-family="sans-serif" font-size="11" lengthAdjust="spacingAndGlyphs" text-decoration="underline" textLength="96" x="64.5" y="219.2104">REDIRECT: String</text><rect fill="none" height="6" style="stroke: #C82930; stroke-width: 1.0;" width="6" x="52.5" y="225.8047"/><text fill="#000000" font-family="sans-serif" font-size="11" lengthAdjust="spacingAndGlyphs" text-decoration="underline" textLength="135" x="64.5" y="232.0151">REDIRECT_HOME: String</text><rect fill="none" height="6" style="stroke: #C82930; stroke-width: 1.0;" width="6" x="52.5" y="238.6094"/><text fill="#000000" font-family="sans-serif" font-size="11" lengthAdjust="spacingAndGlyphs" text-decoration="underline" textLength="144" x="64.5" y="244.8198">REDIRECT_STAFFS: String</text><rect fill="none" height="6" style="stroke: #C82930; stroke-width: 1.0;" width="6" x="52.5" y="251.4141"/><text fill="#000000" font-family="sans-serif" font-size="11" lengthAdjust="spacingAndGlyphs" text-decoration="underline" textLength="87" x="64.5" y="257.6245">STATUS: String</text><rect fill="none" height="6" style="stroke: #C82930; stroke-width: 1.0;" width="6" x="52.5" y="264.2188"/><text fill="#000000" font-family="sans-serif" font-size="11" lengthAdjust="spacingAndGlyphs" text-decoration="underline" textLength="79" x="64.5" y="270.4292">ERROR: String</text><rect fill="none" height="6" style="stroke: #C82930; stroke-width: 1.0;" width="6" x="52.5" y="277.0234"/><text fill="#000000" font-family="sans-serif" font-size="11" lengthAdjust="spacingAndGlyphs" text-decoration="underline" textLength="84" x="64.5" y="283.2339">STAFFS: String</text><rect fill="none" height="6" style="stroke: #C82930; stroke-width: 1.0;" width="6" x="52.5" y="289.8281"/><text fill="#000000" font-family="sans-serif" font-size="11" lengthAdjust="spacingAndGlyphs" text-decoration="underline" textLength="76" x="64.5" y="296.0386">STAFF: String</text><line style="stroke: #A80036; stroke-width: 1.5;" x1="45.5" x2="496.5" y1="302.6328" y2="302.6328"/><ellipse cx="55.5" cy="313.6328" fill="#84BE84" rx="3" ry="3" style="stroke: #038048; stroke-width: 1.0;"/><text fill="#000000" font-family="sans-serif" font-size="11" lengthAdjust="spacingAndGlyphs" textLength="187" x="64.5" y="316.8433">getAllStaffs(model: Model):String</text><ellipse cx="55.5" cy="326.4375" fill="#84BE84" rx="3" ry="3" style="stroke: #038048; stroke-width: 1.0;"/><text fill="#000000" font-family="sans-serif" font-size="11" lengthAdjust="spacingAndGlyphs" textLength="203" x="64.5" y="329.6479">detail(id: long, model: Model):String</text><ellipse cx="55.5" cy="339.2422" fill="#84BE84" rx="3" ry="3" style="stroke: #038048; stroke-width: 1.0;"/><text fill="#000000" font-family="sans-serif" font-size="11" lengthAdjust="spacingAndGlyphs" textLength="354" x="64.5" y="342.4526">addStaff(model: Model, form: StaffForm, result: Errors):String</text><ellipse cx="55.5" cy="352.0469" fill="#84BE84" rx="3" ry="3" style="stroke: #038048; stroke-width: 1.0;"/><text fill="#000000" font-family="sans-serif" font-size="11" lengthAdjust="spacingAndGlyphs" textLength="216" x="64.5" y="355.2573">editStaff(id:long, model: Model):String</text><rect fill="#F24D5C" height="6" style="stroke: #C82930; stroke-width: 1.0;" width="6" x="52.5" y="361.8516"/><text fill="#000000" font-family="sans-serif" font-size="11" lengthAdjust="spacingAndGlyphs" textLength="249" x="64.5" y="368.062">getEditStaffForm(staff: Staff): EditStaffForm</text><ellipse cx="55.5" cy="377.6563" fill="#84BE84" rx="3" ry="3" style="stroke: #038048; stroke-width: 1.0;"/><text fill="#000000" font-family="sans-serif" font-size="11" lengthAdjust="spacingAndGlyphs" textLength="336" x="64.5" y="380.8667">editStaff(id:long, form: EditStaffForm, model: Model):String</text><ellipse cx="55.5" cy="390.4609" fill="#84BE84" rx="3" ry="3" style="stroke: #038048; stroke-width: 1.0;"/><text fill="#000000" font-family="sans-serif" font-size="11" lengthAdjust="spacingAndGlyphs" textLength="249" x="64.5" y="393.6714">editSalary(id:long, form: SalaryForm):String</text><ellipse cx="55.5" cy="403.2656" fill="#84BE84" rx="3" ry="3" style="stroke: #038048; stroke-width: 1.0;"/><text fill="#000000" font-family="sans-serif" font-size="11" lengthAdjust="spacingAndGlyphs" textLength="405" x="64.5" y="406.4761">getAccount(userAccount: Optional&lt;userAccount&gt;, model: Model):String</text><ellipse cx="55.5" cy="416.0703" fill="#84BE84" rx="3" ry="3" style="stroke: #038048; stroke-width: 1.0;"/><text fill="#000000" font-family="sans-serif" font-size="11" lengthAdjust="spacingAndGlyphs" textLength="427" x="64.5" y="419.2808">printPdfPayslip(userAccount: Optional&lt;userAccount&gt;, model: Model):String</text><!--MD5=[e9807227306e881e706d77d7b09ab015]
class SalaryForm--><rect fill="#FEFECE" filter="url(#f1mj0qh2qelc4s)" height="48" id="SalaryForm" style="stroke: #A80036; stroke-width: 1.5;" width="101" x="149.5" y="610"/><ellipse cx="164.5" cy="626" fill="#B4A7E5" rx="11" ry="11" style="stroke: #A80036; stroke-width: 1.0;"/><path d="M160.4219,621.7656 L160.4219,619.6094 L167.8125,619.6094 L167.8125,621.7656 L165.3438,621.7656 L165.3438,629.8438 L167.8125,629.8438 L167.8125,632 L160.4219,632 L160.4219,629.8438 L162.8906,629.8438 L162.8906,621.7656 L160.4219,621.7656 Z "/><text fill="#000000" font-family="sans-serif" font-size="12" font-style="italic" lengthAdjust="spacingAndGlyphs" textLength="69" x="178.5" y="630.1543">SalaryForm</text><line style="stroke: #A80036; stroke-width: 1.5;" x1="150.5" x2="249.5" y1="642" y2="642"/><line style="stroke: #A80036; stroke-width: 1.5;" x1="150.5" x2="249.5" y1="650" y2="650"/><!--MD5=[2144a3fe486ddaece6f4676b024026b2]
class EditStaffForm--><rect fill="#FEFECE" filter="url(#f1mj0qh2qelc4s)" height="48" id="EditStaffForm" style="stroke: #A80036; stroke-width: 1.5;" width="116" x="286" y="610"/><ellipse cx="301" cy="626" fill="#B4A7E5" rx="11" ry="11" style="stroke: #A80036; stroke-width: 1.0;"/><path d="M296.9219,621.7656 L296.9219,619.6094 L304.3125,619.6094 L304.3125,621.7656 L301.8438,621.7656 L301.8438,629.8438 L304.3125,629.8438 L304.3125,632 L296.9219,632 L296.9219,629.8438 L299.3906,629.8438 L299.3906,621.7656 L296.9219,621.7656 Z "/><text fill="#000000" font-family="sans-serif" font-size="12" font-style="italic" lengthAdjust="spacingAndGlyphs" textLength="84" x="315" y="630.1543">EditStaffForm</text><line style="stroke: #A80036; stroke-width: 1.5;" x1="287" x2="401" y1="642" y2="642"/><line style="stroke: #A80036; stroke-width: 1.5;" x1="287" x2="401" y1="650" y2="650"/><!--MD5=[75a98df0b26c4643f5513f6f84623050]
class RosterEntry--><rect fill="#FEFECE" filter="url(#f1mj0qh2qelc4s)" height="48" id="RosterEntry" style="stroke: #A80036; stroke-width: 1.5;" width="105" x="726.5" y="43"/><ellipse cx="741.5" cy="59" fill="#ADD1B2" rx="11" ry="11" style="stroke: #A80036; stroke-width: 1.0;"/><path d="M744.4688,64.6406 Q743.8906,64.9375 743.25,65.0859 Q742.6094,65.2344 741.9063,65.2344 Q739.4063,65.2344 738.0859,63.5859 Q736.7656,61.9375 736.7656,58.8125 Q736.7656,55.6875 738.0859,54.0313 Q739.4063,52.375 741.9063,52.375 Q742.6094,52.375 743.2578,52.5313 Q743.9063,52.6875 744.4688,52.9844 L744.4688,55.7031 Q743.8438,55.125 743.25,54.8516 Q742.6563,54.5781 742.0313,54.5781 Q740.6875,54.5781 740,55.6484 Q739.3125,56.7188 739.3125,58.8125 Q739.3125,60.9063 740,61.9766 Q740.6875,63.0469 742.0313,63.0469 Q742.6563,63.0469 743.25,62.7734 Q743.8438,62.5 744.4688,61.9219 L744.4688,64.6406 Z "/><text fill="#000000" font-family="sans-serif" font-size="12" lengthAdjust="spacingAndGlyphs" textLength="73" x="755.5" y="63.1543">RosterEntry</text><line style="stroke: #A80036; stroke-width: 1.5;" x1="727.5" x2="830.5" y1="75" y2="75"/><line style="stroke: #A80036; stroke-width: 1.5;" x1="727.5" x2="830.5" y1="83" y2="83"/><!--MD5=[6ea55d36decb586f6f5eda98dc418195]
link StaffRepository to Staff--><path d="M466.9042,928.1 C487.6921,965.5813 518.0425,1020.3039 541.2953,1062.2293 " fill="none" id="StaffRepository-&gt;Staff" style="stroke: #A80036; stroke-width: 1.0; stroke-dasharray: 7.0,7.0;"/><polygon fill="#A80036" points="543.808,1066.7598,542.9407,1056.9492,541.3828,1062.3873,535.9447,1060.8295,543.808,1066.7598" style="stroke: #A80036; stroke-width: 1.0;"/><text fill="#000000" font-family="sans-serif" font-size="13" lengthAdjust="spacingAndGlyphs" textLength="39" x="511" y="1002.0669">«use»</text><!--MD5=[d9b020714a6dedc3b858d57f3deac809]
reverse link StaffManagement to StaffRepository--><path d="M570.5022,713.8607 C538.8606,756.3315 501.2044,806.8753 475.0551,841.9742 " fill="none" id="StaffManagement&lt;-StaffRepository" style="stroke: #A80036; stroke-width: 1.0;"/><polygon fill="#FFFFFF" points="578.4064,703.2513,571.6141,705.673,571.2371,712.8743,578.0294,710.4525,578.4064,703.2513" style="stroke: #A80036; stroke-width: 1.0;"/><rect fill="none" height="6" style="stroke: #C82930; stroke-width: 1.0;" width="6" x="535" y="770.0664"/><text fill="#000000" font-family="sans-serif" font-size="13" lengthAdjust="spacingAndGlyphs" textLength="60" x="545" y="777.0669">staffRepo</text><text fill="#000000" font-family="sans-serif" font-size="13" lengthAdjust="spacingAndGlyphs" textLength="8" x="471.5264" y="830.9661">1</text><!--MD5=[cb2ad10f0e6cfe105ccd43178a8b3082]
link StaffManagement to Staff--><path d="M685.0315,703.1132 C696.9172,724.184 706,748.2268 706,772.5 C706,772.5 706,772.5 706,997.5 C706,1025.2229 690.5129,1048.7185 670.1888,1067.6163 " fill="none" id="StaffManagement-&gt;Staff" style="stroke: #A80036; stroke-width: 1.0; stroke-dasharray: 7.0,7.0;"/><polygon fill="#A80036" points="666.3402,1071.0914,675.7007,1068.0286,670.0512,1067.7405,670.3393,1062.091,666.3402,1071.0914" style="stroke: #A80036; stroke-width: 1.0;"/><text fill="#000000" font-family="sans-serif" font-size="13" lengthAdjust="spacingAndGlyphs" textLength="39" x="707" y="889.5669">«use»</text><!--MD5=[56a867370e87d1b145ca3f626e78cbd3]
reverse link StaffDataInitializer to StaffManagement--><path d="M627.3342,336.7629 C627.8278,391.8053 628.7604,495.7806 629.3811,564.9893 " fill="none" id="StaffDataInitializer&lt;-StaffManagement" style="stroke: #A80036; stroke-width: 1.0;"/><polygon fill="#FFFFFF" points="627.2158,323.5564,623.2698,329.592,627.3234,335.5559,631.2694,329.5203,627.2158,323.5564" style="stroke: #A80036; stroke-width: 1.0;"/><rect fill="none" height="6" style="stroke: #C82930; stroke-width: 1.0;" width="6" x="631" y="493.0664"/><text fill="#000000" font-family="sans-serif" font-size="13" lengthAdjust="spacingAndGlyphs" textLength="35" x="641" y="500.0669">staffs</text><text fill="#000000" font-family="sans-serif" font-size="13" lengthAdjust="spacingAndGlyphs" textLength="8" x="620.8759" y="553.7152">1</text><!--MD5=[271e9372788eb51127037c33a4675aa1]
link StaffController to StaffForm--><path d="M193.9649,426.4371 C154.4093,491.6162 109.5823,565.4814 85.5126,605.1431 " fill="none" id="StaffController-&gt;StaffForm" style="stroke: #A80036; stroke-width: 1.0; stroke-dasharray: 7.0,7.0;"/><polygon fill="#A80036" points="82.6819,609.8074,90.7707,604.1886,85.2759,605.5329,83.9316,600.0381,82.6819,609.8074" style="stroke: #A80036; stroke-width: 1.0;"/><text fill="#000000" font-family="sans-serif" font-size="13" lengthAdjust="spacingAndGlyphs" textLength="39" x="157" y="500.0669">«use»</text><!--MD5=[24be8b58af804718882a49a5501b927f]
link StaffController to SalaryForm--><path d="M243.0811,426.0254 C238.6571,446.4032 234.1688,467.2764 230,487 C221.3694,527.8329 211.7901,575.1386 205.8307,604.8181 " fill="none" id="StaffController-&gt;SalaryForm" style="stroke: #A80036; stroke-width: 1.0; stroke-dasharray: 7.0,7.0;"/><polygon fill="#A80036" points="204.8336,609.7874,210.5261,601.7503,205.8173,604.8851,202.6825,600.1763,204.8336,609.7874" style="stroke: #A80036; stroke-width: 1.0;"/><text fill="#000000" font-family="sans-serif" font-size="13" lengthAdjust="spacingAndGlyphs" textLength="39" x="231" y="500.0669">«use»</text><!--MD5=[92327ba23bf6c7b64701ba760d0297f2]
link StaffController to EditStaffForm--><path d="M298.7023,426.4371 C312.8689,491.3513 328.9157,564.881 337.5965,604.6577 " fill="none" id="StaffController-&gt;EditStaffForm" style="stroke: #A80036; stroke-width: 1.0; stroke-dasharray: 7.0,7.0;"/><polygon fill="#A80036" points="338.7203,609.8074,340.7092,600.1615,337.6542,604.9224,332.8932,601.8673,338.7203,609.8074" style="stroke: #A80036; stroke-width: 1.0;"/><text fill="#000000" font-family="sans-serif" font-size="13" lengthAdjust="spacingAndGlyphs" textLength="39" x="316" y="500.0669">«use»</text><!--MD5=[0cece53d67595b464627614a8c967acd]
reverse link StaffController to StaffManagement--><path d="M416.5017,435.0719 C464.3624,479.6663 515.5702,527.3795 555.8351,564.8965 " fill="none" id="StaffController&lt;-StaffManagement" style="stroke: #A80036; stroke-width: 1.0;"/><polygon fill="#FFFFFF" points="406.9784,426.1985,408.6413,433.2152,415.7579,434.379,414.095,427.3622,406.9784,426.1985" style="stroke: #A80036; stroke-width: 1.0;"/><rect fill="none" height="6" style="stroke: #C82930; stroke-width: 1.0;" width="6" x="492" y="493.0664"/><text fill="#000000" font-family="sans-serif" font-size="13" lengthAdjust="spacingAndGlyphs" textLength="113" x="502" y="500.0669">staffManagement</text><text fill="#000000" font-family="sans-serif" font-size="13" lengthAdjust="spacingAndGlyphs" textLength="8" x="539.7743" y="554.0894">1</text><!--MD5=[a80cce29eb5097b536322c530066a5c7]
reverse link RosterEntry to StaffRole--><path d="M779,104.0307 C779,147.4028 779,218.8349 779,262.2859 " fill="none" id="RosterEntry&lt;-StaffRole" style="stroke: #A80036; stroke-width: 1.0;"/><polygon fill="#FFFFFF" points="779,91.0059,775,97.0059,779,103.0059,783,97.0059,779,91.0059" style="stroke: #A80036; stroke-width: 1.0;"/><rect fill="none" height="6" style="stroke: #C82930; stroke-width: 1.0;" width="6" x="782" y="127.0664"/><text fill="#000000" font-family="sans-serif" font-size="13" lengthAdjust="spacingAndGlyphs" textLength="24" x="792" y="134.0669">role</text><text fill="#000000" font-family="sans-serif" font-size="13" lengthAdjust="spacingAndGlyphs" textLength="8" x="770.2875" y="251.4347">1</text><!--MD5=[f7597e82161a23787bf546f7acdd0297]
@startuml
package staff <<Rectangle>> {
   enum StaffRole {
   TRAINER,
   COUNTER
   }
   
   StaffRepository ..> Staff: <<use>>
   interface StaffRepository {
   + findByUserAccount(userAccount: UserAccount):Optional<Staff>
   + findById(staffId: long):Optional<Staff>
   + findAll():Streamable<Staff>
   }
   
   StaffManagement o- - "1" StaffRepository: -staffRepo
   StaffManagement ..> Staff: <<use>>
   class StaffManagement{
   + getAllStaffs(): List<Staff>
   + createStaff(form: StaffForm, result: Errors): Staff
   + saveStaff(staff: Staff):void
   + removeStaff(id:long):void
   + findByUserAccount(userAccount: UserAccount):Optional<Staff>
   + findById(staffId: long):Optional<Staff>
   + emailExists(email: String):boolean
  
   }
   
   interface StaffForm {
   }
   
   StaffDataInitializer o- - "1" StaffManagement: -staffs
   class StaffDataInitializer {
   }
   
   
   StaffController ..> StaffForm: <<use>>
   StaffController ..> SalaryForm: <<use>>
   StaffController ..> EditStaffForm: <<use>>
   StaffController o- - "1" StaffManagement: -staffManagement
   class StaffController {
   - {static} REDIRECT: String
   - {static} REDIRECT_HOME: String
   - {static} REDIRECT_STAFFS: String
   - {static} STATUS: String
   - {static} ERROR: String
   - {static} STAFFS: String
   - {static} STAFF: String
   +getAllStaffs(model: Model):String
   +detail(id: long, model: Model):String
   +addStaff(model: Model, form: StaffForm, result: Errors):String
   +editStaff(id:long, model: Model):String
   -getEditStaffForm(staff: Staff): EditStaffForm
   +editStaff(id:long, form: EditStaffForm, model: Model):String
   +editSalary(id:long, form: SalaryForm):String
   +getAccount(userAccount: Optional<userAccount>, model: Model):String
   +printPdfPayslip(userAccount: Optional<userAccount>, model: Model):String
   }
   
   class Staff {
   - staffId: long
   - salary: Money
   - userAccount: UserAccount
   - startDate: LocalDate
   
   + workedLastMonth():boolean
   
   }
   
   interface SalaryForm {
   }
   
   interface EditStaffForm {
   }
}

package roster <<Rectangle>> {
RosterEntry o- - "1" StaffRole: -role
class RosterEntry {
    }
}
@enduml

PlantUML version 1.2019.11(Sun Sep 22 10:02:15 UTC 2019)
(GPL source distribution)
Java Runtime: OpenJDK Runtime Environment
JVM: OpenJDK 64-Bit Server VM
Java Version: 1.8.0_222-heroku-b10
Operating System: Linux
Default Encoding: UTF-8
Language: en
Country: US
--></g></svg>