<?xml version="1.0" encoding="UTF-8" standalone="no"?><svg xmlns="http://www.w3.org/2000/svg" xmlns:xlink="http://www.w3.org/1999/xlink" contentScriptType="application/ecmascript" contentStyleType="text/css" height="1962px" preserveAspectRatio="none" style="width:1572px;height:1962px;" version="1.1" viewBox="0 0 1572 1962" width="1572px" zoomAndPan="magnify"><defs><filter height="300%" id="fspne1m2ir78m" width="300%" x="-1" y="-1"><feGaussianBlur result="blurOut" stdDeviation="2.0"/><feColorMatrix in="blurOut" result="blurOut2" type="matrix" values="0 0 0 0 0 0 0 0 0 0 0 0 0 0 0 0 0 0 .4 0"/><feOffset dx="4.0" dy="4.0" in="blurOut2" result="blurOut3"/><feBlend in="SourceGraphic" in2="blurOut3" mode="normal"/></filter></defs><g><!--MD5=[f2453e29342a33cb614be87526b9158a]
cluster StaffManagement--><polygon fill="#FFFFFF" filter="url(#fspne1m2ir78m)" points="206,16,350,16,357,38.2969,1172,38.2969,1172,1950,206,1950,206,16" style="stroke: #000000; stroke-width: 1.5;"/><line style="stroke: #000000; stroke-width: 1.5;" x1="206" x2="357" y1="38.2969" y2="38.2969"/><text fill="#000000" font-family="sans-serif" font-size="14" font-weight="bold" lengthAdjust="spacingAndGlyphs" textLength="138" x="210" y="30.9951">StaffManagement</text><!--MD5=[380732c4a8fe84f56d0f4b3aee75acdc]
cluster org.javamoney.moneta--><polygon fill="#FFFFFF" filter="url(#fspne1m2ir78m)" points="1180,1238,1366,1238,1373,1260.2969,1376,1260.2969,1376,1321,1180,1321,1180,1238" style="stroke: #000000; stroke-width: 1.5;"/><line style="stroke: #000000; stroke-width: 1.5;" x1="1180" x2="1373" y1="1260.2969" y2="1260.2969"/><text fill="#000000" font-family="sans-serif" font-size="14" font-weight="bold" lengthAdjust="spacingAndGlyphs" textLength="180" x="1184" y="1252.9951">org.javamoney.moneta</text><!--MD5=[3da828b9b37b0c93dfffc4a83af72dd6]
cluster AdminManagement--><polygon fill="#FFFFFF" filter="url(#fspne1m2ir78m)" points="1384,1238,1540,1238,1547,1260.2969,1550,1260.2969,1550,1321,1384,1321,1384,1238" style="stroke: #000000; stroke-width: 1.5;"/><line style="stroke: #000000; stroke-width: 1.5;" x1="1384" x2="1547" y1="1260.2969" y2="1260.2969"/><text fill="#000000" font-family="sans-serif" font-size="14" font-weight="bold" lengthAdjust="spacingAndGlyphs" textLength="150" x="1388" y="1252.9951">AdminManagement</text><!--MD5=[9ca56f5037b2e168e4ddf06d173d6028]
cluster pdf--><polygon fill="#FFFFFF" filter="url(#fspne1m2ir78m)" points="1180,1503,1212,1503,1219,1525.2969,1312,1525.2969,1312,1586,1180,1586,1180,1503" style="stroke: #000000; stroke-width: 1.5;"/><line style="stroke: #000000; stroke-width: 1.5;" x1="1180" x2="1219" y1="1525.2969" y2="1525.2969"/><text fill="#000000" font-family="sans-serif" font-size="14" font-weight="bold" lengthAdjust="spacingAndGlyphs" textLength="26" x="1184" y="1517.9951">pdf</text><!--MD5=[5ede147e9e122c363c3337daa7824069]
cluster java.time--><polygon fill="#FFFFFF" filter="url(#fspne1m2ir78m)" points="1180,681,1256,681,1263,703.2969,1449,703.2969,1449,764,1180,764,1180,681" style="stroke: #000000; stroke-width: 1.5;"/><line style="stroke: #000000; stroke-width: 1.5;" x1="1180" x2="1263" y1="703.2969" y2="703.2969"/><text fill="#000000" font-family="sans-serif" font-size="14" font-weight="bold" lengthAdjust="spacingAndGlyphs" textLength="70" x="1184" y="695.9951">java.time</text><!--MD5=[3f3ae92c4528f2c210b4fb635b667fbf]
cluster org.springframework--><polygon fill="#FFFFFF" filter="url(#fspne1m2ir78m)" points="14,432,188,432,195,454.2969,198,454.2969,198,515,14,515,14,432" style="stroke: #000000; stroke-width: 1.5;"/><line style="stroke: #000000; stroke-width: 1.5;" x1="14" x2="195" y1="454.2969" y2="454.2969"/><text fill="#000000" font-family="sans-serif" font-size="14" font-weight="bold" lengthAdjust="spacingAndGlyphs" textLength="168" x="18" y="446.9951">org.springframework</text><!--MD5=[af920c9babb8840a81985b85a9069b57]
class StaffManagement.Staff--><rect fill="#FEFECE" filter="url(#fspne1m2ir78m)" height="73.6094" id="StaffManagement.Staff" style="stroke: #A80036; stroke-width: 1.5;" width="415" x="749.5" y="1390"/><ellipse cx="938.25" cy="1406" fill="#ADD1B2" rx="11" ry="11" style="stroke: #A80036; stroke-width: 1.0;"/><path d="M941.2188,1411.6406 Q940.6406,1411.9375 940,1412.0859 Q939.3594,1412.2344 938.6563,1412.2344 Q936.1563,1412.2344 934.8359,1410.5859 Q933.5156,1408.9375 933.5156,1405.8125 Q933.5156,1402.6875 934.8359,1401.0313 Q936.1563,1399.375 938.6563,1399.375 Q939.3594,1399.375 940.0078,1399.5313 Q940.6563,1399.6875 941.2188,1399.9844 L941.2188,1402.7031 Q940.5938,1402.125 940,1401.8516 Q939.4063,1401.5781 938.7813,1401.5781 Q937.4375,1401.5781 936.75,1402.6484 Q936.0625,1403.7188 936.0625,1405.8125 Q936.0625,1407.9063 936.75,1408.9766 Q937.4375,1410.0469 938.7813,1410.0469 Q939.4063,1410.0469 940,1409.7734 Q940.5938,1409.5 941.2188,1408.9219 L941.2188,1411.6406 Z "/><text fill="#000000" font-family="sans-serif" font-size="12" lengthAdjust="spacingAndGlyphs" textLength="29" x="958.75" y="1410.1543">Staff</text><line style="stroke: #A80036; stroke-width: 1.5;" x1="750.5" x2="1163.5" y1="1422" y2="1422"/><rect fill="none" height="6" style="stroke: #C82930; stroke-width: 1.0;" width="6" x="757.5" y="1430"/><text fill="#000000" font-family="sans-serif" font-size="11" lengthAdjust="spacingAndGlyphs" textLength="79" x="769.5" y="1436.2104">salary: Money</text><line style="stroke: #A80036; stroke-width: 1.5;" x1="750.5" x2="1163.5" y1="1442.8047" y2="1442.8047"/><ellipse cx="760.5" cy="1453.8047" fill="#84BE84" rx="3" ry="3" style="stroke: #038048; stroke-width: 1.0;"/><text fill="#000000" font-family="sans-serif" font-size="11" lengthAdjust="spacingAndGlyphs" textLength="389" x="769.5" y="1457.0151">Staff(userAccount: UserAccount, fistName: String, lastName: String)</text><!--MD5=[42d719c41c0b376243736181afcc6dc0]
class StaffManagement.StaffController--><rect fill="#FEFECE" filter="url(#fspne1m2ir78m)" height="124.8281" id="StaffManagement.StaffController" style="stroke: #A80036; stroke-width: 1.5;" width="460" x="214" y="43"/><ellipse cx="394.75" cy="59" fill="#ADD1B2" rx="11" ry="11" style="stroke: #A80036; stroke-width: 1.0;"/><path d="M397.7188,64.6406 Q397.1406,64.9375 396.5,65.0859 Q395.8594,65.2344 395.1563,65.2344 Q392.6563,65.2344 391.3359,63.5859 Q390.0156,61.9375 390.0156,58.8125 Q390.0156,55.6875 391.3359,54.0313 Q392.6563,52.375 395.1563,52.375 Q395.8594,52.375 396.5078,52.5313 Q397.1563,52.6875 397.7188,52.9844 L397.7188,55.7031 Q397.0938,55.125 396.5,54.8516 Q395.9063,54.5781 395.2813,54.5781 Q393.9375,54.5781 393.25,55.6484 Q392.5625,56.7188 392.5625,58.8125 Q392.5625,60.9063 393.25,61.9766 Q393.9375,63.0469 395.2813,63.0469 Q395.9063,63.0469 396.5,62.7734 Q397.0938,62.5 397.7188,61.9219 L397.7188,64.6406 Z "/><text fill="#000000" font-family="sans-serif" font-size="12" lengthAdjust="spacingAndGlyphs" textLength="90" x="415.25" y="63.1543">StaffController</text><line style="stroke: #A80036; stroke-width: 1.5;" x1="215" x2="673" y1="75" y2="75"/><line style="stroke: #A80036; stroke-width: 1.5;" x1="215" x2="673" y1="83" y2="83"/><ellipse cx="225" cy="94" fill="#84BE84" rx="3" ry="3" style="stroke: #038048; stroke-width: 1.0;"/><text fill="#000000" font-family="sans-serif" font-size="11" lengthAdjust="spacingAndGlyphs" textLength="298" x="234" y="97.2104">StaffController(staffManagement: StaffManagement)</text><ellipse cx="225" cy="106.8047" fill="#84BE84" rx="3" ry="3" style="stroke: #038048; stroke-width: 1.0;"/><text fill="#000000" font-family="sans-serif" font-size="11" lengthAdjust="spacingAndGlyphs" textLength="214" x="234" y="110.0151">delete(id: Long, model: Model): String</text><ellipse cx="225" cy="119.6094" fill="#84BE84" rx="3" ry="3" style="stroke: #038048; stroke-width: 1.0;"/><text fill="#000000" font-family="sans-serif" font-size="11" lengthAdjust="spacingAndGlyphs" textLength="153" x="234" y="122.8198">roster(model Model):String</text><ellipse cx="225" cy="132.4141" fill="#84BE84" rx="3" ry="3" style="stroke: #038048; stroke-width: 1.0;"/><text fill="#000000" font-family="sans-serif" font-size="11" lengthAdjust="spacingAndGlyphs" textLength="409" x="234" y="135.6245">rosterEntry(model: Model, form RosterEntryForm, result: Errors): String</text><ellipse cx="225" cy="145.2188" fill="#84BE84" rx="3" ry="3" style="stroke: #038048; stroke-width: 1.0;"/><text fill="#000000" font-family="sans-serif" font-size="11" lengthAdjust="spacingAndGlyphs" textLength="434" x="234" y="148.4292">newRosterEntry(form: RosterEntryForm, model: Model, result: Errors):String</text><ellipse cx="225" cy="158.0234" fill="#84BE84" rx="3" ry="3" style="stroke: #038048; stroke-width: 1.0;"/><text fill="#000000" font-family="sans-serif" font-size="11" lengthAdjust="spacingAndGlyphs" textLength="165" x="234" y="161.2339">printPDF(model:Model):String</text><!--MD5=[ded80ec03db61c1c758426dd98c4b8e0]
class StaffManagement.StaffManagement--><rect fill="#FEFECE" filter="url(#fspne1m2ir78m)" height="73.6094" id="StaffManagement.StaffManagement" style="stroke: #A80036; stroke-width: 1.5;" width="318" x="553" y="1655"/><ellipse cx="652.25" cy="1671" fill="#ADD1B2" rx="11" ry="11" style="stroke: #A80036; stroke-width: 1.0;"/><path d="M655.2188,1676.6406 Q654.6406,1676.9375 654,1677.0859 Q653.3594,1677.2344 652.6563,1677.2344 Q650.1563,1677.2344 648.8359,1675.5859 Q647.5156,1673.9375 647.5156,1670.8125 Q647.5156,1667.6875 648.8359,1666.0313 Q650.1563,1664.375 652.6563,1664.375 Q653.3594,1664.375 654.0078,1664.5313 Q654.6563,1664.6875 655.2188,1664.9844 L655.2188,1667.7031 Q654.5938,1667.125 654,1666.8516 Q653.4063,1666.5781 652.7813,1666.5781 Q651.4375,1666.5781 650.75,1667.6484 Q650.0625,1668.7188 650.0625,1670.8125 Q650.0625,1672.9063 650.75,1673.9766 Q651.4375,1675.0469 652.7813,1675.0469 Q653.4063,1675.0469 654,1674.7734 Q654.5938,1674.5 655.2188,1673.9219 L655.2188,1676.6406 Z "/><text fill="#000000" font-family="sans-serif" font-size="12" lengthAdjust="spacingAndGlyphs" textLength="111" x="672.75" y="1675.1543">StaffManagement</text><line style="stroke: #A80036; stroke-width: 1.5;" x1="554" x2="870" y1="1687" y2="1687"/><line style="stroke: #A80036; stroke-width: 1.5;" x1="554" x2="870" y1="1695" y2="1695"/><ellipse cx="564" cy="1706" fill="#84BE84" rx="3" ry="3" style="stroke: #038048; stroke-width: 1.0;"/><text fill="#000000" font-family="sans-serif" font-size="11" lengthAdjust="spacingAndGlyphs" textLength="292" x="573" y="1709.2104">staffManagement (staffRepository: StaffRepository)</text><ellipse cx="564" cy="1718.8047" fill="#84BE84" rx="3" ry="3" style="stroke: #038048; stroke-width: 1.0;"/><text fill="#000000" font-family="sans-serif" font-size="11" lengthAdjust="spacingAndGlyphs" textLength="231" x="573" y="1722.0151">createPDF(staffID: UserAccountIdentifier)</text><!--MD5=[f676da8b7a8146cb62a7c3a9e38e6261]
class StaffManagement.StaffRepository--><rect fill="#FEFECE" filter="url(#fspne1m2ir78m)" height="73.6094" id="StaffManagement.StaffRepository" style="stroke: #A80036; stroke-width: 1.5;" width="181" x="429.5" y="1868"/><ellipse cx="468.8" cy="1884" fill="#B4A7E5" rx="11" ry="11" style="stroke: #A80036; stroke-width: 1.0;"/><path d="M464.7219,1879.7656 L464.7219,1877.6094 L472.1125,1877.6094 L472.1125,1879.7656 L469.6438,1879.7656 L469.6438,1887.8438 L472.1125,1887.8438 L472.1125,1890 L464.7219,1890 L464.7219,1887.8438 L467.1906,1887.8438 L467.1906,1879.7656 L464.7219,1879.7656 Z "/><text fill="#000000" font-family="sans-serif" font-size="12" font-style="italic" lengthAdjust="spacingAndGlyphs" textLength="95" x="488.2" y="1888.1543">StaffRepository</text><line style="stroke: #A80036; stroke-width: 1.5;" x1="430.5" x2="609.5" y1="1900" y2="1900"/><line style="stroke: #A80036; stroke-width: 1.5;" x1="430.5" x2="609.5" y1="1908" y2="1908"/><text fill="#000000" font-family="sans-serif" font-size="11" font-style="italic" lengthAdjust="spacingAndGlyphs" textLength="169" x="435.5" y="1922.2104">findById(id: long): Streamable</text><text fill="#000000" font-family="sans-serif" font-size="11" font-style="italic" lengthAdjust="spacingAndGlyphs" textLength="116" x="435.5" y="1935.0151">findAll(): Streamable</text><!--MD5=[59953c085c7ed456461d021e755279de]
class StaffManagement.RosterManagement--><rect fill="#FEFECE" filter="url(#fspne1m2ir78m)" height="86.4141" id="StaffManagement.RosterManagement" style="stroke: #A80036; stroke-width: 1.5;" width="351" x="614.5" y="307"/><ellipse cx="724.25" cy="323" fill="#ADD1B2" rx="11" ry="11" style="stroke: #A80036; stroke-width: 1.0;"/><path d="M727.2188,328.6406 Q726.6406,328.9375 726,329.0859 Q725.3594,329.2344 724.6563,329.2344 Q722.1563,329.2344 720.8359,327.5859 Q719.5156,325.9375 719.5156,322.8125 Q719.5156,319.6875 720.8359,318.0313 Q722.1563,316.375 724.6563,316.375 Q725.3594,316.375 726.0078,316.5313 Q726.6563,316.6875 727.2188,316.9844 L727.2188,319.7031 Q726.5938,319.125 726,318.8516 Q725.4063,318.5781 724.7813,318.5781 Q723.4375,318.5781 722.75,319.6484 Q722.0625,320.7188 722.0625,322.8125 Q722.0625,324.9063 722.75,325.9766 Q723.4375,327.0469 724.7813,327.0469 Q725.4063,327.0469 726,326.7734 Q726.5938,326.5 727.2188,325.9219 L727.2188,328.6406 Z "/><text fill="#000000" font-family="sans-serif" font-size="12" lengthAdjust="spacingAndGlyphs" textLength="123" x="744.75" y="327.1543">RosterManagement</text><line style="stroke: #A80036; stroke-width: 1.5;" x1="615.5" x2="964.5" y1="339" y2="339"/><line style="stroke: #A80036; stroke-width: 1.5;" x1="615.5" x2="964.5" y1="347" y2="347"/><ellipse cx="625.5" cy="358" fill="#84BE84" rx="3" ry="3" style="stroke: #038048; stroke-width: 1.0;"/><text fill="#000000" font-family="sans-serif" font-size="11" lengthAdjust="spacingAndGlyphs" textLength="265" x="634.5" y="361.2104">RosterManagement(rosters: RosterRepository)</text><ellipse cx="625.5" cy="370.8047" fill="#84BE84" rx="3" ry="3" style="stroke: #038048; stroke-width: 1.0;"/><text fill="#000000" font-family="sans-serif" font-size="11" lengthAdjust="spacingAndGlyphs" textLength="325" x="634.5" y="374.0151">createRosterEntry(result: Errors, form: RosterEntryForm)</text><ellipse cx="625.5" cy="383.6094" fill="#84BE84" rx="3" ry="3" style="stroke: #038048; stroke-width: 1.0;"/><text fill="#000000" font-family="sans-serif" font-size="11" lengthAdjust="spacingAndGlyphs" textLength="151" x="634.5" y="386.8198">deleteRosterEntry(id: long)</text><!--MD5=[e6f09fdb29fa8cd9686269ec2ec80297]
class StaffManagement.RosterRepository--><rect fill="#FEFECE" filter="url(#fspne1m2ir78m)" height="73.6094" id="StaffManagement.RosterRepository" style="stroke: #A80036; stroke-width: 1.5;" width="181" x="699.5" y="568"/><ellipse cx="733.4" cy="584" fill="#B4A7E5" rx="11" ry="11" style="stroke: #A80036; stroke-width: 1.0;"/><path d="M729.3219,579.7656 L729.3219,577.6094 L736.7125,577.6094 L736.7125,579.7656 L734.2438,579.7656 L734.2438,587.8438 L736.7125,587.8438 L736.7125,590 L729.3219,590 L729.3219,587.8438 L731.7906,587.8438 L731.7906,579.7656 L729.3219,579.7656 Z "/><text fill="#000000" font-family="sans-serif" font-size="12" font-style="italic" lengthAdjust="spacingAndGlyphs" textLength="107" x="751.6" y="588.1543">RosterRepository</text><line style="stroke: #A80036; stroke-width: 1.5;" x1="700.5" x2="879.5" y1="600" y2="600"/><line style="stroke: #A80036; stroke-width: 1.5;" x1="700.5" x2="879.5" y1="608" y2="608"/><text fill="#000000" font-family="sans-serif" font-size="11" font-style="italic" lengthAdjust="spacingAndGlyphs" textLength="169" x="705.5" y="622.2104">findById(id: long): Streamable</text><text fill="#000000" font-family="sans-serif" font-size="11" font-style="italic" lengthAdjust="spacingAndGlyphs" textLength="116" x="705.5" y="635.0151">findAll(): Streamable</text><!--MD5=[8cc6d0f4f9bb1ce585b01e4365f8b764]
class StaffManagement.RosterEntryForm--><rect fill="#FEFECE" filter="url(#fspne1m2ir78m)" height="112.0234" id="StaffManagement.RosterEntryForm" style="stroke: #A80036; stroke-width: 1.5;" width="455" x="709.5" y="49.5"/><ellipse cx="880.75" cy="65.5" fill="#ADD1B2" rx="11" ry="11" style="stroke: #A80036; stroke-width: 1.0;"/><path d="M883.7188,71.1406 Q883.1406,71.4375 882.5,71.5859 Q881.8594,71.7344 881.1563,71.7344 Q878.6563,71.7344 877.3359,70.0859 Q876.0156,68.4375 876.0156,65.3125 Q876.0156,62.1875 877.3359,60.5313 Q878.6563,58.875 881.1563,58.875 Q881.8594,58.875 882.5078,59.0313 Q883.1563,59.1875 883.7188,59.4844 L883.7188,62.2031 Q883.0938,61.625 882.5,61.3516 Q881.9063,61.0781 881.2813,61.0781 Q879.9375,61.0781 879.25,62.1484 Q878.5625,63.2188 878.5625,65.3125 Q878.5625,67.4063 879.25,68.4766 Q879.9375,69.5469 881.2813,69.5469 Q881.9063,69.5469 882.5,69.2734 Q883.0938,69 883.7188,68.4219 L883.7188,71.1406 Z "/><text fill="#000000" font-family="sans-serif" font-size="12" lengthAdjust="spacingAndGlyphs" textLength="104" x="901.25" y="69.6543">RosterEntryForm</text><line style="stroke: #A80036; stroke-width: 1.5;" x1="710.5" x2="1163.5" y1="81.5" y2="81.5"/><line style="stroke: #A80036; stroke-width: 1.5;" x1="710.5" x2="1163.5" y1="89.5" y2="89.5"/><ellipse cx="720.5" cy="100.5" fill="#84BE84" rx="3" ry="3" style="stroke: #038048; stroke-width: 1.0;"/><text fill="#000000" font-family="sans-serif" font-size="11" lengthAdjust="spacingAndGlyphs" textLength="429" x="729.5" y="103.7104">RosterEntryForm(roles: String, date: String, staffs: String, duration: String)</text><ellipse cx="720.5" cy="113.3047" fill="#84BE84" rx="3" ry="3" style="stroke: #038048; stroke-width: 1.0;"/><text fill="#000000" font-family="sans-serif" font-size="11" lengthAdjust="spacingAndGlyphs" textLength="91" x="729.5" y="116.5151">getStaff():String</text><ellipse cx="720.5" cy="126.1094" fill="#84BE84" rx="3" ry="3" style="stroke: #038048; stroke-width: 1.0;"/><text fill="#000000" font-family="sans-serif" font-size="11" lengthAdjust="spacingAndGlyphs" textLength="120" x="729.5" y="129.3198">getStartTime():String</text><ellipse cx="720.5" cy="138.9141" fill="#84BE84" rx="3" ry="3" style="stroke: #038048; stroke-width: 1.0;"/><text fill="#000000" font-family="sans-serif" font-size="11" lengthAdjust="spacingAndGlyphs" textLength="112" x="729.5" y="142.1245">getDuration():String</text><ellipse cx="720.5" cy="151.7188" fill="#84BE84" rx="3" ry="3" style="stroke: #038048; stroke-width: 1.0;"/><text fill="#000000" font-family="sans-serif" font-size="11" lengthAdjust="spacingAndGlyphs" textLength="92" x="729.5" y="154.9292">getRole(): String</text><!--MD5=[b62add60205a356704653da51862c9cb]
class StaffManagement.Roster--><rect fill="#FEFECE" filter="url(#fspne1m2ir78m)" height="99.2188" id="StaffManagement.Roster" style="stroke: #A80036; stroke-width: 1.5;" width="244" x="801" y="833"/><ellipse cx="898.25" cy="849" fill="#ADD1B2" rx="11" ry="11" style="stroke: #A80036; stroke-width: 1.0;"/><path d="M901.2188,854.6406 Q900.6406,854.9375 900,855.0859 Q899.3594,855.2344 898.6563,855.2344 Q896.1563,855.2344 894.8359,853.5859 Q893.5156,851.9375 893.5156,848.8125 Q893.5156,845.6875 894.8359,844.0313 Q896.1563,842.375 898.6563,842.375 Q899.3594,842.375 900.0078,842.5313 Q900.6563,842.6875 901.2188,842.9844 L901.2188,845.7031 Q900.5938,845.125 900,844.8516 Q899.4063,844.5781 898.7813,844.5781 Q897.4375,844.5781 896.75,845.6484 Q896.0625,846.7188 896.0625,848.8125 Q896.0625,850.9063 896.75,851.9766 Q897.4375,853.0469 898.7813,853.0469 Q899.4063,853.0469 900,852.7734 Q900.5938,852.5 901.2188,851.9219 L901.2188,854.6406 Z "/><text fill="#000000" font-family="sans-serif" font-size="12" lengthAdjust="spacingAndGlyphs" textLength="41" x="918.75" y="853.1543">Roster</text><line style="stroke: #A80036; stroke-width: 1.5;" x1="802" x2="1044" y1="865" y2="865"/><rect fill="none" height="6" style="stroke: #C82930; stroke-width: 1.0;" width="6" x="809" y="873"/><text fill="#000000" font-family="sans-serif" font-size="11" lengthAdjust="spacingAndGlyphs" textLength="92" x="821" y="879.2104">week: LocalDate</text><line style="stroke: #A80036; stroke-width: 1.5;" x1="802" x2="1044" y1="885.8047" y2="885.8047"/><ellipse cx="812" cy="896.8047" fill="#84BE84" rx="3" ry="3" style="stroke: #038048; stroke-width: 1.0;"/><text fill="#000000" font-family="sans-serif" font-size="11" lengthAdjust="spacingAndGlyphs" textLength="137" x="821" y="900.0151">Roster(week: LocalDate)</text><ellipse cx="812" cy="909.6094" fill="#84BE84" rx="3" ry="3" style="stroke: #038048; stroke-width: 1.0;"/><text fill="#000000" font-family="sans-serif" font-size="11" lengthAdjust="spacingAndGlyphs" textLength="196" x="821" y="912.8198">addEntry(rosterEntry: RosterEntry)</text><ellipse cx="812" cy="922.4141" fill="#84BE84" rx="3" ry="3" style="stroke: #038048; stroke-width: 1.0;"/><text fill="#000000" font-family="sans-serif" font-size="11" lengthAdjust="spacingAndGlyphs" textLength="218" x="821" y="925.6245">removeEntry(rosterEntry: RosterEntry)</text><!--MD5=[9ce66b2ad16f12a987cfda4452d20e70]
class StaffManagement.RosterEntry--><rect fill="#FEFECE" filter="url(#fspne1m2ir78m)" height="112.0234" id="StaffManagement.RosterEntry" style="stroke: #A80036; stroke-width: 1.5;" width="481" x="682.5" y="1087"/><ellipse cx="882.25" cy="1103" fill="#ADD1B2" rx="11" ry="11" style="stroke: #A80036; stroke-width: 1.0;"/><path d="M885.2188,1108.6406 Q884.6406,1108.9375 884,1109.0859 Q883.3594,1109.2344 882.6563,1109.2344 Q880.1563,1109.2344 878.8359,1107.5859 Q877.5156,1105.9375 877.5156,1102.8125 Q877.5156,1099.6875 878.8359,1098.0313 Q880.1563,1096.375 882.6563,1096.375 Q883.3594,1096.375 884.0078,1096.5313 Q884.6563,1096.6875 885.2188,1096.9844 L885.2188,1099.7031 Q884.5938,1099.125 884,1098.8516 Q883.4063,1098.5781 882.7813,1098.5781 Q881.4375,1098.5781 880.75,1099.6484 Q880.0625,1100.7188 880.0625,1102.8125 Q880.0625,1104.9063 880.75,1105.9766 Q881.4375,1107.0469 882.7813,1107.0469 Q883.4063,1107.0469 884,1106.7734 Q884.5938,1106.5 885.2188,1105.9219 L885.2188,1108.6406 Z "/><text fill="#000000" font-family="sans-serif" font-size="12" lengthAdjust="spacingAndGlyphs" textLength="73" x="902.75" y="1107.1543">RosterEntry</text><line style="stroke: #A80036; stroke-width: 1.5;" x1="683.5" x2="1162.5" y1="1119" y2="1119"/><rect fill="none" height="6" style="stroke: #C82930; stroke-width: 1.0;" width="6" x="690.5" y="1127"/><text fill="#000000" font-family="sans-serif" font-size="11" lengthAdjust="spacingAndGlyphs" textLength="109" x="702.5" y="1133.2104">rosterEntryId: Long</text><rect fill="none" height="6" style="stroke: #C82930; stroke-width: 1.0;" width="6" x="690.5" y="1139.8047"/><text fill="#000000" font-family="sans-serif" font-size="11" lengthAdjust="spacingAndGlyphs" textLength="146" x="702.5" y="1146.0151">startTime: LocalDateTime</text><rect fill="none" height="6" style="stroke: #C82930; stroke-width: 1.0;" width="6" x="690.5" y="1152.6094"/><text fill="#000000" font-family="sans-serif" font-size="11" lengthAdjust="spacingAndGlyphs" textLength="140" x="702.5" y="1158.8198">endTime: LocalDateTime</text><rect fill="none" height="6" style="stroke: #C82930; stroke-width: 1.0;" width="6" x="690.5" y="1165.4141"/><text fill="#000000" font-family="sans-serif" font-size="11" lengthAdjust="spacingAndGlyphs" textLength="69" x="702.5" y="1171.6245">duration: int</text><line style="stroke: #A80036; stroke-width: 1.5;" x1="683.5" x2="1162.5" y1="1178.2188" y2="1178.2188"/><ellipse cx="693.5" cy="1189.2188" fill="#84BE84" rx="3" ry="3" style="stroke: #038048; stroke-width: 1.0;"/><text fill="#000000" font-family="sans-serif" font-size="11" lengthAdjust="spacingAndGlyphs" textLength="455" x="702.5" y="1192.4292">RosterEntry(role: StaffRole, staff: Staff, startTime: LocalDateTime, duration: int)</text><!--MD5=[40a8de07e6aac364f1ffc555c972fb28]
class StaffManagement.StaffRole--><rect fill="#FEFECE" filter="url(#fspne1m2ir78m)" height="73.6094" id="StaffManagement.StaffRole" style="stroke: #A80036; stroke-width: 1.5;" width="88" x="626" y="1390"/><ellipse cx="641" cy="1406" fill="#EB937F" rx="11" ry="11" style="stroke: #A80036; stroke-width: 1.0;"/><path d="M645.1094,1412 L637.3906,1412 L637.3906,1399.6094 L645.1094,1399.6094 L645.1094,1401.7656 L639.8438,1401.7656 L639.8438,1404.4375 L644.6094,1404.4375 L644.6094,1406.5938 L639.8438,1406.5938 L639.8438,1409.8438 L645.1094,1409.8438 L645.1094,1412 Z "/><text fill="#000000" font-family="sans-serif" font-size="12" lengthAdjust="spacingAndGlyphs" textLength="56" x="655" y="1410.1543">StaffRole</text><line style="stroke: #A80036; stroke-width: 1.5;" x1="627" x2="713" y1="1422" y2="1422"/><text fill="#000000" font-family="sans-serif" font-size="11" lengthAdjust="spacingAndGlyphs" textLength="54" x="632" y="1436.2104">COUNTER</text><text fill="#000000" font-family="sans-serif" font-size="11" lengthAdjust="spacingAndGlyphs" textLength="46" x="632" y="1449.0151">TRAINER</text><line style="stroke: #A80036; stroke-width: 1.5;" x1="627" x2="713" y1="1455.6094" y2="1455.6094"/><!--MD5=[5a5c6b4c7f1c85ba24f16ef209254f23]
class org.javamoney.moneta.Money--><rect fill="#FEFECE" filter="url(#fspne1m2ir78m)" height="48" id="org.javamoney.moneta.Money" style="stroke: #A80036; stroke-width: 1.5;" width="72" x="1188" y="1265"/><ellipse cx="1203" cy="1281" fill="#ADD1B2" rx="11" ry="11" style="stroke: #A80036; stroke-width: 1.0;"/><path d="M1205.9688,1286.6406 Q1205.3906,1286.9375 1204.75,1287.0859 Q1204.1094,1287.2344 1203.4063,1287.2344 Q1200.9063,1287.2344 1199.5859,1285.5859 Q1198.2656,1283.9375 1198.2656,1280.8125 Q1198.2656,1277.6875 1199.5859,1276.0313 Q1200.9063,1274.375 1203.4063,1274.375 Q1204.1094,1274.375 1204.7578,1274.5313 Q1205.4063,1274.6875 1205.9688,1274.9844 L1205.9688,1277.7031 Q1205.3438,1277.125 1204.75,1276.8516 Q1204.1563,1276.5781 1203.5313,1276.5781 Q1202.1875,1276.5781 1201.5,1277.6484 Q1200.8125,1278.7188 1200.8125,1280.8125 Q1200.8125,1282.9063 1201.5,1283.9766 Q1202.1875,1285.0469 1203.5313,1285.0469 Q1204.1563,1285.0469 1204.75,1284.7734 Q1205.3438,1284.5 1205.9688,1283.9219 L1205.9688,1286.6406 Z "/><text fill="#000000" font-family="sans-serif" font-size="12" lengthAdjust="spacingAndGlyphs" textLength="40" x="1217" y="1285.1543">Money</text><line style="stroke: #A80036; stroke-width: 1.5;" x1="1189" x2="1259" y1="1297" y2="1297"/><line style="stroke: #A80036; stroke-width: 1.5;" x1="1189" x2="1259" y1="1305" y2="1305"/><!--MD5=[9c520ac34872ef1de990bad1781d26ab]
class AdminManagement.User--><rect fill="#FEFECE" filter="url(#fspne1m2ir78m)" height="48" id="AdminManagement.User" style="stroke: #A80036; stroke-width: 1.5;" width="61" x="1392.5" y="1265"/><ellipse cx="1407.5" cy="1281" fill="#ADD1B2" rx="11" ry="11" style="stroke: #A80036; stroke-width: 1.0;"/><path d="M1410.4688,1286.6406 Q1409.8906,1286.9375 1409.25,1287.0859 Q1408.6094,1287.2344 1407.9063,1287.2344 Q1405.4063,1287.2344 1404.0859,1285.5859 Q1402.7656,1283.9375 1402.7656,1280.8125 Q1402.7656,1277.6875 1404.0859,1276.0313 Q1405.4063,1274.375 1407.9063,1274.375 Q1408.6094,1274.375 1409.2578,1274.5313 Q1409.9063,1274.6875 1410.4688,1274.9844 L1410.4688,1277.7031 Q1409.8438,1277.125 1409.25,1276.8516 Q1408.6563,1276.5781 1408.0313,1276.5781 Q1406.6875,1276.5781 1406,1277.6484 Q1405.3125,1278.7188 1405.3125,1280.8125 Q1405.3125,1282.9063 1406,1283.9766 Q1406.6875,1285.0469 1408.0313,1285.0469 Q1408.6563,1285.0469 1409.25,1284.7734 Q1409.8438,1284.5 1410.4688,1283.9219 L1410.4688,1286.6406 Z "/><text fill="#000000" font-family="sans-serif" font-size="12" lengthAdjust="spacingAndGlyphs" textLength="29" x="1421.5" y="1285.1543">User</text><line style="stroke: #A80036; stroke-width: 1.5;" x1="1393.5" x2="1452.5" y1="1297" y2="1297"/><line style="stroke: #A80036; stroke-width: 1.5;" x1="1393.5" x2="1452.5" y1="1305" y2="1305"/><!--MD5=[6a9b2ffec6fdf0c84627649b8101cbd5]
class pdf.PdfGenerator--><rect fill="#FEFECE" filter="url(#fspne1m2ir78m)" height="48" id="pdf.PdfGenerator" style="stroke: #A80036; stroke-width: 1.5;" width="116" x="1188" y="1530"/><ellipse cx="1203" cy="1546" fill="#ADD1B2" rx="11" ry="11" style="stroke: #A80036; stroke-width: 1.0;"/><path d="M1205.9688,1551.6406 Q1205.3906,1551.9375 1204.75,1552.0859 Q1204.1094,1552.2344 1203.4063,1552.2344 Q1200.9063,1552.2344 1199.5859,1550.5859 Q1198.2656,1548.9375 1198.2656,1545.8125 Q1198.2656,1542.6875 1199.5859,1541.0313 Q1200.9063,1539.375 1203.4063,1539.375 Q1204.1094,1539.375 1204.7578,1539.5313 Q1205.4063,1539.6875 1205.9688,1539.9844 L1205.9688,1542.7031 Q1205.3438,1542.125 1204.75,1541.8516 Q1204.1563,1541.5781 1203.5313,1541.5781 Q1202.1875,1541.5781 1201.5,1542.6484 Q1200.8125,1543.7188 1200.8125,1545.8125 Q1200.8125,1547.9063 1201.5,1548.9766 Q1202.1875,1550.0469 1203.5313,1550.0469 Q1204.1563,1550.0469 1204.75,1549.7734 Q1205.3438,1549.5 1205.9688,1548.9219 L1205.9688,1551.6406 Z "/><text fill="#000000" font-family="sans-serif" font-size="12" lengthAdjust="spacingAndGlyphs" textLength="84" x="1217" y="1550.1543">PdfGenerator</text><line style="stroke: #A80036; stroke-width: 1.5;" x1="1189" x2="1303" y1="1562" y2="1562"/><line style="stroke: #A80036; stroke-width: 1.5;" x1="1189" x2="1303" y1="1570" y2="1570"/><!--MD5=[2dce24b44a790fd9aa1dee3c6eda0a13]
class java.time.LocalDate--><rect fill="#FEFECE" filter="url(#fspne1m2ir78m)" height="48" id="java.time.LocalDate" style="stroke: #A80036; stroke-width: 1.5;" width="94" x="1188" y="708"/><ellipse cx="1203" cy="724" fill="#ADD1B2" rx="11" ry="11" style="stroke: #A80036; stroke-width: 1.0;"/><path d="M1205.9688,729.6406 Q1205.3906,729.9375 1204.75,730.0859 Q1204.1094,730.2344 1203.4063,730.2344 Q1200.9063,730.2344 1199.5859,728.5859 Q1198.2656,726.9375 1198.2656,723.8125 Q1198.2656,720.6875 1199.5859,719.0313 Q1200.9063,717.375 1203.4063,717.375 Q1204.1094,717.375 1204.7578,717.5313 Q1205.4063,717.6875 1205.9688,717.9844 L1205.9688,720.7031 Q1205.3438,720.125 1204.75,719.8516 Q1204.1563,719.5781 1203.5313,719.5781 Q1202.1875,719.5781 1201.5,720.6484 Q1200.8125,721.7188 1200.8125,723.8125 Q1200.8125,725.9063 1201.5,726.9766 Q1202.1875,728.0469 1203.5313,728.0469 Q1204.1563,728.0469 1204.75,727.7734 Q1205.3438,727.5 1205.9688,726.9219 L1205.9688,729.6406 Z "/><text fill="#000000" font-family="sans-serif" font-size="12" lengthAdjust="spacingAndGlyphs" textLength="62" x="1217" y="728.1543">LocalDate</text><line style="stroke: #A80036; stroke-width: 1.5;" x1="1189" x2="1281" y1="740" y2="740"/><line style="stroke: #A80036; stroke-width: 1.5;" x1="1189" x2="1281" y1="748" y2="748"/><!--MD5=[958de540c726c4c8379f02730ca0af0a]
class java.time.LocalDateTime--><rect fill="#FEFECE" filter="url(#fspne1m2ir78m)" height="48" id="java.time.LocalDateTime" style="stroke: #A80036; stroke-width: 1.5;" width="123" x="1317.5" y="708"/><ellipse cx="1332.5" cy="724" fill="#ADD1B2" rx="11" ry="11" style="stroke: #A80036; stroke-width: 1.0;"/><path d="M1335.4688,729.6406 Q1334.8906,729.9375 1334.25,730.0859 Q1333.6094,730.2344 1332.9063,730.2344 Q1330.4063,730.2344 1329.0859,728.5859 Q1327.7656,726.9375 1327.7656,723.8125 Q1327.7656,720.6875 1329.0859,719.0313 Q1330.4063,717.375 1332.9063,717.375 Q1333.6094,717.375 1334.2578,717.5313 Q1334.9063,717.6875 1335.4688,717.9844 L1335.4688,720.7031 Q1334.8438,720.125 1334.25,719.8516 Q1333.6563,719.5781 1333.0313,719.5781 Q1331.6875,719.5781 1331,720.6484 Q1330.3125,721.7188 1330.3125,723.8125 Q1330.3125,725.9063 1331,726.9766 Q1331.6875,728.0469 1333.0313,728.0469 Q1333.6563,728.0469 1334.25,727.7734 Q1334.8438,727.5 1335.4688,726.9219 L1335.4688,729.6406 Z "/><text fill="#000000" font-family="sans-serif" font-size="12" lengthAdjust="spacingAndGlyphs" textLength="91" x="1346.5" y="728.1543">LocalDateTime</text><line style="stroke: #A80036; stroke-width: 1.5;" x1="1318.5" x2="1439.5" y1="740" y2="740"/><line style="stroke: #A80036; stroke-width: 1.5;" x1="1318.5" x2="1439.5" y1="748" y2="748"/><!--MD5=[c524ecae0e703ba627d46752056d9023]
class org.springframework.CrudRepository--><rect fill="#FEFECE" filter="url(#fspne1m2ir78m)" height="48" id="org.springframework.CrudRepository" style="stroke: #A80036; stroke-width: 1.5;" width="127" x="62.5" y="459"/><ellipse cx="77.5" cy="475" fill="#ADD1B2" rx="11" ry="11" style="stroke: #A80036; stroke-width: 1.0;"/><path d="M80.4688,480.6406 Q79.8906,480.9375 79.25,481.0859 Q78.6094,481.2344 77.9063,481.2344 Q75.4063,481.2344 74.0859,479.5859 Q72.7656,477.9375 72.7656,474.8125 Q72.7656,471.6875 74.0859,470.0313 Q75.4063,468.375 77.9063,468.375 Q78.6094,468.375 79.2578,468.5313 Q79.9063,468.6875 80.4688,468.9844 L80.4688,471.7031 Q79.8438,471.125 79.25,470.8516 Q78.6563,470.5781 78.0313,470.5781 Q76.6875,470.5781 76,471.6484 Q75.3125,472.7188 75.3125,474.8125 Q75.3125,476.9063 76,477.9766 Q76.6875,479.0469 78.0313,479.0469 Q78.6563,479.0469 79.25,478.7734 Q79.8438,478.5 80.4688,477.9219 L80.4688,480.6406 Z "/><text fill="#000000" font-family="sans-serif" font-size="12" lengthAdjust="spacingAndGlyphs" textLength="95" x="91.5" y="479.1543">CrudRepository</text><line style="stroke: #A80036; stroke-width: 1.5;" x1="63.5" x2="188.5" y1="491" y2="491"/><line style="stroke: #A80036; stroke-width: 1.5;" x1="63.5" x2="188.5" y1="499" y2="499"/><!--MD5=[2c2b0e26239690b7b3de8d221ebf946a]
reverse link org.javamoney.moneta.Money to StaffManagement.Staff--><path d="M1188.0584,1315.9469 C1185.3684,1317.7132 1182.6642,1319.4165 1180,1321 C1136.7944,1346.6795 1086.3868,1371.072 1044.4377,1389.9695 " fill="none" id="org.javamoney.moneta.Money&lt;-StaffManagement.Staff" style="stroke: #A80036; stroke-width: 1.0; stroke-dasharray: 7.0,7.0;"/><polygon fill="#A80036" points="1192.2661,1313.1274,1182.5628,1314.8143,1188.1124,1315.9107,1187.016,1321.4603,1192.2661,1313.1274" style="stroke: #A80036; stroke-width: 1.0;"/><text fill="#000000" font-family="sans-serif" font-size="13" lengthAdjust="spacingAndGlyphs" textLength="39" x="1139" y="1356.0669">«use»</text><!--MD5=[a3bc94e6e5ff23540f6d0137c0c6bbb2]
reverse link AdminManagement.User to StaffManagement.Staff--><path d="M1378.8735,1322.1001 C1304.4016,1358.5128 1231.3121,1379.8368 1164.7458,1394.7572 " fill="none" id="AdminManagement.User&lt;-StaffManagement.Staff" style="stroke: #A80036; stroke-width: 1.0;"/><polygon fill="none" points="1375.7997,1315.8104,1396.8084,1313.0472,1382.1083,1328.3085,1375.7997,1315.8104" style="stroke: #A80036; stroke-width: 1.0;"/><!--MD5=[55d2b88138123318facf7dc95724a4d0]
reverse link pdf.PdfGenerator to StaffManagement.StaffManagement--><path d="M1195.0879,1580.0929 C1190.0535,1582.2452 1184.9685,1584.2587 1180,1586 C1079.5637,1621.2001 962.8242,1647.6654 871.0638,1665.348 " fill="none" id="pdf.PdfGenerator&lt;-StaffManagement.StaffManagement" style="stroke: #A80036; stroke-width: 1.0; stroke-dasharray: 7.0,7.0;"/><polygon fill="#A80036" points="1199.6923,1578.081,1189.8436,1578.0192,1195.1106,1580.083,1193.0468,1585.35,1199.6923,1578.081" style="stroke: #A80036; stroke-width: 1.0;"/><text fill="#000000" font-family="sans-serif" font-size="13" lengthAdjust="spacingAndGlyphs" textLength="39" x="1106" y="1621.0669">«use»</text><!--MD5=[1db7b441fbd2ee89eba9fd6f7979201c]
reverse link StaffManagement.StaffController to StaffManagement.StaffManagement--><path d="M467.2168,181.0342 C471.1548,199.3373 474,218.9723 474,237.5 C474,237.5 474,237.5 474,1554 C474,1602.4794 511.4136,1634.2097 556.5729,1654.8515 " fill="none" id="StaffManagement.StaffController&lt;-StaffManagement.StaffManagement" style="stroke: #A80036; stroke-width: 1.0;"/><polygon fill="#FFFFFF" points="464.2599,168.2927,461.7199,175.0417,466.9728,179.982,469.5128,173.233,464.2599,168.2927" style="stroke: #A80036; stroke-width: 1.0;"/><rect fill="none" height="6" style="stroke: #C82930; stroke-width: 1.0;" width="6" x="477" y="880.0664"/><text fill="#000000" font-family="sans-serif" font-size="13" lengthAdjust="spacingAndGlyphs" textLength="113" x="487" y="887.0669">staffManagement</text><text fill="#000000" font-family="sans-serif" font-size="13" lengthAdjust="spacingAndGlyphs" textLength="8" x="536.865" y="1648.6587">1</text><!--MD5=[09bd8c22a0cb8c59ed78fcd8469ce52c]
link StaffManagement.StaffManagement to StaffManagement.StaffRepository--><path d="M678.5562,1729.1018 C644.5212,1766.8593 591.9057,1825.2296 556.7305,1864.2521 " fill="none" id="StaffManagement.StaffManagement-&gt;StaffManagement.StaffRepository" style="stroke: #A80036; stroke-width: 1.0;"/><polygon fill="#A80036" points="553.3821,1867.9667,562.379,1863.9598,556.7297,1864.2528,556.4367,1858.6035,553.3821,1867.9667" style="stroke: #A80036; stroke-width: 1.0;"/><rect fill="none" height="6" style="stroke: #C82930; stroke-width: 1.0;" width="6" x="626" y="1796.0664"/><text fill="#000000" font-family="sans-serif" font-size="13" lengthAdjust="spacingAndGlyphs" textLength="35" x="636" y="1803.0669">staffs</text><text fill="#000000" font-family="sans-serif" font-size="13" lengthAdjust="spacingAndGlyphs" textLength="8" x="550.7994" y="1856.871">1</text><!--MD5=[3d8cfe102f8ff50c828eb1d76a910375]
reverse link StaffManagement.Staff to StaffManagement.StaffManagement--><path d="M919.0558,1468.0417 C871.8714,1519.0779 792.0048,1605.4642 746.4868,1654.698 " fill="none" id="StaffManagement.Staff&lt;-StaffManagement.StaffManagement" style="stroke: #A80036; stroke-width: 1.0; stroke-dasharray: 7.0,7.0;"/><polygon fill="#A80036" points="922.6758,1464.1261,913.629,1468.0192,919.2816,1467.7975,919.5033,1473.45,922.6758,1464.1261" style="stroke: #A80036; stroke-width: 1.0;"/><text fill="#000000" font-family="sans-serif" font-size="13" lengthAdjust="spacingAndGlyphs" textLength="39" x="887" y="1558.5669">«use»</text><!--MD5=[c88564789f5523b16fde52049fa456dd]
link StaffManagement.RosterManagement to StaffManagement.RosterRepository--><path d="M790,393.2573 C790,440.5566 790,515.8532 790,562.7503 " fill="none" id="StaffManagement.RosterManagement-&gt;StaffManagement.RosterRepository" style="stroke: #A80036; stroke-width: 1.0;"/><polygon fill="#A80036" points="790,567.7609,794,558.7609,790,562.7609,786,558.7609,790,567.7609" style="stroke: #A80036; stroke-width: 1.0;"/><rect fill="none" height="6" style="stroke: #C82930; stroke-width: 1.0;" width="6" x="793" y="480.5664"/><text fill="#000000" font-family="sans-serif" font-size="13" lengthAdjust="spacingAndGlyphs" textLength="45" x="803" y="487.5669">rosters</text><text fill="#000000" font-family="sans-serif" font-size="13" lengthAdjust="spacingAndGlyphs" textLength="8" x="781.2875" y="556.9053">1</text><!--MD5=[4efaa1711c7b93a122421ce856e2a465]
reverse link StaffManagement.RosterEntryForm to StaffManagement.RosterManagement--><path d="M900.6005,166.0419 C874.3384,209.7229 839.5108,267.6505 816.0102,306.7381 " fill="none" id="StaffManagement.RosterEntryForm&lt;-StaffManagement.RosterManagement" style="stroke: #A80036; stroke-width: 1.0; stroke-dasharray: 7.0,7.0;"/><polygon fill="#A80036" points="903.2752,161.5932,895.2097,167.2455,900.6989,165.8784,902.066,171.3675,903.2752,161.5932" style="stroke: #A80036; stroke-width: 1.0;"/><text fill="#000000" font-family="sans-serif" font-size="13" lengthAdjust="spacingAndGlyphs" textLength="39" x="863" y="242.0669">«use»</text><!--MD5=[97202edaa45585232eb504962dacea5d]
reverse link StaffManagement.StaffController to StaffManagement.RosterManagement--><path d="M543.2897,175.6628 C603.2522,218.0351 677.7461,270.6761 729.098,306.9638 " fill="none" id="StaffManagement.StaffController&lt;-StaffManagement.RosterManagement" style="stroke: #A80036; stroke-width: 1.0;"/><polygon fill="#FFFFFF" points="532.6543,168.1473,535.2459,174.8766,542.4543,175.0726,539.8627,168.3433,532.6543,168.1473" style="stroke: #A80036; stroke-width: 1.0;"/><rect fill="none" height="6" style="stroke: #C82930; stroke-width: 1.0;" width="6" x="644" y="235.0664"/><text fill="#000000" font-family="sans-serif" font-size="13" lengthAdjust="spacingAndGlyphs" textLength="123" x="654" y="242.0669">rosterManagement</text><text fill="#000000" font-family="sans-serif" font-size="13" lengthAdjust="spacingAndGlyphs" textLength="8" x="710.7542" y="295.9541">1</text><!--MD5=[086811184ae7afcb28e8827047f1e7e1]
reverse link StaffManagement.Roster to StaffManagement.RosterEntry--><path d="M923,945.3094 C923,988.4276 923,1045.1624 923,1086.7898 " fill="none" id="StaffManagement.Roster&lt;-StaffManagement.RosterEntry" style="stroke: #A80036; stroke-width: 1.0;"/><polygon fill="#FFFFFF" points="923,932.1112,919,938.1112,923,944.1112,927,938.1112,923,932.1112" style="stroke: #A80036; stroke-width: 1.0;"/><rect fill="none" height="6" style="stroke: #C82930; stroke-width: 1.0;" width="6" x="926" y="1015.0664"/><text fill="#000000" font-family="sans-serif" font-size="13" lengthAdjust="spacingAndGlyphs" textLength="44" x="936" y="1022.0669">entries</text><text fill="#000000" font-family="sans-serif" font-size="13" lengthAdjust="spacingAndGlyphs" textLength="23" x="898.5984" y="1076.0987">0..*</text><!--MD5=[511538de691930418e9bedcd49d45de6]
reverse link java.time.LocalDate to StaffManagement.Roster--><path d="M1190.0766,758.5993 C1186.6871,760.464 1183.3018,762.2832 1180,764 C1133.7925,788.0262 1081.7885,812.4722 1036.7105,832.8712 " fill="none" id="java.time.LocalDate&lt;-StaffManagement.Roster" style="stroke: #A80036; stroke-width: 1.0; stroke-dasharray: 7.0,7.0;"/><polygon fill="#A80036" points="1194.694,756.0335,1184.8841,756.9087,1190.3235,758.4622,1188.77,763.9016,1194.694,756.0335" style="stroke: #A80036; stroke-width: 1.0;"/><text fill="#000000" font-family="sans-serif" font-size="13" lengthAdjust="spacingAndGlyphs" textLength="39" x="1132" y="799.0669">«use»</text><!--MD5=[c5983885fa3387f65c589cbfc4b92139]
reverse link StaffManagement.RosterEntry to StaffManagement.Staff--><path d="M931.2799,1212.1613 C937.9896,1268.207 947.1845,1345.0118 952.5687,1389.9858 " fill="none" id="StaffManagement.RosterEntry&lt;-StaffManagement.Staff" style="stroke: #A80036; stroke-width: 1.0;"/><polygon fill="#FFFFFF" points="929.7173,1199.1093,926.4589,1205.5423,931.1439,1211.0242,934.4022,1204.5912,929.7173,1199.1093" style="stroke: #A80036; stroke-width: 1.0;"/><rect fill="none" height="6" style="stroke: #C82930; stroke-width: 1.0;" width="6" x="946" y="1286.5664"/><text fill="#000000" font-family="sans-serif" font-size="13" lengthAdjust="spacingAndGlyphs" textLength="28" x="956" y="1293.5669">staff</text><text fill="#000000" font-family="sans-serif" font-size="13" lengthAdjust="spacingAndGlyphs" textLength="8" x="943.0142" y="1378.8936">1</text><!--MD5=[c71984baacc9c39cfe2aea97da67bb14]
reverse link StaffManagement.RosterEntry to StaffManagement.StaffRole--><path d="M864.2117,1208.9916 C814.0684,1265.2789 743.7995,1344.1579 702.9739,1389.9858 " fill="none" id="StaffManagement.RosterEntry&lt;-StaffManagement.StaffRole" style="stroke: #A80036; stroke-width: 1.0;"/><polygon fill="#FFFFFF" points="873.0153,1199.1093,866.0375,1200.9286,865.0331,1208.0694,872.0109,1206.2501,873.0153,1199.1093" style="stroke: #A80036; stroke-width: 1.0;"/><rect fill="none" height="6" style="stroke: #C82930; stroke-width: 1.0;" width="6" x="840" y="1286.5664"/><text fill="#000000" font-family="sans-serif" font-size="13" lengthAdjust="spacingAndGlyphs" textLength="24" x="850" y="1293.5669">role</text><text fill="#000000" font-family="sans-serif" font-size="13" lengthAdjust="spacingAndGlyphs" textLength="8" x="700.316" y="1378.8936">1</text><!--MD5=[ee2e81a2444a563655100158f7f05e9f]
reverse link java.time.LocalDateTime to StaffManagement.RosterEntry--><path d="M1348.3139,759.6579 C1274.2436,826.4186 1084.4833,997.4525 985.3812,1086.7748 " fill="none" id="java.time.LocalDateTime&lt;-StaffManagement.RosterEntry" style="stroke: #A80036; stroke-width: 1.0; stroke-dasharray: 7.0,7.0;"/><polygon fill="#A80036" points="1352.1775,756.1755,1342.8142,759.2297,1348.4634,759.523,1348.1702,765.1722,1352.1775,756.1755" style="stroke: #A80036; stroke-width: 1.0;"/><text fill="#000000" font-family="sans-serif" font-size="13" lengthAdjust="spacingAndGlyphs" textLength="39" x="1123" y="975.0669">«use»</text><!--MD5=[0d09d3fe149f90ca8c5806491971c6d8]
reverse link org.springframework.CrudRepository to StaffManagement.RosterRepository--><path d="M194.5386,513.9501 C195.6969,514.3136 196.8512,514.664 198,515 C371.2402,565.6702 581.8012,589.0078 699.3714,598.7804 " fill="none" id="org.springframework.CrudRepository&lt;-StaffManagement.RosterRepository" style="stroke: #A80036; stroke-width: 1.0; stroke-dasharray: 7.0,7.0;"/><polygon fill="none" points="192.1352,520.5247,175.7091,507.1387,196.8976,507.3596,192.1352,520.5247" style="stroke: #A80036; stroke-width: 1.0;"/><!--MD5=[64dc19c9512851f13b2729a554007755]
reverse link StaffManagement.RosterRepository to StaffManagement.Roster--><path d="M813.4851,654.0008 C837.6244,704.3666 875.0096,782.3696 899.2465,832.9392 " fill="none" id="StaffManagement.RosterRepository&lt;-StaffManagement.Roster" style="stroke: #A80036; stroke-width: 1.0;"/><polygon fill="#FFFFFF" points="807.799,642.1369,806.7852,649.2764,812.9855,652.9582,813.9994,645.8187,807.799,642.1369" style="stroke: #A80036; stroke-width: 1.0;"/><rect fill="none" height="6" style="stroke: #C82930; stroke-width: 1.0;" width="6" x="868" y="729.5664"/><text fill="#000000" font-family="sans-serif" font-size="13" lengthAdjust="spacingAndGlyphs" textLength="82" x="878" y="736.5669">rosterEntries</text><text fill="#000000" font-family="sans-serif" font-size="13" lengthAdjust="spacingAndGlyphs" textLength="23" x="871.289" y="821.9759">0..*</text><!--MD5=[46b4a7ce384cf64433a5e8de9a195887]
reverse link org.springframework.CrudRepository to StaffManagement.StaffRepository--><path d="M187.0527,518.7238 C214.571,539.7683 241,569.2783 241,605 C241,605 241,605 241,1798.5 C241,1839.5883 347.9505,1870.6229 429.4167,1888.3026 " fill="none" id="org.springframework.CrudRepository&lt;-StaffManagement.StaffRepository" style="stroke: #A80036; stroke-width: 1.0; stroke-dasharray: 7.0,7.0;"/><polygon fill="none" points="182.778,524.275,170.462,507.0321,190.8427,512.8312,182.778,524.275" style="stroke: #A80036; stroke-width: 1.0;"/><!--MD5=[dea8051de157cef62a832691a2125063]
@startuml
namespace StaffManagement {
    org.javamoney.moneta.Money <.. Staff: <<use>>
    AdminManagement.User <|- - Staff
    class Staff {
        - salary: Money
        + Staff(userAccount: UserAccount, fistName: String, lastName: String)
    }
    
    class StaffController {
    
        + StaffController(staffManagement: StaffManagement)
        + delete(id: Long, model: Model): String
        + roster(model Model):String
        + rosterEntry(model: Model, form RosterEntryForm, result: Errors): String
        + newRosterEntry(form: RosterEntryForm, model: Model, result: Errors):String
        + printPDF(model:Model):String
    }
    
    pdf.PdfGenerator <.. StaffManagement: <<use>>
    StaffController o- - "1" StaffManagement: "-staffManagement"
    StaffManagement - -> "1" StaffRepository: "-staffs"
    Staff <.. StaffManagement: <<use>>
    class StaffManagement{
        + staffManagement (staffRepository: StaffRepository)
        + createPDF(staffID: UserAccountIdentifier)
    }
    
    RosterManagement - -> "1" RosterRepository: "-rosters"
    RosterEntryForm <.. RosterManagement: <<use>>
    StaffController o- - "1" RosterManagement: "-rosterManagement"
    class RosterManagement {
        + RosterManagement(rosters: RosterRepository)
        + createRosterEntry(result: Errors, form: RosterEntryForm)
        + deleteRosterEntry(id: long)
    }
    
    class RosterEntryForm{
        +RosterEntryForm(roles: String, date: String, staffs: String, duration: String)
        +getStaff():String
        +getStartTime():String
        +getDuration():String
        +getRole(): String
    }
    


    Roster o- - "0..*" RosterEntry  : - entries
    java.time.LocalDate <.. Roster: <<use>>
    class Roster {

        - week: LocalDate

        + Roster(week: LocalDate)
        + addEntry(rosterEntry: RosterEntry)
        + removeEntry(rosterEntry: RosterEntry)
    }

    RosterEntry o- - "1" Staff: - staff
    RosterEntry o- - "1" StaffRole: - role
    java.time.LocalDateTime <.. RosterEntry: <<use>>
    class RosterEntry {
        - rosterEntryId: Long
        - startTime: LocalDateTime
        - endTime: LocalDateTime
        - duration: int

        + RosterEntry(role: StaffRole, staff: Staff, startTime: LocalDateTime, duration: int)
    }

    enum StaffRole {
        COUNTER
        TRAINER
    }

    org.springframework.CrudRepository <|.. RosterRepository
    RosterRepository o- - "0..*" Roster: - rosterEntries
    interface RosterRepository {
        {abstract} findById(id: long): Streamable
        {abstract} findAll(): Streamable
    }
    
    org.springframework.CrudRepository <|.. StaffRepository
    interface StaffRepository {
        {abstract} findById(id: long): Streamable
        {abstract} findAll(): Streamable
    }
}
@enduml

PlantUML version 1.2019.11(Sun Sep 22 10:02:15 UTC 2019)
(GPL source distribution)
Java Runtime: OpenJDK Runtime Environment
JVM: OpenJDK 64-Bit Server VM
Java Version: 1.8.0_222-heroku-b10
Operating System: Linux
Default Encoding: UTF-8
Language: en
Country: US
--></g></svg>