<?xml version="1.0" encoding="UTF-8" standalone="no"?><svg xmlns="http://www.w3.org/2000/svg" xmlns:xlink="http://www.w3.org/1999/xlink" contentScriptType="application/ecmascript" contentStyleType="text/css" height="690px" preserveAspectRatio="none" style="width:1111px;height:690px;" version="1.1" viewBox="0 0 1111 690" width="1111px" zoomAndPan="magnify"><defs><filter height="300%" id="f1szbsd5vqkodc" width="300%" x="-1" y="-1"><feGaussianBlur result="blurOut" stdDeviation="2.0"/><feColorMatrix in="blurOut" result="blurOut2" type="matrix" values="0 0 0 0 0 0 0 0 0 0 0 0 0 0 0 0 0 0 .4 0"/><feOffset dx="4.0" dy="4.0" in="blurOut2" result="blurOut3"/><feBlend in="SourceGraphic" in2="blurOut3" mode="normal"/></filter></defs><g><!--MD5=[db20cce6b22f3ebe46fe7a0fbed062dd]
cluster Studiomanagement--><polygon fill="#FFFFFF" filter="url(#f1szbsd5vqkodc)" points="14,16,172,16,179,38.2969,1089,38.2969,1089,678,14,678,14,16" style="stroke: #000000; stroke-width: 1.5;"/><line style="stroke: #000000; stroke-width: 1.5;" x1="14" x2="179" y1="38.2969" y2="38.2969"/><text fill="#000000" font-family="sans-serif" font-size="14" font-weight="bold" lengthAdjust="spacingAndGlyphs" textLength="152" x="18" y="30.9951">Studiomanagement</text><!--MD5=[e5798e9209757834cd0aeaa294ef1377]
class Studiomanagement.StudioController--><rect fill="#FEFECE" filter="url(#f1szbsd5vqkodc)" height="86.4141" id="Studiomanagement.StudioController" style="stroke: #A80036; stroke-width: 1.5;" width="430" x="651" y="101"/><ellipse cx="811.25" cy="117" fill="#ADD1B2" rx="11" ry="11" style="stroke: #A80036; stroke-width: 1.0;"/><path d="M814.2188,122.6406 Q813.6406,122.9375 813,123.0859 Q812.3594,123.2344 811.6563,123.2344 Q809.1563,123.2344 807.8359,121.5859 Q806.5156,119.9375 806.5156,116.8125 Q806.5156,113.6875 807.8359,112.0313 Q809.1563,110.375 811.6563,110.375 Q812.3594,110.375 813.0078,110.5313 Q813.6563,110.6875 814.2188,110.9844 L814.2188,113.7031 Q813.5938,113.125 813,112.8516 Q812.4063,112.5781 811.7813,112.5781 Q810.4375,112.5781 809.75,113.6484 Q809.0625,114.7188 809.0625,116.8125 Q809.0625,118.9063 809.75,119.9766 Q810.4375,121.0469 811.7813,121.0469 Q812.4063,121.0469 813,120.7734 Q813.5938,120.5 814.2188,119.9219 L814.2188,122.6406 Z "/><text fill="#000000" font-family="sans-serif" font-size="12" lengthAdjust="spacingAndGlyphs" textLength="101" x="831.75" y="121.1543">StudioController</text><line style="stroke: #A80036; stroke-width: 1.5;" x1="652" x2="1080" y1="133" y2="133"/><line style="stroke: #A80036; stroke-width: 1.5;" x1="652" x2="1080" y1="141" y2="141"/><ellipse cx="662" cy="152" fill="#84BE84" rx="3" ry="3" style="stroke: #038048; stroke-width: 1.0;"/><text fill="#000000" font-family="sans-serif" font-size="11" lengthAdjust="spacingAndGlyphs" textLength="156" x="671" y="155.2104">index(model: Model): String</text><ellipse cx="662" cy="164.8047" fill="#84BE84" rx="3" ry="3" style="stroke: #038048; stroke-width: 1.0;"/><text fill="#000000" font-family="sans-serif" font-size="11" lengthAdjust="spacingAndGlyphs" textLength="328" x="671" y="168.0151">editStudio(model: Model, studioForm: StudioForm): String</text><ellipse cx="662" cy="177.6094" fill="#84BE84" rx="3" ry="3" style="stroke: #038048; stroke-width: 1.0;"/><text fill="#000000" font-family="sans-serif" font-size="11" lengthAdjust="spacingAndGlyphs" textLength="404" x="671" y="180.8198">editStudio(StudioForm studioForm, Model model, Errors errors): String</text><!--MD5=[799747188175fff50d25620adac95e84]
class Studiomanagement.StudioForm--><rect fill="#FEFECE" filter="url(#f1szbsd5vqkodc)" height="99.2188" id="Studiomanagement.StudioForm" style="stroke: #A80036; stroke-width: 1.5;" width="179" x="631.5" y="384"/><ellipse cx="681.25" cy="400" fill="#B4A7E5" rx="11" ry="11" style="stroke: #A80036; stroke-width: 1.0;"/><path d="M677.1719,395.7656 L677.1719,393.6094 L684.5625,393.6094 L684.5625,395.7656 L682.0938,395.7656 L682.0938,403.8438 L684.5625,403.8438 L684.5625,406 L677.1719,406 L677.1719,403.8438 L679.6406,403.8438 L679.6406,395.7656 L677.1719,395.7656 Z "/><text fill="#000000" font-family="sans-serif" font-size="12" font-style="italic" lengthAdjust="spacingAndGlyphs" textLength="71" x="701.75" y="404.1543">StudioForm</text><line style="stroke: #A80036; stroke-width: 1.5;" x1="632.5" x2="809.5" y1="416" y2="416"/><line style="stroke: #A80036; stroke-width: 1.5;" x1="632.5" x2="809.5" y1="424" y2="424"/><text fill="#000000" font-family="sans-serif" font-size="11" lengthAdjust="spacingAndGlyphs" textLength="148" x="637.5" y="438.2104">getopeningTimes(): String</text><text fill="#000000" font-family="sans-serif" font-size="11" lengthAdjust="spacingAndGlyphs" textLength="144" x="637.5" y="451.0151">getcontractTerm(): String</text><text fill="#000000" font-family="sans-serif" font-size="11" lengthAdjust="spacingAndGlyphs" textLength="140" x="637.5" y="463.8198">getmonthlyFees(): String</text><text fill="#000000" font-family="sans-serif" font-size="11" lengthAdjust="spacingAndGlyphs" textLength="167" x="637.5" y="476.6245">getadvertisingBonus(): String</text><!--MD5=[5a92f4be20607356efd7ad8a95c838f4]
class Studiomanagement.StudioService--><rect fill="#FEFECE" filter="url(#f1szbsd5vqkodc)" height="73.6094" id="Studiomanagement.StudioService" style="stroke: #A80036; stroke-width: 1.5;" width="207" x="845.5" y="396.5"/><ellipse cx="902.25" cy="412.5" fill="#ADD1B2" rx="11" ry="11" style="stroke: #A80036; stroke-width: 1.0;"/><path d="M905.2188,418.1406 Q904.6406,418.4375 904,418.5859 Q903.3594,418.7344 902.6563,418.7344 Q900.1563,418.7344 898.8359,417.0859 Q897.5156,415.4375 897.5156,412.3125 Q897.5156,409.1875 898.8359,407.5313 Q900.1563,405.875 902.6563,405.875 Q903.3594,405.875 904.0078,406.0313 Q904.6563,406.1875 905.2188,406.4844 L905.2188,409.2031 Q904.5938,408.625 904,408.3516 Q903.4063,408.0781 902.7813,408.0781 Q901.4375,408.0781 900.75,409.1484 Q900.0625,410.2188 900.0625,412.3125 Q900.0625,414.4063 900.75,415.4766 Q901.4375,416.5469 902.7813,416.5469 Q903.4063,416.5469 904,416.2734 Q904.5938,416 905.2188,415.4219 L905.2188,418.1406 Z "/><text fill="#000000" font-family="sans-serif" font-size="12" lengthAdjust="spacingAndGlyphs" textLength="85" x="922.75" y="416.6543">StudioService</text><line style="stroke: #A80036; stroke-width: 1.5;" x1="846.5" x2="1051.5" y1="428.5" y2="428.5"/><line style="stroke: #A80036; stroke-width: 1.5;" x1="846.5" x2="1051.5" y1="436.5" y2="436.5"/><ellipse cx="856.5" cy="447.5" fill="#84BE84" rx="3" ry="3" style="stroke: #038048; stroke-width: 1.0;"/><text fill="#000000" font-family="sans-serif" font-size="11" lengthAdjust="spacingAndGlyphs" textLength="106" x="865.5" y="450.7104">getStudio(): Studio</text><ellipse cx="856.5" cy="460.3047" fill="#84BE84" rx="3" ry="3" style="stroke: #038048; stroke-width: 1.0;"/><text fill="#000000" font-family="sans-serif" font-size="11" lengthAdjust="spacingAndGlyphs" textLength="181" x="865.5" y="463.5151">saveStudio(studio: Studio): void</text><!--MD5=[2ff15f9682a8f3b576ced1ce1a7cd16d]
class Studiomanagement.StudioRepository--><rect fill="#FEFECE" filter="url(#f1szbsd5vqkodc)" height="48" id="Studiomanagement.StudioRepository" style="stroke: #A80036; stroke-width: 1.5;" width="138" x="672" y="622"/><ellipse cx="687" cy="638" fill="#B4A7E5" rx="11" ry="11" style="stroke: #A80036; stroke-width: 1.0;"/><path d="M682.9219,633.7656 L682.9219,631.6094 L690.3125,631.6094 L690.3125,633.7656 L687.8438,633.7656 L687.8438,641.8438 L690.3125,641.8438 L690.3125,644 L682.9219,644 L682.9219,641.8438 L685.3906,641.8438 L685.3906,633.7656 L682.9219,633.7656 Z "/><text fill="#000000" font-family="sans-serif" font-size="12" font-style="italic" lengthAdjust="spacingAndGlyphs" textLength="106" x="701" y="642.1543">StudioRepository</text><line style="stroke: #A80036; stroke-width: 1.5;" x1="673" x2="809" y1="654" y2="654"/><line style="stroke: #A80036; stroke-width: 1.5;" x1="673" x2="809" y1="662" y2="662"/><!--MD5=[d73660fa22d7fa66d3af161f6dfcb421]
class Studiomanagement.StudioInitializer--><rect fill="#FEFECE" filter="url(#f1szbsd5vqkodc)" height="73.6094" id="Studiomanagement.StudioInitializer" style="stroke: #A80036; stroke-width: 1.5;" width="126" x="470" y="396.5"/><ellipse cx="485" cy="412.5" fill="#ADD1B2" rx="11" ry="11" style="stroke: #A80036; stroke-width: 1.0;"/><path d="M487.9688,418.1406 Q487.3906,418.4375 486.75,418.5859 Q486.1094,418.7344 485.4063,418.7344 Q482.9063,418.7344 481.5859,417.0859 Q480.2656,415.4375 480.2656,412.3125 Q480.2656,409.1875 481.5859,407.5313 Q482.9063,405.875 485.4063,405.875 Q486.1094,405.875 486.7578,406.0313 Q487.4063,406.1875 487.9688,406.4844 L487.9688,409.2031 Q487.3438,408.625 486.75,408.3516 Q486.1563,408.0781 485.5313,408.0781 Q484.1875,408.0781 483.5,409.1484 Q482.8125,410.2188 482.8125,412.3125 Q482.8125,414.4063 483.5,415.4766 Q484.1875,416.5469 485.5313,416.5469 Q486.1563,416.5469 486.75,416.2734 Q487.3438,416 487.9688,415.4219 L487.9688,418.1406 Z "/><text fill="#000000" font-family="sans-serif" font-size="12" lengthAdjust="spacingAndGlyphs" textLength="94" x="499" y="416.6543">StudioInitializer</text><line style="stroke: #A80036; stroke-width: 1.5;" x1="471" x2="595" y1="428.5" y2="428.5"/><line style="stroke: #A80036; stroke-width: 1.5;" x1="471" x2="595" y1="436.5" y2="436.5"/><ellipse cx="481" cy="447.5" fill="#84BE84" rx="3" ry="3" style="stroke: #038048; stroke-width: 1.0;"/><text fill="#000000" font-family="sans-serif" font-size="11" lengthAdjust="spacingAndGlyphs" textLength="94" x="490" y="450.7104">StudioInitializer()</text><ellipse cx="481" cy="460.3047" fill="#84BE84" rx="3" ry="3" style="stroke: #038048; stroke-width: 1.0;"/><text fill="#000000" font-family="sans-serif" font-size="11" lengthAdjust="spacingAndGlyphs" textLength="89" x="490" y="463.5151">initializer(): void</text><!--MD5=[acff5a4acc89e6649eeee2175e5961e2]
class Studiomanagement.Studio--><rect fill="#FEFECE" filter="url(#f1szbsd5vqkodc)" height="201.6563" id="Studiomanagement.Studio" style="stroke: #A80036; stroke-width: 1.5;" width="593" x="22.5" y="43"/><ellipse cx="294.75" cy="59" fill="#ADD1B2" rx="11" ry="11" style="stroke: #A80036; stroke-width: 1.0;"/><path d="M297.7188,64.6406 Q297.1406,64.9375 296.5,65.0859 Q295.8594,65.2344 295.1563,65.2344 Q292.6563,65.2344 291.3359,63.5859 Q290.0156,61.9375 290.0156,58.8125 Q290.0156,55.6875 291.3359,54.0313 Q292.6563,52.375 295.1563,52.375 Q295.8594,52.375 296.5078,52.5313 Q297.1563,52.6875 297.7188,52.9844 L297.7188,55.7031 Q297.0938,55.125 296.5,54.8516 Q295.9063,54.5781 295.2813,54.5781 Q293.9375,54.5781 293.25,55.6484 Q292.5625,56.7188 292.5625,58.8125 Q292.5625,60.9063 293.25,61.9766 Q293.9375,63.0469 295.2813,63.0469 Q295.9063,63.0469 296.5,62.7734 Q297.0938,62.5 297.7188,61.9219 L297.7188,64.6406 Z "/><text fill="#000000" font-family="sans-serif" font-size="12" lengthAdjust="spacingAndGlyphs" textLength="40" x="315.25" y="63.1543">Studio</text><line style="stroke: #A80036; stroke-width: 1.5;" x1="23.5" x2="614.5" y1="75" y2="75"/><rect fill="none" height="6" style="stroke: #C82930; stroke-width: 1.0;" width="6" x="30.5" y="83"/><text fill="#000000" font-family="sans-serif" font-size="11" lengthAdjust="spacingAndGlyphs" textLength="45" x="42.5" y="89.2104">id: Long</text><rect fill="none" height="6" style="stroke: #C82930; stroke-width: 1.0;" width="6" x="30.5" y="95.8047"/><text fill="#000000" font-family="sans-serif" font-size="11" lengthAdjust="spacingAndGlyphs" textLength="122" x="42.5" y="102.0151">openingTimes: String</text><rect fill="none" height="6" style="stroke: #C82930; stroke-width: 1.0;" width="6" x="30.5" y="108.6094"/><text fill="#000000" font-family="sans-serif" font-size="11" lengthAdjust="spacingAndGlyphs" textLength="118" x="42.5" y="114.8198">contractTerm: String</text><rect fill="none" height="6" style="stroke: #C82930; stroke-width: 1.0;" width="6" x="30.5" y="121.4141"/><text fill="#000000" font-family="sans-serif" font-size="11" lengthAdjust="spacingAndGlyphs" textLength="114" x="42.5" y="127.6245">monthlyFees: String</text><rect fill="none" height="6" style="stroke: #C82930; stroke-width: 1.0;" width="6" x="30.5" y="134.2188"/><text fill="#000000" font-family="sans-serif" font-size="11" lengthAdjust="spacingAndGlyphs" textLength="141" x="42.5" y="140.4292">advertisingBonus: String</text><line style="stroke: #A80036; stroke-width: 1.5;" x1="23.5" x2="614.5" y1="147.0234" y2="147.0234"/><ellipse cx="33.5" cy="158.0234" fill="#84BE84" rx="3" ry="3" style="stroke: #038048; stroke-width: 1.0;"/><text fill="#000000" font-family="sans-serif" font-size="11" lengthAdjust="spacingAndGlyphs" textLength="48" x="42.5" y="161.2339">Studio ()</text><ellipse cx="33.5" cy="170.8281" fill="#84BE84" rx="3" ry="3" style="stroke: #038048; stroke-width: 1.0;"/><text fill="#000000" font-family="sans-serif" font-size="11" lengthAdjust="spacingAndGlyphs" textLength="567" x="42.5" y="174.0386">Studio (openingTimes: String, contractTerm: String, monthlyFees: String, advertisingBonus: String)</text><ellipse cx="33.5" cy="183.6328" fill="#84BE84" rx="3" ry="3" style="stroke: #038048; stroke-width: 1.0;"/><text fill="#000000" font-family="sans-serif" font-size="11" lengthAdjust="spacingAndGlyphs" textLength="69" x="42.5" y="186.8433">getID(): long</text><ellipse cx="33.5" cy="196.4375" fill="#84BE84" rx="3" ry="3" style="stroke: #038048; stroke-width: 1.0;"/><text fill="#000000" font-family="sans-serif" font-size="11" lengthAdjust="spacingAndGlyphs" textLength="148" x="42.5" y="199.6479">getopeningTimes(): String</text><ellipse cx="33.5" cy="209.2422" fill="#84BE84" rx="3" ry="3" style="stroke: #038048; stroke-width: 1.0;"/><text fill="#000000" font-family="sans-serif" font-size="11" lengthAdjust="spacingAndGlyphs" textLength="144" x="42.5" y="212.4526">getcontractTerm(): String</text><ellipse cx="33.5" cy="222.0469" fill="#84BE84" rx="3" ry="3" style="stroke: #038048; stroke-width: 1.0;"/><text fill="#000000" font-family="sans-serif" font-size="11" lengthAdjust="spacingAndGlyphs" textLength="140" x="42.5" y="225.2573">getmonthlyFees(): String</text><ellipse cx="33.5" cy="234.8516" fill="#84BE84" rx="3" ry="3" style="stroke: #038048; stroke-width: 1.0;"/><text fill="#000000" font-family="sans-serif" font-size="11" lengthAdjust="spacingAndGlyphs" textLength="167" x="42.5" y="238.062">getadvertisingBonus(): String</text><!--MD5=[ac9491868aae864c9cfd6ff0f7471b0d]
link Studiomanagement.StudioController to Studiomanagement.StudioForm--><path d="M844.4486,187.0285 C818.8193,238.1987 776.0137,323.6623 748.1471,379.2994 " fill="none" id="Studiomanagement.StudioController-&gt;Studiomanagement.StudioForm" style="stroke: #A80036; stroke-width: 1.0; stroke-dasharray: 7.0,7.0;"/><polygon fill="#A80036" points="745.833,383.9196,753.4399,377.6639,748.0722,379.449,746.287,374.0812,745.833,383.9196" style="stroke: #A80036; stroke-width: 1.0;"/><text fill="#000000" font-family="sans-serif" font-size="13" lengthAdjust="spacingAndGlyphs" textLength="39" x="785" y="319.0669">«use»</text><!--MD5=[c7835a2365dfaf02b603e11f5a8dbb11]
link Studiomanagement.StudioController to Studiomanagement.StudioService--><path d="M881.6435,198.5638 C881.6435,198.5638 919.9804,332.281 934.6707,383.5202 " fill="none" id="Studiomanagement.StudioController-Studiomanagement.StudioService" style="stroke: #A80036; stroke-width: 1.0;"/><polygon fill="#A80036" points="938.3125,396.2225,939.6771,386.4686,936.9345,391.4161,931.987,388.6735,938.3125,396.2225" style="stroke: #A80036; stroke-width: 1.0;"/><line style="stroke: #A80036; stroke-width: 1.0;" x1="936.9345" x2="934.7297" y1="391.4161" y2="383.726"/><polygon fill="#FFFFFF" points="878.3363,187.0285,876.1448,193.8985,881.6435,198.5638,883.835,191.6937,878.3363,187.0285" style="stroke: #A80036; stroke-width: 1.0;"/><rect fill="none" height="6" style="stroke: #C82930; stroke-width: 1.0;" width="6" x="920" y="312.0664"/><text fill="#000000" font-family="sans-serif" font-size="13" lengthAdjust="spacingAndGlyphs" textLength="86" x="930" y="319.0669">studioService</text><text fill="#000000" font-family="sans-serif" font-size="13" lengthAdjust="spacingAndGlyphs" textLength="8" x="927.6963" y="385.36">1</text><!--MD5=[cf71af3427646bf24bceb7933ed4827f]
link Studiomanagement.StudioInitializer to Studiomanagement.StudioRepository--><path d="M577.6249,479.0902 C577.6249,479.0902 673.1586,576.6909 708.162,612.4516 " fill="none" id="Studiomanagement.StudioInitializer-Studiomanagement.StudioRepository" style="stroke: #A80036; stroke-width: 1.0;"/><polygon fill="#A80036" points="717.4559,621.9465,714.0189,612.7168,713.9584,618.3734,708.3018,618.3129,717.4559,621.9465" style="stroke: #A80036; stroke-width: 1.0;"/><line style="stroke: #A80036; stroke-width: 1.0;" x1="713.9584" x2="708.3624" y1="618.3734" y2="612.6563"/><polygon fill="#FFFFFF" points="569.2308,470.5147,570.5693,477.6005,577.6249,479.0902,576.2863,472.0044,569.2308,470.5147" style="stroke: #A80036; stroke-width: 1.0;"/><rect fill="none" height="6" style="stroke: #C82930; stroke-width: 1.0;" width="6" x="660" y="550.0664"/><text fill="#000000" font-family="sans-serif" font-size="13" lengthAdjust="spacingAndGlyphs" textLength="106" x="670" y="557.0669">studioRepository</text><text fill="#000000" font-family="sans-serif" font-size="13" lengthAdjust="spacingAndGlyphs" textLength="8" x="702.3977" y="610.9448">1</text><!--MD5=[40e109ca04ff837a28577c6cbb2856e0]
link Studiomanagement.StudioService to Studiomanagement.StudioRepository--><path d="M904.3751,479.0902 C904.3751,479.0902 808.8414,576.6909 773.838,612.4516 " fill="none" id="Studiomanagement.StudioService-Studiomanagement.StudioRepository" style="stroke: #A80036; stroke-width: 1.0;"/><polygon fill="#A80036" points="764.5441,621.9465,773.6982,618.3129,768.0416,618.3734,767.9811,612.7168,764.5441,621.9465" style="stroke: #A80036; stroke-width: 1.0;"/><line style="stroke: #A80036; stroke-width: 1.0;" x1="768.0416" x2="773.6377" y1="618.3734" y2="612.6563"/><polygon fill="#FFFFFF" points="912.7692,470.5147,905.7137,472.0044,904.3751,479.0902,911.4307,477.6005,912.7692,470.5147" style="stroke: #A80036; stroke-width: 1.0;"/><rect fill="none" height="6" style="stroke: #C82930; stroke-width: 1.0;" width="6" x="843" y="550.0664"/><text fill="#000000" font-family="sans-serif" font-size="13" lengthAdjust="spacingAndGlyphs" textLength="106" x="853" y="557.0669">studioRepository</text><text fill="#000000" font-family="sans-serif" font-size="13" lengthAdjust="spacingAndGlyphs" textLength="8" x="761.5523" y="610.9448">1</text><!--MD5=[3df98b3631bc143434740a6d8febf7e7]
@startuml
namespace Studiomanagement {

     StudioController ..> StudioForm: <<use>>
     StudioController o- -> "1" StudioService: "- studioService"
     class StudioController {
        + index(model: Model): String
        + editStudio(model: Model, studioForm: StudioForm): String
        + editStudio(StudioForm studioForm, Model model, Errors errors): String
     }
     
     Interface StudioRepository
    

  StudioInitializer o- -> "1" StudioRepository: "- studioRepository"
  class StudioInitializer {
        + StudioInitializer()
        + initializer(): void       
     }
     StudioService o- -> "1" StudioRepository: "- studioRepository"
       class StudioService {
        + getStudio(): Studio
        + saveStudio(studio: Studio): void   
     }
  
   Interface StudioForm{
        getopeningTimes(): String
        getcontractTerm(): String
        getmonthlyFees(): String
        getadvertisingBonus(): String
     }
    class Studio {
        
        - id: Long
        - openingTimes: String
        - contractTerm: String
        - monthlyFees: String
        - advertisingBonus: String

        + Studio ()
        + Studio (openingTimes: String, contractTerm: String, monthlyFees: String, advertisingBonus: String)
        + getID(): long
        + getopeningTimes(): String
        + getcontractTerm(): String
        + getmonthlyFees(): String
        + getadvertisingBonus(): String
     }
}
@enduml

PlantUML version 1.2019.11(Sun Sep 22 10:02:15 UTC 2019)
(GPL source distribution)
Java Runtime: OpenJDK Runtime Environment
JVM: OpenJDK 64-Bit Server VM
Java Version: 1.8.0_222-heroku-b10
Operating System: Linux
Default Encoding: UTF-8
Language: en
Country: US
--></g></svg>